STARTFONT 2.3
FONT -FontForge-Open Sans-Book-I-Normal-Sans--18-180-72-72-P-97-ISO10646-1
SIZE 18 72 72  2
FONTBOUNDINGBOX 31 24 -9 -5
COMMENT "Generated by fontforge, http://fontforge.sourceforge.net"
COMMENT "Digitized data copyright (c) 2010-2011, Google Corporation."
STARTPROPERTIES 42
FOUNDRY "FontForge"
FAMILY_NAME "Open Sans"
WEIGHT_NAME "Book"
SLANT "I"
SETWIDTH_NAME "Normal"
ADD_STYLE_NAME "Sans"
PIXEL_SIZE 18
POINT_SIZE 180
RESOLUTION_X 72
RESOLUTION_Y 72
SPACING "P"
AVERAGE_WIDTH 97
CHARSET_REGISTRY "ISO10646"
CHARSET_ENCODING "1"
FONTNAME_REGISTRY ""
CHARSET_COLLECTIONS "ISO8859-2 ISO8859-5 ISO8859-7 ISO8859-9 ISO8859-4 ISO10646-1"
BITS_PER_PIXEL 2
FONT_NAME "OpenSans-Italic"
FACE_NAME "Open Sans Italic"
COPYRIGHT "Digitized data copyright (c) 2010-2011, Google Corporation."
FONT_VERSION "1.10"
FONT_ASCENT 14
FONT_DESCENT 4
UNDERLINE_POSITION -2
UNDERLINE_THICKNESS 1
X_HEIGHT 9
CAP_HEIGHT 12
RAW_ASCENT 799
RAW_DESCENT 200
ITALIC_ANGLE 4992
NORM_SPACE 5
RELATIVE_WEIGHT 40
RELATIVE_SETWIDTH 50
SUPERSCRIPT_X 0
SUPERSCRIPT_Y 8
SUPERSCRIPT_SIZE 11
SUBSCRIPT_X 0
SUBSCRIPT_Y 2
SUBSCRIPT_SIZE 11
FIGURE_WIDTH 10
AVG_LOWERCASE_WIDTH 96
AVG_UPPERCASE_WIDTH 110
ENDPROPERTIES
CHARS 936
STARTCHAR space
ENCODING 32
SWIDTH 259 0
DWIDTH 5 0
BBX 1 1 0 0
BITMAP
00
ENDCHAR
STARTCHAR exclam
ENCODING 33
SWIDTH 258 0
DWIDTH 5 0
BBX 5 13 0 0
BITMAP
0380
0740
0740
0B00
0A00
0D00
0C00
1C00
1800
0000
1000
7400
7400
ENDCHAR
STARTCHAR quotedbl
ENCODING 34
SWIDTH 386 0
DWIDTH 7 0
BBX 6 5 2 8
BITMAP
71D0
B2C0
A280
9240
C300
ENDCHAR
STARTCHAR numbersign
ENCODING 35
SWIDTH 645 0
DWIDTH 12 0
BBX 12 13 0 0
BITMAP
002824
003430
007070
0060A0
1FFFFE
01D1C0
018280
028240
7FFFF8
070600
0A0A00
090D00
0C1C00
ENDCHAR
STARTCHAR dollar
ENCODING 36
SWIDTH 550 0
DWIDTH 10 0
BBX 9 15 0 -1
BITMAP
000D00
000C00
01BF80
07A980
0A2400
0A3400
07B000
01F800
00AB00
00D740
00C700
65DE00
2FE400
024000
034000
ENDCHAR
STARTCHAR percent
ENCODING 37
SWIDTH 792 0
DWIDTH 14 0
BBX 13 13 1 0
BITMAP
0BD00A00
29A02800
34707000
7070D000
60A28000
60D66E00
769DD740
2E758240
00A24340
01C34300
07434700
09039D00
2801F400
ENDCHAR
STARTCHAR ampersand
ENCODING 38
SWIDTH 669 0
DWIDTH 12 0
BBX 12 13 0 0
BITMAP
006F40
01D6C0
0280D0
0281D0
02C740
01FD00
06F000
1D281D
341E28
7007B0
7403D0
3D5FE0
1BE474
ENDCHAR
STARTCHAR quotesingle
ENCODING 39
SWIDTH 216 0
DWIDTH 4 0
BBX 2 5 2 8
BITMAP
70
B0
A0
90
C0
ENDCHAR
STARTCHAR parenleft
ENCODING 40
SWIDTH 285 0
DWIDTH 5 0
BBX 7 16 0 -3
BITMAP
0074
00D0
0280
0700
0E00
1C00
2800
3800
3400
7400
7000
7400
3400
3400
2800
1C00
ENDCHAR
STARTCHAR parenright
ENCODING 41
SWIDTH 285 0
DWIDTH 5 0
BBX 6 16 -1 -3
BITMAP
0340
0280
01C0
01D0
00D0
00D0
00D0
01D0
01C0
0280
0380
0700
0E00
2C00
7400
D000
ENDCHAR
STARTCHAR asterisk
ENCODING 42
SWIDTH 551 0
DWIDTH 10 0
BBX 8 8 2 6
BITMAP
00D0
00C0
E180
6FAA
07DA
1CD0
74A0
1060
ENDCHAR
STARTCHAR plus
ENCODING 43
SWIDTH 550 0
DWIDTH 10 0
BBX 9 9 1 2
BITMAP
014000
018000
018000
018000
FFFF40
56D500
018000
018000
018000
ENDCHAR
STARTCHAR comma
ENCODING 44
SWIDTH 240 0
DWIDTH 4 0
BBX 4 4 -1 -2
BITMAP
1D
2C
74
A0
ENDCHAR
STARTCHAR hyphen
ENCODING 45
SWIDTH 312 0
DWIDTH 6 0
BBX 5 2 0 4
BITMAP
7FC0
5540
ENDCHAR
STARTCHAR period
ENCODING 46
SWIDTH 252 0
DWIDTH 5 0
BBX 3 3 0 0
BITMAP
10
74
74
ENDCHAR
STARTCHAR slash
ENCODING 47
SWIDTH 350 0
DWIDTH 6 0
BBX 9 13 -1 0
BITMAP
000380
000B00
000D00
002C00
007400
00A000
01D000
028000
074000
0E0000
1C0000
380000
B00000
ENDCHAR
STARTCHAR zero
ENCODING 48
SWIDTH 550 0
DWIDTH 10 0
BBX 9 13 1 0
BITMAP
01F900
0B9B00
1D0340
380380
740380
B00340
A00340
E00740
E00B00
E00E00
B02C00
79B400
1F9000
ENDCHAR
STARTCHAR one
ENCODING 49
SWIDTH 550 0
DWIDTH 10 0
BBX 5 13 3 0
BITMAP
0780
2F80
F740
4740
0B00
0A00
0E00
1D00
1C00
2C00
2800
3400
7400
ENDCHAR
STARTCHAR two
ENCODING 50
SWIDTH 550 0
DWIDTH 10 0
BBX 10 13 0 0
BITMAP
01BE40
0797C0
0001D0
0000D0
0001D0
000380
000A00
003800
00E000
078000
1E0000
795500
BFFF00
ENDCHAR
STARTCHAR three
ENCODING 51
SWIDTH 550 0
DWIDTH 10 0
BBX 10 13 0 0
BITMAP
01BE40
0796C0
0001D0
0000D0
0002C0
000B40
02F800
015E00
000740
000740
000740
A56E00
6FE400
ENDCHAR
STARTCHAR four
ENCODING 52
SWIDTH 550 0
DWIDTH 10 0
BBX 10 13 0 0
BITMAP
0002D0
000BC0
001EC0
007680
00E380
028340
0B0700
1D0B00
740A00
BFFFE0
555E40
001C00
002800
ENDCHAR
STARTCHAR five
ENCODING 53
SWIDTH 550 0
DWIDTH 10 0
BBX 10 13 0 0
BITMAP
01FFE0
029540
034000
070000
0B0000
0BF900
055B40
000380
000380
000380
000740
656E00
2FE400
ENDCHAR
STARTCHAR six
ENCODING 54
SWIDTH 550 0
DWIDTH 10 0
BBX 9 13 1 0
BITMAP
006F80
02E540
0B0000
1D0000
380000
76F800
BD5E00
B40B00
A00B00
A00A00
B00D00
797800
1BE000
ENDCHAR
STARTCHAR seven
ENCODING 55
SWIDTH 550 0
DWIDTH 10 0
BBX 9 13 1 0
BITMAP
3FFFC0
155780
000700
000E00
002C00
003400
00A000
01D000
038000
070000
0E0000
2C0000
740000
ENDCHAR
STARTCHAR eight
ENCODING 56
SWIDTH 550 0
DWIDTH 10 0
BBX 9 13 1 0
BITMAP
02FD00
0B5B40
0D0380
1D0280
0D0740
075900
0BF400
7E7D00
F00E00
D00A00
E00E00
B57C00
2FE000
ENDCHAR
STARTCHAR nine
ENCODING 57
SWIDTH 550 0
DWIDTH 10 0
BBX 9 13 1 0
BITMAP
06F800
1E5E00
380740
740340
700740
740B40
381F00
1FEB00
000E00
001C00
007800
96E000
FE4000
ENDCHAR
STARTCHAR colon
ENCODING 58
SWIDTH 252 0
DWIDTH 5 0
BBX 4 10 0 0
BITMAP
0A
0E
04
00
00
00
00
10
74
74
ENDCHAR
STARTCHAR semicolon
ENCODING 59
SWIDTH 252 0
DWIDTH 5 0
BBX 5 12 -1 -2
BITMAP
0280
0380
0100
0000
0000
0000
0000
0000
1D00
2C00
7400
A000
ENDCHAR
STARTCHAR less
ENCODING 60
SWIDTH 550 0
DWIDTH 10 0
BBX 8 9 1 2
BITMAP
0002
002E
02E0
1E40
F400
7D00
06E0
006E
0006
ENDCHAR
STARTCHAR equal
ENCODING 61
SWIDTH 550 0
DWIDTH 10 0
BBX 9 5 1 4
BITMAP
FFFF40
555500
000000
555500
FFFF40
ENDCHAR
STARTCHAR greater
ENCODING 62
SWIDTH 550 0
DWIDTH 10 0
BBX 8 9 1 2
BITMAP
9000
B800
0B80
00B8
000B
006D
07D0
BD00
9000
ENDCHAR
STARTCHAR question
ENCODING 63
SWIDTH 426 0
DWIDTH 8 0
BBX 7 13 1 0
BITMAP
1BE0
3978
001C
002C
0078
01E0
0740
1D00
2800
0000
1000
7400
7400
ENDCHAR
STARTCHAR at
ENCODING 64
SWIDTH 847 0
DWIDTH 15 0
BBX 14 14 1 -1
BITMAP
002BF900
02E51B40
0A0001C0
281BE0D0
747470A0
A0D0A0A0
D1C0A0A0
D280D090
D281D1C0
D1C6D780
A0B87E00
74000000
1E55A000
02FF9000
ENDCHAR
STARTCHAR A
ENCODING 65
SWIDTH 555 0
DWIDTH 10 0
BBX 10 13 -1 0
BITMAP
000780
000B80
001EC0
0035C0
0071C0
00D1D0
0280D0
03FFD0
0A55E0
0D00A0
2800A0
7400B0
B00070
ENDCHAR
STARTCHAR B
ENCODING 66
SWIDTH 598 0
DWIDTH 11 0
BBX 10 13 1 0
BITMAP
0BFE40
0E57C0
0D01D0
1D00E0
1C01D0
2C0780
3FFD00
395B00
740380
B00380
A00740
E56E00
FFE400
ENDCHAR
STARTCHAR C
ENCODING 67
SWIDTH 584 0
DWIDTH 11 0
BBX 10 13 1 0
BITMAP
006FE0
02E5A0
0B4000
1D0000
380000
740000
B00000
B00000
B00000
B00000
780000
2E5600
06FE00
ENDCHAR
STARTCHAR D
ENCODING 68
SWIDTH 666 0
DWIDTH 12 0
BBX 11 13 1 0
BITMAP
0BFE40
0E5BD0
0D00F0
1D0074
1C0074
280074
380074
3400B0
7400E0
B001D0
A00780
E5BE00
FFA400
ENDCHAR
STARTCHAR E
ENCODING 69
SWIDTH 511 0
DWIDTH 9 0
BBX 9 13 1 0
BITMAP
0BFFC0
0E5540
0D0000
1D0000
1C0000
2C0000
3FFD00
395400
740000
B00000
A00000
E55000
FFF400
ENDCHAR
STARTCHAR F
ENCODING 70
SWIDTH 472 0
DWIDTH 9 0
BBX 9 13 1 0
BITMAP
0BFFC0
0E5540
0D0000
1D0000
1C0000
280000
3FFD00
395400
740000
B00000
A00000
E00000
D00000
ENDCHAR
STARTCHAR G
ENCODING 71
SWIDTH 676 0
DWIDTH 12 0
BBX 11 13 1 0
BITMAP
006FE4
02E5A8
0B4000
1D0000
380000
740000
B00FF0
B005B0
B000A0
B000D0
7801D0
2E56C0
06FE40
ENDCHAR
STARTCHAR H
ENCODING 72
SWIDTH 678 0
DWIDTH 12 0
BBX 11 13 1 0
BITMAP
0B001C
0E002C
0D0028
1D0038
1C0034
2C0070
3FFFF0
3955E0
7400D0
B000D0
A001C0
E002C0
D00280
ENDCHAR
STARTCHAR I
ENCODING 73
SWIDTH 272 0
DWIDTH 5 0
BBX 4 13 1 0
BITMAP
0B
0E
0D
1D
1C
28
38
34
74
B0
A0
E0
D0
ENDCHAR
STARTCHAR J
ENCODING 74
SWIDTH 267 0
DWIDTH 5 0
BBX 8 16 -3 -3
BITMAP
000B
000E
000D
001D
001C
0028
0038
0034
0070
00B0
00A0
00E0
01D0
02C0
5B40
BD00
ENDCHAR
STARTCHAR K
ENCODING 75
SWIDTH 557 0
DWIDTH 10 0
BBX 11 13 1 0
BITMAP
0B00B4
0E02D0
0D0B40
1D2D00
1CB400
2AD000
3FD000
38A000
747400
B03800
A02C00
E00D00
D00B00
ENDCHAR
STARTCHAR L
ENCODING 76
SWIDTH 474 0
DWIDTH 9 0
BBX 7 13 1 0
BITMAP
0B00
0E00
0D00
1D00
1C00
2800
3800
3400
7400
B000
A000
E550
FFF4
ENDCHAR
STARTCHAR M
ENCODING 77
SWIDTH 836 0
DWIDTH 15 0
BBX 14 13 1 0
BITMAP
0B8001F0
0F8003E0
0EC00AE0
1DC00DD0
1CC029D0
28D076C0
38D0A280
34A1C380
70A28340
B0A70740
A07D0B00
D07C0A00
D0340E00
ENDCHAR
STARTCHAR N
ENCODING 78
SWIDTH 702 0
DWIDTH 13 0
BBX 12 13 1 0
BITMAP
0B400A
0F800D
0EC01D
1DD01C
1CA028
287038
383434
342870
701D70
B00EA0
A00BE0
D003D0
D002C0
ENDCHAR
STARTCHAR O
ENCODING 79
SWIDTH 720 0
DWIDTH 13 0
BBX 12 13 1 0
BITMAP
00BF90
03E5F4
0F003C
2C001D
38001D
74001D
B0001D
B0002C
B00038
B00074
7801E0
2E5BC0
06F900
ENDCHAR
STARTCHAR P
ENCODING 80
SWIDTH 565 0
DWIDTH 10 0
BBX 9 13 1 0
BITMAP
0BFE00
0E5B80
0D02C0
1D01C0
1C02C0
2C0380
381B40
3FF900
754000
B00000
A00000
E00000
D00000
ENDCHAR
STARTCHAR Q
ENCODING 81
SWIDTH 720 0
DWIDTH 13 0
BBX 12 16 1 -3
BITMAP
00BF90
03E5F4
0F003C
2C001D
38001D
74001D
B0001D
B0002C
B00038
B00074
7801E0
2E5B80
06FD00
001D00
000B40
0003C0
ENDCHAR
STARTCHAR R
ENCODING 82
SWIDTH 568 0
DWIDTH 10 0
BBX 9 13 1 0
BITMAP
0BFE00
0E5B80
0D02C0
1D01C0
1C02C0
281B40
3FF900
397000
703800
B02C00
A01D00
E00E00
D00B00
ENDCHAR
STARTCHAR S
ENCODING 83
SWIDTH 501 0
DWIDTH 9 0
BBX 9 13 0 0
BITMAP
01BF80
0796C0
0E0000
0E0000
0E0000
078000
01F400
002D00
000B00
000B00
000E00
A57D00
6FE400
ENDCHAR
STARTCHAR T
ENCODING 84
SWIDTH 498 0
DWIDTH 9 0
BBX 10 13 1 0
BITMAP
7FFFD0
15E540
00D000
01D000
01C000
02C000
038000
034000
074000
0B0000
0A0000
0E0000
0D0000
ENDCHAR
STARTCHAR U
ENCODING 85
SWIDTH 675 0
DWIDTH 12 0
BBX 12 13 1 0
BITMAP
0A001D
0D001C
1D0028
1C0038
2C0034
380074
3400B0
7400A0
7000E0
B001D0
7402C0
3D5F40
1BF800
ENDCHAR
STARTCHAR V
ENCODING 86
SWIDTH 547 0
DWIDTH 10 0
BBX 11 13 1 0
BITMAP
740074
7400E0
3401D0
380380
380700
280E00
281C00
2C3800
1C7000
1CE000
1EC000
0F4000
0F0000
ENDCHAR
STARTCHAR W
ENCODING 87
SWIDTH 852 0
DWIDTH 15 0
BBX 15 13 2 0
BITMAP
D00B4038
E00F4074
E02B40A0
E03741D0
E07342C0
A0D24340
A1C28700
A2828E00
A7029C00
AA02A800
AD02B400
B802E000
B401D000
ENDCHAR
STARTCHAR X
ENCODING 88
SWIDTH 519 0
DWIDTH 9 0
BBX 12 13 -1 0
BITMAP
02801D
01C038
00D0A0
00A2C0
007740
003D00
003C00
00AD00
02CA00
074700
0E0380
2802C0
B001D0
ENDCHAR
STARTCHAR Y
ENCODING 89
SWIDTH 502 0
DWIDTH 9 0
BBX 10 13 1 0
BITMAP
7401D0
340380
280B00
1C1D00
1D3800
0DB000
0AD000
078000
070000
0B0000
0A0000
0E0000
1D0000
ENDCHAR
STARTCHAR Z
ENCODING 90
SWIDTH 530 0
DWIDTH 10 0
BBX 11 13 0 0
BITMAP
07FFF4
0555E0
0002C0
000740
001E00
003800
00B000
02D000
074000
0E0000
380000
B55500
FFFF00
ENDCHAR
STARTCHAR bracketleft
ENCODING 91
SWIDTH 286 0
DWIDTH 5 0
BBX 7 16 0 -3
BITMAP
03F8
0350
0700
0B00
0A00
0D00
0D00
1C00
2C00
2800
3400
7400
7000
A000
A400
FD00
ENDCHAR
STARTCHAR backslash
ENCODING 92
SWIDTH 350 0
DWIDTH 6 0
BBX 3 13 2 0
BITMAP
D0
E0
A0
A0
70
70
34
34
28
28
2C
1C
1C
ENDCHAR
STARTCHAR bracketright
ENCODING 93
SWIDTH 286 0
DWIDTH 5 0
BBX 8 16 -2 -3
BITMAP
00FD
005C
002C
0028
0034
0034
0070
00B0
00A0
00D0
01D0
01C0
0280
0280
1740
7F40
ENDCHAR
STARTCHAR asciicircum
ENCODING 94
SWIDTH 517 0
DWIDTH 9 0
BBX 9 8 0 5
BITMAP
002C00
007C00
00D900
028600
070700
0D0340
280280
7401C0
ENDCHAR
STARTCHAR underscore
ENCODING 95
SWIDTH 394 0
DWIDTH 7 0
BBX 8 2 -2 -4
BITMAP
BFFE
1554
ENDCHAR
STARTCHAR grave
ENCODING 96
SWIDTH 554 0
DWIDTH 10 0
BBX 3 3 5 11
BITMAP
B0
74
18
ENDCHAR
STARTCHAR a
ENCODING 97
SWIDTH 564 0
DWIDTH 10 0
BBX 9 10 1 0
BITMAP
06E580
1E5E80
380B40
B00700
E00B00
D00E00
D01E00
D03D00
B5EC00
2E5C00
ENDCHAR
STARTCHAR b
ENCODING 98
SWIDTH 577 0
DWIDTH 10 0
BBX 10 14 0 0
BITMAP
028000
038000
034000
070000
0B2F40
0AA6C0
0F40D0
0E00D0
1D00D0
2C01D0
2802C0
3C0740
7A5E00
62F800
ENDCHAR
STARTCHAR c
ENCODING 99
SWIDTH 450 0
DWIDTH 8 0
BBX 7 10 1 0
BITMAP
06F8
1E58
3800
B000
E000
D000
D000
E000
B960
1FE0
ENDCHAR
STARTCHAR d
ENCODING 100
SWIDTH 577 0
DWIDTH 10 0
BBX 10 14 1 0
BITMAP
0000E0
0000D0
0001D0
0001C0
06E680
1E5F80
380B40
B00700
E00B00
D00E00
D01E00
D03D00
B5EC00
2E5C00
ENDCHAR
STARTCHAR e
ENCODING 101
SWIDTH 493 0
DWIDTH 9 0
BBX 8 10 1 0
BITMAP
06F4
1E6D
341D
B078
FFE0
E400
D000
E000
B964
2FE0
ENDCHAR
STARTCHAR f
ENCODING 102
SWIDTH 312 0
DWIDTH 6 0
BBX 10 18 -2 -4
BITMAP
000BE0
001D50
002800
003400
02FF40
00B000
00A000
00E000
00D000
01C000
02C000
028000
034000
074000
070000
0A0000
5D0000
F80000
ENDCHAR
STARTCHAR g
ENCODING 103
SWIDTH 500 0
DWIDTH 9 0
BBX 11 14 -1 -4
BITMAP
00BFF8
039680
0B02C0
0A0280
074740
02F900
0A0000
0E4000
0BFD00
741B40
E00340
D00740
B45E00
2FE400
ENDCHAR
STARTCHAR h
ENCODING 104
SWIDTH 577 0
DWIDTH 10 0
BBX 10 14 0 0
BITMAP
028000
038000
034000
070000
0B2F40
0AA6D0
0F41D0
0E01D0
1D01C0
2C02C0
280380
380340
740740
700700
ENDCHAR
STARTCHAR i
ENCODING 105
SWIDTH 253 0
DWIDTH 5 0
BBX 5 14 0 0
BITMAP
0280
0240
0000
0000
0B00
0A00
0E00
0D00
1C00
2C00
2800
3800
7400
7000
ENDCHAR
STARTCHAR j
ENCODING 106
SWIDTH 253 0
DWIDTH 5 0
BBX 8 18 -3 -4
BITMAP
000A
0009
0000
0000
002C
0028
0038
0074
0070
00B0
00A0
00D0
01D0
01C0
0280
0380
1B40
7D00
ENDCHAR
STARTCHAR k
ENCODING 107
SWIDTH 487 0
DWIDTH 9 0
BBX 9 14 0 0
BITMAP
028000
038000
034000
070000
0B0380
0A0A00
0E2800
0DA000
1ED000
2EE000
287400
343800
742C00
700E00
ENDCHAR
STARTCHAR l
ENCODING 108
SWIDTH 253 0
DWIDTH 5 0
BBX 5 14 0 0
BITMAP
0280
0380
0340
0700
0B00
0A00
0E00
0D00
1C00
2C00
2800
3800
7400
7000
ENDCHAR
STARTCHAR m
ENCODING 109
SWIDTH 872 0
DWIDTH 16 0
BBX 15 10 0 0
BITMAP
0A2F46E0
0A969978
0F41E028
0E02D038
1D028034
2C038074
280340B0
380700A0
740B00E0
700A00D0
ENDCHAR
STARTCHAR n
ENCODING 110
SWIDTH 577 0
DWIDTH 10 0
BBX 10 10 0 0
BITMAP
0A2F40
0AA6D0
0F40D0
0E01D0
1D01C0
2C02C0
280380
380340
740740
700700
ENDCHAR
STARTCHAR o
ENCODING 111
SWIDTH 561 0
DWIDTH 10 0
BBX 9 10 1 0
BITMAP
06F800
1E5E00
740B00
B00740
E00740
D00B00
D00A00
E01D00
757800
1F9000
ENDCHAR
STARTCHAR p
ENCODING 112
SWIDTH 577 0
DWIDTH 10 0
BBX 11 14 -1 -4
BITMAP
028BD0
02A9B0
03D034
038034
074034
0B0074
0A00B0
0F01D0
1E9780
1CBE00
280000
380000
340000
740000
ENDCHAR
STARTCHAR q
ENCODING 113
SWIDTH 577 0
DWIDTH 10 0
BBX 9 14 1 -4
BITMAP
06E580
1E5E80
380B40
B00700
E00B00
D00E00
D01D00
D03D00
B5EC00
2E6C00
002800
003400
007400
007000
ENDCHAR
STARTCHAR r
ENCODING 114
SWIDTH 395 0
DWIDTH 7 0
BBX 8 10 0 0
BITMAP
0A2E
0AA4
0F40
0E00
1D00
2C00
2800
3800
7400
7000
ENDCHAR
STARTCHAR s
ENCODING 115
SWIDTH 428 0
DWIDTH 8 0
BBX 7 10 0 0
BITMAP
07F8
1D58
2800
2D00
0F40
02E0
0074
0034
95B0
BF90
ENDCHAR
STARTCHAR t
ENCODING 116
SWIDTH 324 0
DWIDTH 6 0
BBX 6 12 1 0
BITMAP
0900
1C00
BFD0
2800
3800
7400
7000
B000
A000
E000
E500
7E00
ENDCHAR
STARTCHAR u
ENCODING 117
SWIDTH 577 0
DWIDTH 10 0
BBX 9 10 1 0
BITMAP
2C0280
380380
340340
740700
700B00
A00E00
E01E00
E03D00
B5EC00
6E5C00
ENDCHAR
STARTCHAR v
ENCODING 118
SWIDTH 461 0
DWIDTH 8 0
BBX 8 10 1 0
BITMAP
D00B
D01D
E02C
A074
A0A0
B1D0
7280
7740
7A00
3D00
ENDCHAR
STARTCHAR w
ENCODING 119
SWIDTH 716 0
DWIDTH 13 0
BBX 13 10 1 0
BITMAP
D02C0740
E07C0B00
E0AC0D00
E1CD2C00
A28D3800
A34D7000
AA0DA000
AD0ED000
BC0B8000
B40B4000
ENDCHAR
STARTCHAR x
ENCODING 120
SWIDTH 478 0
DWIDTH 9 0
BBX 10 10 -1 0
BITMAP
0700E0
038280
01CB00
00ED00
00B400
00F400
02A800
0B1D00
1D0E00
740700
ENDCHAR
STARTCHAR y
ENCODING 121
SWIDTH 461 0
DWIDTH 8 0
BBX 11 14 -2 -4
BITMAP
03402C
038074
0280A0
0281D0
01C280
01C740
01CA00
00DC00
00F800
00B000
00D000
02C000
5B4000
B90000
ENDCHAR
STARTCHAR z
ENCODING 122
SWIDTH 443 0
DWIDTH 8 0
BBX 8 10 0 0
BITMAP
0FFE
001D
0038
00A0
02C0
0740
1D00
3800
B000
FFF0
ENDCHAR
STARTCHAR braceleft
ENCODING 123
SWIDTH 349 0
DWIDTH 6 0
BBX 7 16 0 -3
BITMAP
006C
00E4
01C0
0280
0280
0340
0B00
B800
6C00
0D00
0D00
1C00
1C00
2800
2D00
0B00
ENDCHAR
STARTCHAR bar
ENCODING 124
SWIDTH 550 0
DWIDTH 10 0
BBX 2 18 4 -4
BITMAP
70
70
70
70
70
70
70
70
70
70
70
70
70
70
70
70
70
70
ENDCHAR
STARTCHAR braceright
ENCODING 125
SWIDTH 349 0
DWIDTH 6 0
BBX 7 16 -1 -3
BITMAP
02D0
01B0
0070
00A0
00A0
00D0
00A0
007C
01E4
0280
0340
0700
0700
0A00
5D00
B800
ENDCHAR
STARTCHAR asciitilde
ENCODING 126
SWIDTH 550 0
DWIDTH 10 0
BBX 9 2 1 5
BITMAP
7F9540
95BE00
ENDCHAR
STARTCHAR nonbreakingspace
ENCODING 160
SWIDTH 259 0
DWIDTH 5 0
BBX 1 1 0 0
BITMAP
00
ENDCHAR
STARTCHAR exclamdown
ENCODING 161
SWIDTH 258 0
DWIDTH 5 0
BBX 5 13 0 -3
BITMAP
0740
0B40
0100
0000
0C00
0C00
1800
2800
3400
7400
7000
B000
E000
ENDCHAR
STARTCHAR cent
ENCODING 162
SWIDTH 550 0
DWIDTH 10 0
BBX 8 13 2 0
BITMAP
0060
06FD
1E58
3800
7000
A000
E000
E000
E000
7960
1FE0
0900
0D00
ENDCHAR
STARTCHAR sterling
ENCODING 163
SWIDTH 550 0
DWIDTH 10 0
BBX 10 13 0 0
BITMAP
002FE0
00B560
01D000
01C000
028000
038000
3FFE00
074000
0B0000
0A0000
1D0000
795500
FFFF40
ENDCHAR
STARTCHAR currency
ENCODING 164
SWIDTH 550 0
DWIDTH 10 0
BBX 8 9 1 2
BITMAP
2002
7BEA
2D6C
2409
340A
2409
2D6C
7BEA
2002
ENDCHAR
STARTCHAR yen
ENCODING 165
SWIDTH 550 0
DWIDTH 10 0
BBX 10 13 1 0
BITMAP
2800E0
2C02C0
1C0740
0D0A00
0A1C00
063400
07A000
7FFD00
179400
BFF800
1B5000
0A0000
0A0000
ENDCHAR
STARTCHAR brokenbar
ENCODING 166
SWIDTH 550 0
DWIDTH 10 0
BBX 2 18 4 -4
BITMAP
70
70
70
70
70
70
70
00
00
00
00
70
70
70
70
70
70
70
ENDCHAR
STARTCHAR section
ENCODING 167
SWIDTH 485 0
DWIDTH 9 0
BBX 9 14 0 0
BITMAP
01BE40
039540
070000
078000
02F800
0E1E00
1C0B00
1C0A00
0F5D00
02F400
003800
002800
557400
6F9000
ENDCHAR
STARTCHAR dieresis
ENCODING 168
SWIDTH 554 0
DWIDTH 10 0
BBX 5 2 4 11
BITMAP
9280
9280
ENDCHAR
STARTCHAR copyright
ENCODING 169
SWIDTH 832 0
DWIDTH 15 0
BBX 14 13 1 0
BITMAP
00AF9000
07406800
18000700
302F8180
60A440C0
91C00090
91C00090
91C00090
60E440C0
302F8180
18000700
07406800
00AF9000
ENDCHAR
STARTCHAR ordfeminine
ENCODING 170
SWIDTH 334 0
DWIDTH 6 0
BBX 6 6 1 7
BITMAP
0B60
34A0
6090
60C0
62C0
3D80
ENDCHAR
STARTCHAR guillemotleft
ENCODING 171
SWIDTH 467 0
DWIDTH 8 0
BBX 7 7 1 1
BITMAP
0608
1D28
B4A0
D2C0
A1C0
34A0
1820
ENDCHAR
STARTCHAR logicalnot
ENCODING 172
SWIDTH 550 0
DWIDTH 10 0
BBX 9 5 1 2
BITMAP
FFFF40
555740
000340
000340
000340
ENDCHAR
STARTCHAR uni00AD
ENCODING 173
SWIDTH 312 0
DWIDTH 6 0
BBX 5 2 0 4
BITMAP
7FC0
5540
ENDCHAR
STARTCHAR registered
ENCODING 174
SWIDTH 832 0
DWIDTH 15 0
BBX 14 13 1 0
BITMAP
00AF9000
07406800
18000700
307F8180
6061D0C0
9060D090
907F4090
90634090
6061C0C0
3060A180
18000700
07406800
00AF9000
ENDCHAR
STARTCHAR overscore
ENCODING 175
SWIDTH 381 0
DWIDTH 7 0
BBX 7 2 2 13
BITMAP
FFFC
5550
ENDCHAR
STARTCHAR degree
ENCODING 176
SWIDTH 428 0
DWIDTH 8 0
BBX 6 5 2 8
BITMAP
2F40
91C0
C090
D1C0
2E40
ENDCHAR
STARTCHAR plusminus
ENCODING 177
SWIDTH 550 0
DWIDTH 10 0
BBX 9 10 1 0
BITMAP
018000
018000
018000
FFFF40
56D500
018000
018000
018000
555500
FFFF40
ENDCHAR
STARTCHAR twosuperior
ENCODING 178
SWIDTH 350 0
DWIDTH 6 0
BBX 6 8 1 5
BITMAP
1B80
14A0
00A0
01C0
0740
1D00
7400
FFC0
ENDCHAR
STARTCHAR threesuperior
ENCODING 179
SWIDTH 350 0
DWIDTH 6 0
BBX 6 8 1 5
BITMAP
1F90
14A0
0090
1F40
01C0
00C0
4280
BE00
ENDCHAR
STARTCHAR acute
ENCODING 180
SWIDTH 554 0
DWIDTH 10 0
BBX 3 3 5 11
BITMAP
2C
74
D0
ENDCHAR
STARTCHAR mu
ENCODING 181
SWIDTH 583 0
DWIDTH 11 0
BBX 11 14 -1 -4
BITMAP
02C02C
028028
038034
034074
070070
0B00A0
0A01E0
0E02D0
1F5AD0
1EE5C0
280000
380000
340000
740000
ENDCHAR
STARTCHAR paragraph
ENCODING 182
SWIDTH 654 0
DWIDTH 12 0
BBX 10 16 1 -2
BITMAP
07FFE0
2FF9A0
3FF860
7FF860
7FF860
7FF860
3FF860
2FF860
0BF860
001860
001860
001860
001860
001860
001860
001860
ENDCHAR
STARTCHAR periodcentered
ENCODING 183
SWIDTH 252 0
DWIDTH 5 0
BBX 3 3 1 5
BITMAP
10
78
74
ENDCHAR
STARTCHAR cedilla
ENCODING 184
SWIDTH 205 0
DWIDTH 4 0
BBX 4 4 -2 -4
BITMAP
0C
19
0A
79
ENDCHAR
STARTCHAR onesuperior
ENCODING 185
SWIDTH 350 0
DWIDTH 6 0
BBX 4 8 2 5
BITMAP
1A
79
4D
0C
1C
28
24
34
ENDCHAR
STARTCHAR ordmasculine
ENCODING 186
SWIDTH 335 0
DWIDTH 6 0
BBX 6 6 1 7
BITMAP
1B80
3490
6060
6090
61C0
2F40
ENDCHAR
STARTCHAR guillemotright
ENCODING 187
SWIDTH 467 0
DWIDTH 8 0
BBX 8 7 0 1
BITMAP
1860
1C34
0A1C
0B0E
1D2D
34A0
5180
ENDCHAR
STARTCHAR onequarter
ENCODING 188
SWIDTH 741 0
DWIDTH 13 0
BBX 11 13 1 0
BITMAP
074028
2B0060
1601D0
0A0340
090A00
0C1C28
1C74B4
18D1B4
028630
070C70
0D2FF8
280090
A000D0
ENDCHAR
STARTCHAR onehalf
ENCODING 189
SWIDTH 741 0
DWIDTH 13 0
BBX 12 13 1 0
BITMAP
1A0070
7900D0
0D0280
0C0700
1C1D00
2835B8
24A14A
35C00A
03400D
090034
2801D0
700740
D00FFC
ENDCHAR
STARTCHAR threequarters
ENCODING 190
SWIDTH 764 0
DWIDTH 14 0
BBX 12 13 1 0
BITMAP
2F8007
10D01D
01C034
2F00A0
0281C0
018347
428A1E
BE283A
007099
00D24D
0287FF
060018
1C0028
ENDCHAR
STARTCHAR questiondown
ENCODING 191
SWIDTH 426 0
DWIDTH 8 0
BBX 7 13 0 -3
BITMAP
0074
0078
0010
0000
00A0
01D0
0740
2D00
7400
E000
E000
B5B0
2F90
ENDCHAR
STARTCHAR Agrave
ENCODING 192
SWIDTH 555 0
DWIDTH 10 0
BBX 10 17 -1 0
BITMAP
000D00
000B00
000240
000000
000780
000B80
001EC0
0035C0
0071C0
00D1D0
0280D0
03FFD0
0A55E0
0D00A0
2800A0
7400B0
B00070
ENDCHAR
STARTCHAR Aacute
ENCODING 193
SWIDTH 555 0
DWIDTH 10 0
BBX 11 17 -1 0
BITMAP
000074
0000E0
000240
000000
000780
000B80
001EC0
0035C0
0071C0
00D1D0
0280D0
03FFD0
0A55E0
0D00A0
2800A0
7400B0
B00070
ENDCHAR
STARTCHAR Acircumflex
ENCODING 194
SWIDTH 555 0
DWIDTH 10 0
BBX 11 17 -1 0
BITMAP
0002D0
000AA0
002824
000000
000780
000B80
001EC0
0035C0
0071C0
00D1D0
0280D0
03FFD0
0A55E0
0D00A0
2800A0
7400B0
B00070
ENDCHAR
STARTCHAR Atilde
ENCODING 195
SWIDTH 555 0
DWIDTH 10 0
BBX 11 16 -1 0
BITMAP
001F5C
0035F4
000000
000780
000B80
001EC0
0035C0
0071C0
00D1D0
0280D0
03FFD0
0A55E0
0D00A0
2800A0
7400B0
B00070
ENDCHAR
STARTCHAR Adieresis
ENCODING 196
SWIDTH 555 0
DWIDTH 10 0
BBX 11 16 -1 0
BITMAP
001C34
001C34
000000
000780
000B80
001EC0
0035C0
0071C0
00D1D0
0280D0
03FFD0
0A55E0
0D00A0
2800A0
7400B0
B00070
ENDCHAR
STARTCHAR Aring
ENCODING 197
SWIDTH 555 0
DWIDTH 10 0
BBX 10 16 -1 0
BITMAP
000780
000C60
000C60
000BC0
000B80
001EC0
0035C0
0071C0
00D1D0
0280D0
03FFD0
0A55E0
0D00A0
2800A0
7400B0
B00070
ENDCHAR
STARTCHAR AE
ENCODING 198
SWIDTH 816 0
DWIDTH 15 0
BBX 17 13 -1 0
BITMAP
0000FFFF40
0002AD5500
00076C0000
000D280000
0028380000
0070740000
00D07FFC00
02FFF55400
0755E00000
0A00E00000
1C01D00000
3801D55000
B002FFF000
ENDCHAR
STARTCHAR Ccedilla
ENCODING 199
SWIDTH 584 0
DWIDTH 11 0
BBX 10 17 1 -4
BITMAP
006FE0
02E5A0
0B4000
1D0000
380000
740000
B00000
B00000
B00000
B00000
780000
2E5600
06FE00
018000
01D000
00A000
0B8000
ENDCHAR
STARTCHAR Egrave
ENCODING 200
SWIDTH 511 0
DWIDTH 9 0
BBX 9 17 1 0
BITMAP
00A000
007400
001800
000000
0BFFC0
0E5540
0D0000
1D0000
1C0000
2C0000
3FFD00
395400
740000
B00000
A00000
E55000
FFF400
ENDCHAR
STARTCHAR Eacute
ENCODING 201
SWIDTH 511 0
DWIDTH 9 0
BBX 9 17 1 0
BITMAP
000B40
001D00
003400
000000
0BFFC0
0E5540
0D0000
1D0000
1C0000
2C0000
3FFD00
395400
740000
B00000
A00000
E55000
FFF400
ENDCHAR
STARTCHAR Ecircumflex
ENCODING 202
SWIDTH 511 0
DWIDTH 9 0
BBX 9 17 1 0
BITMAP
002D00
00AA00
028240
000000
0BFFC0
0E5540
0D0000
1D0000
1C0000
2C0000
3FFD00
395400
740000
B00000
A00000
E55000
FFF400
ENDCHAR
STARTCHAR Edieresis
ENCODING 203
SWIDTH 511 0
DWIDTH 9 0
BBX 9 16 1 0
BITMAP
01C340
01C340
000000
0BFFC0
0E5540
0D0000
1D0000
1C0000
2C0000
3FFD00
395400
740000
B00000
A00000
E55000
FFF400
ENDCHAR
STARTCHAR Igrave
ENCODING 204
SWIDTH 272 0
DWIDTH 5 0
BBX 4 17 1 0
BITMAP
1C
0E
07
00
0B
0E
0D
1D
1C
28
38
34
74
B0
A0
E0
D0
ENDCHAR
STARTCHAR Iacute
ENCODING 205
SWIDTH 272 0
DWIDTH 5 0
BBX 6 17 1 0
BITMAP
00B0
01D0
0740
0000
0B00
0E00
0D00
1D00
1C00
2800
3800
3400
7400
B000
A000
E000
D000
ENDCHAR
STARTCHAR Icircumflex
ENCODING 206
SWIDTH 272 0
DWIDTH 5 0
BBX 6 17 1 0
BITMAP
0780
0ED0
3470
0000
0B00
0E00
0D00
1D00
1C00
2800
3800
3400
7400
B000
A000
E000
D000
ENDCHAR
STARTCHAR Idieresis
ENCODING 207
SWIDTH 272 0
DWIDTH 5 0
BBX 6 16 1 0
BITMAP
1870
2870
0000
0B00
0E00
0D00
1D00
1C00
2800
3800
3400
7400
B000
A000
E000
D000
ENDCHAR
STARTCHAR Eth
ENCODING 208
SWIDTH 666 0
DWIDTH 12 0
BBX 12 13 0 0
BITMAP
02FF90
0396F4
03403C
07401D
07001D
0B001D
7FF81D
1E502C
1D0038
2C0074
2801E0
396F80
3FE900
ENDCHAR
STARTCHAR Ntilde
ENCODING 209
SWIDTH 702 0
DWIDTH 13 0
BBX 12 16 1 0
BITMAP
002E68
00A6E0
000000
0B400A
0F800D
0EC01D
1DD01C
1CA028
287038
383434
342870
701D70
B00EA0
A00BE0
D003D0
D002C0
ENDCHAR
STARTCHAR Ograve
ENCODING 210
SWIDTH 720 0
DWIDTH 13 0
BBX 12 17 1 0
BITMAP
003800
001D00
000600
000000
00BF90
03E5F4
0F003C
2C001D
38001D
74001D
B0001D
B0002C
B00038
B00074
7801E0
2E5BC0
06F900
ENDCHAR
STARTCHAR Oacute
ENCODING 211
SWIDTH 720 0
DWIDTH 13 0
BBX 12 17 1 0
BITMAP
0000E0
000280
000A00
000000
00BF90
03E5F4
0F003C
2C001D
38001D
74001D
B0001D
B0002C
B00038
B00074
7801E0
2E5BC0
06F900
ENDCHAR
STARTCHAR Ocircumflex
ENCODING 212
SWIDTH 720 0
DWIDTH 13 0
BBX 12 17 1 0
BITMAP
000780
001EC0
0060A0
000000
00BF90
03E5F4
0F003C
2C001D
38001D
74001D
B0001D
B0002C
B00038
B00074
7801E0
2E5BC0
06F900
ENDCHAR
STARTCHAR Otilde
ENCODING 213
SWIDTH 720 0
DWIDTH 13 0
BBX 12 16 1 0
BITMAP
007E64
0096E0
000000
00BF90
03E5F4
0F003C
2C001D
38001D
74001D
B0001D
B0002C
B00038
B00074
7801E0
2E5BC0
06F900
ENDCHAR
STARTCHAR Odieresis
ENCODING 214
SWIDTH 720 0
DWIDTH 13 0
BBX 12 16 1 0
BITMAP
003490
003490
000000
00BF90
03E5F4
0F003C
2C001D
38001D
74001D
B0001D
B0002C
B00038
B00074
7801E0
2E5BC0
06F900
ENDCHAR
STARTCHAR multiply
ENCODING 215
SWIDTH 550 0
DWIDTH 10 0
BBX 8 7 1 3
BITMAP
6009
282D
0BB4
03D0
0BB0
282D
6009
ENDCHAR
STARTCHAR Oslash
ENCODING 216
SWIDTH 720 0
DWIDTH 13 0
BBX 12 14 1 -1
BITMAP
00BF9E
03E5FC
0F00BC
2C01ED
38075D
740E1D
B0281D
B0B02C
B1D038
B74074
3D01E0
3E5BC0
B6F900
400000
ENDCHAR
STARTCHAR Ugrave
ENCODING 217
SWIDTH 675 0
DWIDTH 12 0
BBX 12 17 1 0
BITMAP
003800
001C00
000A00
000000
0A001D
0D001C
1D0028
1C0038
2C0034
380074
3400B0
7400A0
7000E0
B001D0
7402C0
3D5F40
1BF800
ENDCHAR
STARTCHAR Uacute
ENCODING 218
SWIDTH 675 0
DWIDTH 12 0
BBX 12 17 1 0
BITMAP
0000E0
000280
000A00
000000
0A001D
0D001C
1D0028
1C0038
2C0034
380074
3400B0
7400A0
7000E0
B001D0
7402C0
3D5F40
1BF800
ENDCHAR
STARTCHAR Ucircumflex
ENCODING 219
SWIDTH 675 0
DWIDTH 12 0
BBX 12 17 1 0
BITMAP
000B40
001EC0
0060A0
000000
0A001D
0D001C
1D0028
1C0038
2C0034
380074
3400B0
7400A0
7000E0
B001D0
7402C0
3D5F40
1BF800
ENDCHAR
STARTCHAR Udieresis
ENCODING 220
SWIDTH 675 0
DWIDTH 12 0
BBX 12 16 1 0
BITMAP
0030D0
0070D0
000000
0A001D
0D001C
1D0028
1C0038
2C0034
380074
3400B0
7400A0
7000E0
B001D0
7402C0
3D5F40
1BF800
ENDCHAR
STARTCHAR Yacute
ENCODING 221
SWIDTH 502 0
DWIDTH 9 0
BBX 10 17 1 0
BITMAP
000E00
002C00
006000
000000
7401D0
340380
280B00
1C1D00
1D3800
0DB000
0AD000
078000
070000
0B0000
0A0000
0E0000
1D0000
ENDCHAR
STARTCHAR Thorn
ENCODING 222
SWIDTH 565 0
DWIDTH 10 0
BBX 9 13 1 0
BITMAP
0B0000
0E0000
0FF900
1D5B40
1C0380
280380
380380
340740
742E00
BFF800
B54000
E00000
D00000
ENDCHAR
STARTCHAR germandbls
ENCODING 223
SWIDTH 577 0
DWIDTH 10 0
BBX 13 18 -3 -4
BITMAP
0001BE00
00079780
000E0280
001C0740
002C1E00
00287400
0038E000
0034B000
00703C00
00B00E00
00A00700
00D00B00
01D95E00
01C7F800
02800000
03800000
1B000000
7D000000
ENDCHAR
STARTCHAR agrave
ENCODING 224
SWIDTH 564 0
DWIDTH 10 0
BBX 9 14 1 0
BITMAP
01C000
00A000
003000
000000
06E580
1E5E80
380B40
B00700
E00B00
D00E00
D01E00
D03D00
B5EC00
2E5C00
ENDCHAR
STARTCHAR aacute
ENCODING 225
SWIDTH 564 0
DWIDTH 10 0
BBX 9 14 1 0
BITMAP
000E00
002800
006000
000000
06E580
1E5E80
380B40
B00700
E00B00
D00E00
D01E00
D03D00
B5EC00
2E5C00
ENDCHAR
STARTCHAR acircumflex
ENCODING 226
SWIDTH 564 0
DWIDTH 10 0
BBX 9 14 1 0
BITMAP
007800
01EC00
074A00
000000
06E580
1E5E80
380B40
B00700
E00B00
D00E00
D01E00
D03D00
B5EC00
2E5C00
ENDCHAR
STARTCHAR atilde
ENCODING 227
SWIDTH 564 0
DWIDTH 10 0
BBX 9 13 1 0
BITMAP
03E640
096E00
000000
06E580
1E5E80
380B40
B00700
E00B00
D00E00
D01E00
D03D00
B5EC00
2E5C00
ENDCHAR
STARTCHAR adieresis
ENCODING 228
SWIDTH 564 0
DWIDTH 10 0
BBX 9 13 1 0
BITMAP
024A00
034A00
000000
06E580
1E5E80
380B40
B00700
E00B00
D00E00
D01E00
D03D00
B5EC00
2E5C00
ENDCHAR
STARTCHAR aring
ENCODING 229
SWIDTH 564 0
DWIDTH 10 0
BBX 9 15 1 0
BITMAP
00B800
018900
018900
00B800
000000
06E580
1E5E80
380B40
B00700
E00B00
D00E00
D01E00
D03D00
B5EC00
2E5C00
ENDCHAR
STARTCHAR ae
ENCODING 230
SWIDTH 814 0
DWIDTH 15 0
BBX 14 10 1 0
BITMAP
06E36F40
1E6BE6C0
380F41D0
B00E0780
E00FFE00
D01D4000
D02D0000
D07E0000
B6AF9600
7E26FE00
ENDCHAR
STARTCHAR ccedilla
ENCODING 231
SWIDTH 450 0
DWIDTH 8 0
BBX 7 14 1 -4
BITMAP
06F8
1E58
3800
B000
E000
D000
D000
E000
B960
1FE0
0900
0A00
0700
3D00
ENDCHAR
STARTCHAR egrave
ENCODING 232
SWIDTH 493 0
DWIDTH 9 0
BBX 8 14 1 0
BITMAP
0380
01C0
00A0
0000
06F4
1E6D
341D
B078
FFE0
E400
D000
E000
B964
2FE0
ENDCHAR
STARTCHAR eacute
ENCODING 233
SWIDTH 493 0
DWIDTH 9 0
BBX 8 14 1 0
BITMAP
001E
0028
00A0
0000
06F4
1E6D
341D
B078
FFE0
E400
D000
E000
B964
2FE0
ENDCHAR
STARTCHAR ecircumflex
ENCODING 234
SWIDTH 493 0
DWIDTH 9 0
BBX 8 14 1 0
BITMAP
00B4
02A8
0A09
0000
06F4
1E6D
341D
B078
FFE0
E400
D000
E000
B964
2FE0
ENDCHAR
STARTCHAR edieresis
ENCODING 235
SWIDTH 493 0
DWIDTH 9 0
BBX 8 13 1 0
BITMAP
030D
070D
0000
06F4
1E6D
341D
B078
FFE0
E400
D000
E000
B964
2FE0
ENDCHAR
STARTCHAR igrave
ENCODING 236
SWIDTH 253 0
DWIDTH 5 0
BBX 5 14 0 0
BITMAP
1D00
0A00
0340
0000
0B00
0A00
0E00
0D00
1C00
2C00
2800
3800
7400
7000
ENDCHAR
STARTCHAR iacute
ENCODING 237
SWIDTH 253 0
DWIDTH 5 0
BBX 7 14 0 0
BITMAP
0074
01D0
0340
0000
0B00
0A00
0E00
0D00
1C00
2C00
2800
3800
7400
7000
ENDCHAR
STARTCHAR icircumflex
ENCODING 238
SWIDTH 253 0
DWIDTH 5 0
BBX 6 14 0 0
BITMAP
03C0
0ED0
2470
0000
0B00
0A00
0E00
0D00
1C00
2C00
2800
3800
7400
7000
ENDCHAR
STARTCHAR idieresis
ENCODING 239
SWIDTH 253 0
DWIDTH 5 0
BBX 6 13 0 0
BITMAP
1870
1870
0000
0B00
0A00
0E00
0D00
1C00
2C00
2800
3800
7400
7000
ENDCHAR
STARTCHAR eth
ENCODING 240
SWIDTH 568 0
DWIDTH 10 0
BBX 10 14 0 0
BITMAP
002460
002F90
006F40
009280
0001C0
02F9D0
0B5BD0
1C02D0
3801D0
3402C0
740280
340740
2D6E00
0BE400
ENDCHAR
STARTCHAR ntilde
ENCODING 241
SWIDTH 577 0
DWIDTH 10 0
BBX 10 13 0 0
BITMAP
00B9A0
029B80
000000
0A2F40
0AA6D0
0F40D0
0E01D0
1D01C0
2C02C0
280380
380340
740740
700700
ENDCHAR
STARTCHAR ograve
ENCODING 242
SWIDTH 561 0
DWIDTH 10 0
BBX 9 14 1 0
BITMAP
02C000
00D000
007000
000000
06F800
1E5E00
740B00
B00740
E00740
D00B00
D00A00
E01D00
757800
1F9000
ENDCHAR
STARTCHAR oacute
ENCODING 243
SWIDTH 561 0
DWIDTH 10 0
BBX 9 14 1 0
BITMAP
000E00
002800
00A000
000000
06F800
1E5E00
740B00
B00740
E00740
D00B00
D00A00
E01D00
757800
1F9000
ENDCHAR
STARTCHAR ocircumflex
ENCODING 244
SWIDTH 561 0
DWIDTH 10 0
BBX 9 14 1 0
BITMAP
007400
01EC00
060A00
000000
06F800
1E5E00
740B00
B00740
E00740
D00B00
D00A00
E01D00
757800
1F9000
ENDCHAR
STARTCHAR otilde
ENCODING 245
SWIDTH 561 0
DWIDTH 10 0
BBX 9 13 1 0
BITMAP
07E640
096E00
000000
06F800
1E5E00
740B00
B00740
E00740
D00B00
D00A00
E01D00
757800
1F9000
ENDCHAR
STARTCHAR odieresis
ENCODING 246
SWIDTH 561 0
DWIDTH 10 0
BBX 9 13 1 0
BITMAP
034900
034900
000000
06F800
1E5E00
740B00
B00740
E00740
D00B00
D00A00
E01D00
757800
1F9000
ENDCHAR
STARTCHAR divide
ENCODING 247
SWIDTH 550 0
DWIDTH 10 0
BBX 9 8 1 2
BITMAP
02C000
02C000
000000
FFFF40
555500
000000
02C000
02C000
ENDCHAR
STARTCHAR oslash
ENCODING 248
SWIDTH 561 0
DWIDTH 10 0
BBX 9 12 1 -1
BITMAP
000140
06FB40
1E5E00
742F00
B07740
E1D700
D34700
DA0A00
F81D00
B97800
EF9000
800000
ENDCHAR
STARTCHAR ugrave
ENCODING 249
SWIDTH 577 0
DWIDTH 10 0
BBX 9 14 1 0
BITMAP
02C000
00D000
007000
000000
2C0280
380380
340340
740700
700B00
A00E00
E01E00
E03D00
B5EC00
6E5C00
ENDCHAR
STARTCHAR uacute
ENCODING 250
SWIDTH 577 0
DWIDTH 10 0
BBX 9 14 1 0
BITMAP
000B00
001D00
007400
000000
2C0280
380380
340340
740700
700B00
A00E00
E01E00
E03D00
B5EC00
6E5C00
ENDCHAR
STARTCHAR ucircumflex
ENCODING 251
SWIDTH 577 0
DWIDTH 10 0
BBX 9 14 1 0
BITMAP
007800
01ED00
074600
000000
2C0280
380380
340340
740700
700B00
A00E00
E01E00
E03D00
B5EC00
6E5C00
ENDCHAR
STARTCHAR udieresis
ENCODING 252
SWIDTH 577 0
DWIDTH 10 0
BBX 9 13 1 0
BITMAP
024A00
024A00
000000
2C0280
380380
340340
740700
700B00
A00E00
E01E00
E03D00
B5EC00
6E5C00
ENDCHAR
STARTCHAR yacute
ENCODING 253
SWIDTH 461 0
DWIDTH 8 0
BBX 11 18 -2 -4
BITMAP
0000E0
0002C0
000600
000000
03402C
038074
0280A0
0281D0
01C280
01C740
01CA00
00DC00
00F800
00B000
00D000
02C000
5B4000
B90000
ENDCHAR
STARTCHAR thorn
ENCODING 254
SWIDTH 577 0
DWIDTH 10 0
BBX 11 18 -1 -4
BITMAP
00A000
00E000
00D000
01C000
02CBD0
02A9B0
03D034
038034
074034
0B0074
0A00B0
0F01D0
1E9780
1CBE00
2C0000
380000
340000
740000
ENDCHAR
STARTCHAR ydieresis
ENCODING 255
SWIDTH 461 0
DWIDTH 8 0
BBX 11 17 -2 -4
BITMAP
0024A0
003490
000000
03402C
038074
0280A0
0281D0
01C280
01C740
01CA00
00DC00
00F800
00B000
00D000
02C000
5B4000
B90000
ENDCHAR
STARTCHAR Amacron
ENCODING 256
SWIDTH 555 0
DWIDTH 10 0
BBX 11 16 -1 0
BITMAP
000550
001FF4
000000
000780
000B80
001EC0
0035C0
0071C0
00D1D0
0280D0
03FFD0
0A55E0
0D00A0
2800A0
7400B0
B00070
ENDCHAR
STARTCHAR amacron
ENCODING 257
SWIDTH 564 0
DWIDTH 10 0
BBX 9 13 1 0
BITMAP
015500
03FE00
000000
06E580
1E5E80
380B40
B00700
E00B00
D00E00
D01E00
D03D00
B5EC00
2E5C00
ENDCHAR
STARTCHAR Abreve
ENCODING 258
SWIDTH 555 0
DWIDTH 10 0
BBX 11 16 -1 0
BITMAP
001964
000BE0
000000
000780
000B80
001EC0
0035C0
0071C0
00D1D0
0280D0
03FFD0
0A55E0
0D00A0
2800A0
7400B0
B00070
ENDCHAR
STARTCHAR abreve
ENCODING 259
SWIDTH 564 0
DWIDTH 10 0
BBX 9 13 1 0
BITMAP
025700
01F900
000000
06E580
1E5E80
380B40
B00700
E00B00
D00E00
D01E00
D03D00
B5EC00
2E5C00
ENDCHAR
STARTCHAR Aogonek
ENCODING 260
SWIDTH 555 0
DWIDTH 10 0
BBX 10 17 -1 -4
BITMAP
000780
000B80
001EC0
0035C0
0071C0
00D1D0
0280D0
03FFD0
0A55E0
0D00A0
2800A0
7400B0
B00070
000090
000240
000340
0002D0
ENDCHAR
STARTCHAR aogonek
ENCODING 261
SWIDTH 564 0
DWIDTH 10 0
BBX 9 14 1 -4
BITMAP
06E580
1E5E80
380B40
B00700
E00B00
D00E00
D01E00
D03D00
B5EC00
2E5C00
006000
00D000
01C000
00B400
ENDCHAR
STARTCHAR Cacute
ENCODING 262
SWIDTH 584 0
DWIDTH 11 0
BBX 10 17 1 0
BITMAP
0000E0
0002C0
000600
000000
006FE0
02E5A0
0B4000
1D0000
380000
740000
B00000
B00000
B00000
B00000
780000
2E5600
06FE00
ENDCHAR
STARTCHAR cacute
ENCODING 263
SWIDTH 450 0
DWIDTH 8 0
BBX 8 14 1 0
BITMAP
000E
0028
0060
0000
06F8
1E58
3800
B000
E000
D000
D000
E000
B960
1FE0
ENDCHAR
STARTCHAR Ccircumflex
ENCODING 264
SWIDTH 584 0
DWIDTH 11 0
BBX 10 17 1 0
BITMAP
000780
001EC0
0060A0
000000
006FE0
02E5A0
0B4000
1D0000
380000
740000
B00000
B00000
B00000
B00000
780000
2E5600
06FE00
ENDCHAR
STARTCHAR ccircumflex
ENCODING 265
SWIDTH 450 0
DWIDTH 8 0
BBX 8 14 1 0
BITMAP
00B4
02A8
0A09
0000
06F8
1E58
3800
B000
E000
D000
D000
E000
B960
1FE0
ENDCHAR
STARTCHAR Cdot
ENCODING 266
SWIDTH 584 0
DWIDTH 11 0
BBX 10 16 1 0
BITMAP
000B00
000A00
000000
006FE0
02E5A0
0B4000
1D0000
380000
740000
B00000
B00000
B00000
B00000
780000
2E5600
06FE00
ENDCHAR
STARTCHAR cdot
ENCODING 267
SWIDTH 450 0
DWIDTH 8 0
BBX 7 13 1 0
BITMAP
0070
00A0
0000
06F8
1E58
3800
B000
E000
D000
D000
E000
B960
1FE0
ENDCHAR
STARTCHAR Ccaron
ENCODING 268
SWIDTH 584 0
DWIDTH 11 0
BBX 10 17 1 0
BITMAP
0060A0
002A80
001E00
000000
006FE0
02E5A0
0B4000
1D0000
380000
740000
B00000
B00000
B00000
B00000
780000
2E5600
06FE00
ENDCHAR
STARTCHAR ccaron
ENCODING 269
SWIDTH 450 0
DWIDTH 8 0
BBX 8 14 1 0
BITMAP
060A
02A8
01E0
0000
06F8
1E58
3800
B000
E000
D000
D000
E000
B960
1FE0
ENDCHAR
STARTCHAR Dcaron
ENCODING 270
SWIDTH 666 0
DWIDTH 12 0
BBX 11 17 1 0
BITMAP
00D1C0
007B00
002D00
000000
0BFE40
0E5BD0
0D00F0
1D0074
1C0074
280074
380074
3400B0
7400E0
B001D0
A00780
E5BE00
FFA400
ENDCHAR
STARTCHAR dcaron
ENCODING 271
SWIDTH 577 0
DWIDTH 10 0
BBX 13 14 1 0
BITMAP
0000E340
0000D700
0001DD00
0001C000
06E68000
1E5F8000
380B4000
B0070000
E00B0000
D00E0000
D01E0000
D03D0000
B5EC0000
2E5C0000
ENDCHAR
STARTCHAR Dcroat
ENCODING 272
SWIDTH 666 0
DWIDTH 12 0
BBX 12 13 0 0
BITMAP
02FF90
0396F4
03403C
07401D
07001D
0B001D
7FF81D
1E502C
1D0038
2C0074
2801E0
396F80
3FE900
ENDCHAR
STARTCHAR dcroat
ENCODING 273
SWIDTH 577 0
DWIDTH 10 0
BBX 11 14 1 0
BITMAP
0000E0
0000D0
00BFF8
0002D0
06E680
1E5F80
380B40
B00740
E00B00
D00E00
D01E00
D03D00
B5EC00
2E5C00
ENDCHAR
STARTCHAR Emacron
ENCODING 274
SWIDTH 511 0
DWIDTH 9 0
BBX 9 16 1 0
BITMAP
005500
02FF40
000000
0BFFC0
0E5540
0D0000
1D0000
1C0000
2C0000
3FFD00
395400
740000
B00000
A00000
E55000
FFF400
ENDCHAR
STARTCHAR emacron
ENCODING 275
SWIDTH 493 0
DWIDTH 9 0
BBX 8 13 1 0
BITMAP
0154
07FD
0000
06F4
1E6D
341D
B078
FFE0
E400
D000
E000
B964
2FE0
ENDCHAR
STARTCHAR Ebreve
ENCODING 276
SWIDTH 511 0
DWIDTH 9 0
BBX 9 16 1 0
BITMAP
019680
00BE00
000000
0BFFC0
0E5540
0D0000
1D0000
1C0000
2C0000
3FFD00
395400
740000
B00000
A00000
E55000
FFF400
ENDCHAR
STARTCHAR ebreve
ENCODING 277
SWIDTH 493 0
DWIDTH 9 0
BBX 8 13 1 0
BITMAP
075A
02F8
0000
06F4
1E6D
341D
B078
FFE0
E400
D000
E000
B964
2FE0
ENDCHAR
STARTCHAR Edotaccent
ENCODING 278
SWIDTH 511 0
DWIDTH 9 0
BBX 9 16 1 0
BITMAP
002800
003400
000000
0BFFC0
0E5540
0D0000
1D0000
1C0000
2C0000
3FFD00
395400
740000
B00000
A00000
E55000
FFF400
ENDCHAR
STARTCHAR edotaccent
ENCODING 279
SWIDTH 493 0
DWIDTH 9 0
BBX 8 13 1 0
BITMAP
00A0
00A0
0000
06F4
1E6D
341D
B078
FFE0
E400
D000
E000
B964
2FE0
ENDCHAR
STARTCHAR Eogonek
ENCODING 280
SWIDTH 511 0
DWIDTH 9 0
BBX 9 17 1 -4
BITMAP
0BFFC0
0E5540
0D0000
1D0000
1C0000
2C0000
3FFD00
395400
740000
B00000
A00000
E55000
FFF400
009000
024000
034000
02D000
ENDCHAR
STARTCHAR eogonek
ENCODING 281
SWIDTH 493 0
DWIDTH 9 0
BBX 8 14 1 -4
BITMAP
06F4
1E6D
341D
B078
FFE0
E400
D000
E000
B964
2FE0
0180
0700
0700
03C0
ENDCHAR
STARTCHAR Ecaron
ENCODING 282
SWIDTH 511 0
DWIDTH 9 0
BBX 9 17 1 0
BITMAP
018280
00AA00
007800
000000
0BFFC0
0E5540
0D0000
1D0000
1C0000
2C0000
3FFD00
395400
740000
B00000
A00000
E55000
FFF400
ENDCHAR
STARTCHAR ecaron
ENCODING 283
SWIDTH 493 0
DWIDTH 9 0
BBX 8 14 1 0
BITMAP
060A
02A8
01E0
0000
06F4
1E6D
341D
B078
FFE0
E400
D000
E000
B964
2FE0
ENDCHAR
STARTCHAR Gcircumflex
ENCODING 284
SWIDTH 676 0
DWIDTH 12 0
BBX 11 17 1 0
BITMAP
000B40
001EC0
0060A0
000000
006FE4
02E5A8
0B4000
1D0000
380000
740000
B00FF0
B005B0
B000A0
B000D0
7801D0
2E56C0
06FE40
ENDCHAR
STARTCHAR gcircumflex
ENCODING 285
SWIDTH 500 0
DWIDTH 9 0
BBX 11 18 -1 -4
BITMAP
000F00
002A80
00A0D0
000000
00BFF8
039680
0B02C0
0A0280
074740
02F900
0A0000
0E4000
0BFD00
741B40
E00340
D00740
B45E00
2FE400
ENDCHAR
STARTCHAR Gbreve
ENCODING 286
SWIDTH 676 0
DWIDTH 12 0
BBX 11 16 1 0
BITMAP
0035A0
002F80
000000
006FE4
02E5A8
0B4000
1D0000
380000
740000
B00FF0
B005B0
B000A0
B000D0
7801D0
2E56C0
06FE40
ENDCHAR
STARTCHAR gbreve
ENCODING 287
SWIDTH 500 0
DWIDTH 9 0
BBX 11 17 -1 -4
BITMAP
006590
002F80
000000
00BFF8
039680
0B02C0
0A0280
074740
02F900
0A0000
0E4000
0BFD00
741B40
E00340
D00740
B45E00
2FE400
ENDCHAR
STARTCHAR Gdot
ENCODING 288
SWIDTH 676 0
DWIDTH 12 0
BBX 11 16 1 0
BITMAP
000700
000600
000000
006FE4
02E5A8
0B4000
1D0000
380000
740000
B00FF0
B005B0
B000A0
B000D0
7801D0
2E56C0
06FE40
ENDCHAR
STARTCHAR gdot
ENCODING 289
SWIDTH 500 0
DWIDTH 9 0
BBX 11 17 -1 -4
BITMAP
000700
000700
000000
00BFF8
039680
0B02C0
0A0280
074740
02F900
0A0000
0E4000
0BFD00
741B40
E00340
D00740
B45E00
2FE400
ENDCHAR
STARTCHAR Gcommaaccent
ENCODING 290
SWIDTH 676 0
DWIDTH 12 0
BBX 11 17 1 -4
BITMAP
006FE4
02E5A8
0B4000
1D0000
380000
740000
B00FF0
B005B0
B000A0
B000D0
7801D0
2E56C0
06FE40
000000
00E000
01C000
024000
ENDCHAR
STARTCHAR gcommaaccent
ENCODING 291
SWIDTH 500 0
DWIDTH 9 0
BBX 11 18 -1 -4
BITMAP
0000C0
000240
000700
000000
00BFF8
039680
0B02C0
0A0280
074740
02F900
0A0000
0E4000
0BFD00
741B40
E00340
D00740
B45E00
2FE400
ENDCHAR
STARTCHAR Hcircumflex
ENCODING 292
SWIDTH 678 0
DWIDTH 12 0
BBX 11 17 1 0
BITMAP
000B40
002A80
00A090
000000
0B001C
0E002C
0D0028
1D0038
1C0034
2C0070
3FFFF0
3955E0
7400D0
B000D0
A001C0
E002C0
D00280
ENDCHAR
STARTCHAR hcircumflex
ENCODING 293
SWIDTH 577 0
DWIDTH 10 0
BBX 10 17 0 0
BITMAP
000B40
002A80
00A0D0
028000
038000
034000
070000
0B2F40
0AA6D0
0F41D0
0E01D0
1D01C0
2C02C0
280380
380340
740740
700700
ENDCHAR
STARTCHAR Hbar
ENCODING 294
SWIDTH 678 0
DWIDTH 12 0
BBX 13 13 1 0
BITMAP
0B001D00
0E002C00
BFFFFF40
6D557900
2C003400
2C007000
3FFFF000
3955E000
7400D000
B000D000
A001C000
E002C000
D0028000
ENDCHAR
STARTCHAR hbar
ENCODING 295
SWIDTH 577 0
DWIDTH 10 0
BBX 10 14 0 0
BITMAP
028000
038000
1FFD00
074000
072F40
0AA6C0
0F41D0
0E01D0
1D01C0
2C0280
280380
340340
340740
700700
ENDCHAR
STARTCHAR Itilde
ENCODING 296
SWIDTH 272 0
DWIDTH 5 0
BBX 7 16 1 0
BITMAP
2E68
66E0
0000
0B00
0E00
0D00
1D00
1C00
2800
3800
3400
7400
B000
A000
E000
D000
ENDCHAR
STARTCHAR itilde
ENCODING 297
SWIDTH 253 0
DWIDTH 5 0
BBX 7 13 0 0
BITMAP
2E58
66F4
0000
0B00
0A00
0E00
0D00
1C00
2C00
2800
3800
7400
7000
ENDCHAR
STARTCHAR Imacron
ENCODING 298
SWIDTH 272 0
DWIDTH 5 0
BBX 6 16 1 0
BITMAP
1550
3FF0
0000
0B00
0E00
0D00
1D00
1C00
2800
3800
3400
7400
B000
A000
E000
D000
ENDCHAR
STARTCHAR imacron
ENCODING 299
SWIDTH 253 0
DWIDTH 5 0
BBX 6 13 0 0
BITMAP
0550
2FF0
0000
0B00
0A00
0E00
0D00
1C00
2C00
2800
3800
7400
7000
ENDCHAR
STARTCHAR Ibreve
ENCODING 300
SWIDTH 272 0
DWIDTH 5 0
BBX 6 16 1 0
BITMAP
2970
1FD0
0000
0B00
0E00
0D00
1D00
1C00
2800
3800
3400
7400
B000
A000
E000
D000
ENDCHAR
STARTCHAR ibreve
ENCODING 301
SWIDTH 253 0
DWIDTH 5 0
BBX 7 13 0 0
BITMAP
2974
1BD0
0000
0B00
0A00
0E00
0D00
1C00
2C00
2800
3800
7400
7000
ENDCHAR
STARTCHAR Iogonek
ENCODING 302
SWIDTH 272 0
DWIDTH 5 0
BBX 6 17 -1 -4
BITMAP
00B0
00E0
00D0
01D0
01C0
0280
0380
0340
0740
0B00
0A00
0E00
0D00
1800
7000
A000
7800
ENDCHAR
STARTCHAR iogonek
ENCODING 303
SWIDTH 253 0
DWIDTH 5 0
BBX 6 18 -1 -4
BITMAP
00A0
0090
0000
0000
02C0
0280
0380
0340
0700
0B00
0A00
0E00
1D00
1C00
2400
A000
D000
7800
ENDCHAR
STARTCHAR Idotaccent
ENCODING 304
SWIDTH 272 0
DWIDTH 5 0
BBX 5 16 1 0
BITMAP
0340
0340
0000
0B00
0E00
0D00
1D00
1C00
2800
3800
3400
7400
B000
A000
E000
D000
ENDCHAR
STARTCHAR dotlessi
ENCODING 305
SWIDTH 253 0
DWIDTH 5 0
BBX 4 10 0 0
BITMAP
0B
0A
0E
0D
1C
2C
28
38
74
70
ENDCHAR
STARTCHAR IJ
ENCODING 306
SWIDTH 540 0
DWIDTH 10 0
BBX 9 16 1 -3
BITMAP
0B0280
0E0380
0D0340
1D0700
1C0B00
280A00
380D00
341D00
741C00
B02C00
A03800
E03400
D07400
00B000
16D000
2F4000
ENDCHAR
STARTCHAR ij
ENCODING 307
SWIDTH 507 0
DWIDTH 9 0
BBX 10 18 0 -4
BITMAP
0281D0
0241C0
000000
000000
0B0380
0A0340
0E0700
0D0B00
1C0A00
2C0D00
281D00
381C00
742800
703800
003400
007000
05E000
0B8000
ENDCHAR
STARTCHAR Jcircumflex
ENCODING 308
SWIDTH 267 0
DWIDTH 5 0
BBX 10 20 -3 -3
BITMAP
000780
001ED0
007460
000000
000B00
000E00
000D00
001D00
001C00
002800
003800
003400
007000
00B000
00A000
00E000
01D000
02C000
5B4000
BD0000
ENDCHAR
STARTCHAR jcircumflex
ENCODING 309
SWIDTH 253 0
DWIDTH 5 0
BBX 9 18 -3 -4
BITMAP
000F00
003B40
00D1C0
000000
002C00
002800
003800
007400
007000
00B000
00A000
00D000
01D000
01C000
028000
038000
1B4000
7D0000
ENDCHAR
STARTCHAR Kcommaaccent
ENCODING 310
SWIDTH 557 0
DWIDTH 10 0
BBX 11 17 1 -4
BITMAP
0B00B4
0E02D0
0D0B40
1D2D00
1CB400
2AD000
3FD000
38A000
747400
B03800
A02C00
E00D00
D00B00
000000
070000
0A0000
180000
ENDCHAR
STARTCHAR kcommaaccent
ENCODING 311
SWIDTH 487 0
DWIDTH 9 0
BBX 9 18 0 -4
BITMAP
028000
038000
034000
070000
0B0380
0A0A00
0E2800
0DA000
1ED000
2EE000
287400
343800
742C00
700E00
000000
038000
070000
090000
ENDCHAR
STARTCHAR kgreenlandic
ENCODING 312
SWIDTH 487 0
DWIDTH 9 0
BBX 9 10 0 0
BITMAP
0B0380
0A0A00
0D2800
1DA000
1ED000
2EE000
287400
343800
742C00
700E00
ENDCHAR
STARTCHAR Lacute
ENCODING 313
SWIDTH 474 0
DWIDTH 9 0
BBX 7 17 1 0
BITMAP
0074
01D0
0340
0000
0B00
0E00
0D00
1D00
1C00
2800
3800
3400
7400
B000
A000
E550
FFF4
ENDCHAR
STARTCHAR lacute
ENCODING 314
SWIDTH 253 0
DWIDTH 5 0
BBX 7 17 0 0
BITMAP
002C
0074
01D0
0280
0380
0340
0700
0B00
0A00
0E00
0D00
1C00
2C00
2800
3800
7400
7000
ENDCHAR
STARTCHAR Lcommaaccent
ENCODING 315
SWIDTH 474 0
DWIDTH 9 0
BBX 7 17 1 -4
BITMAP
0B00
0E00
0D00
1D00
1C00
2800
3800
3400
7400
B000
A000
E550
FFF4
0000
0740
0A00
0C00
ENDCHAR
STARTCHAR lcommaaccent
ENCODING 316
SWIDTH 253 0
DWIDTH 5 0
BBX 6 18 -1 -4
BITMAP
00A0
00E0
00D0
01C0
02C0
0280
0380
0340
0700
0B00
0A00
0E00
1D00
1C00
0000
2800
7000
9000
ENDCHAR
STARTCHAR Lcaron
ENCODING 317
SWIDTH 474 0
DWIDTH 9 0
BBX 8 13 1 0
BITMAP
0B07
0E0A
0D18
1D00
1C00
2800
3800
3400
7400
B000
A000
E550
FFF4
ENDCHAR
STARTCHAR lcaron
ENCODING 318
SWIDTH 253 0
DWIDTH 5 0
BBX 8 14 0 0
BITMAP
028A
039C
0364
0700
0B00
0A00
0E00
0D00
1C00
2C00
2800
3800
7400
7000
ENDCHAR
STARTCHAR Ldot
ENCODING 319
SWIDTH 474 0
DWIDTH 9 0
BBX 7 13 1 0
BITMAP
0B00
0E00
0D00
1D00
1C00
2800
3828
3428
7400
B000
A000
E550
FFF4
ENDCHAR
STARTCHAR ldot
ENCODING 320
SWIDTH 283 0
DWIDTH 5 0
BBX 6 14 0 0
BITMAP
0280
0380
0340
0700
0B00
0A00
0E00
0D70
1C60
2C00
2800
3800
7400
7000
ENDCHAR
STARTCHAR Lslash
ENCODING 321
SWIDTH 474 0
DWIDTH 9 0
BBX 8 13 0 0
BITMAP
02C0
0380
0340
0740
0700
0A60
0FD0
2E00
AD00
2C00
2800
3954
3FFD
ENDCHAR
STARTCHAR lslash
ENCODING 322
SWIDTH 250 0
DWIDTH 5 0
BBX 5 14 0 0
BITMAP
0280
0380
0740
0700
0B00
0E80
0F40
7D00
AC00
2800
3800
3400
7400
7000
ENDCHAR
STARTCHAR Nacute
ENCODING 323
SWIDTH 702 0
DWIDTH 13 0
BBX 12 17 1 0
BITMAP
0000E0
000280
000600
000000
0B400A
0F800D
0EC01D
1DD01C
1CA028
287038
383434
342870
701D70
B00EA0
A00BE0
D003D0
D002C0
ENDCHAR
STARTCHAR nacute
ENCODING 324
SWIDTH 577 0
DWIDTH 10 0
BBX 10 14 0 0
BITMAP
0002C0
000740
000D00
000000
0A2F40
0AA6D0
0F40D0
0E01D0
1D01C0
2C02C0
280380
380340
740740
700700
ENDCHAR
STARTCHAR Ncommaaccent
ENCODING 325
SWIDTH 702 0
DWIDTH 13 0
BBX 12 17 1 -4
BITMAP
0B400A
0F800D
0EC01D
1DD01C
1CA028
287038
383434
342870
701D70
B00EA0
A00BE0
D003D0
D002C0
000000
02C000
034000
060000
ENDCHAR
STARTCHAR ncommaaccent
ENCODING 326
SWIDTH 577 0
DWIDTH 10 0
BBX 10 14 0 -4
BITMAP
0A2F40
0AA6D0
0F40D0
0E01D0
1D01C0
2C02C0
280380
380340
740740
700700
000000
028000
070000
090000
ENDCHAR
STARTCHAR Ncaron
ENCODING 327
SWIDTH 702 0
DWIDTH 13 0
BBX 12 17 1 0
BITMAP
003060
002A80
000F00
000000
0B400A
0F800D
0EC01D
1DD01C
1CA028
287038
383434
342870
701D70
B00EA0
A00BE0
D003D0
D002C0
ENDCHAR
STARTCHAR ncaron
ENCODING 328
SWIDTH 577 0
DWIDTH 10 0
BBX 10 14 0 0
BITMAP
0091D0
007740
002D00
000000
0A2F40
0AA6D0
0F40D0
0E01D0
1D01C0
2C02C0
280380
380340
740740
700700
ENDCHAR
STARTCHAR napostrophe
ENCODING 329
SWIDTH 645 0
DWIDTH 12 0
BBX 10 13 1 0
BITMAP
2C0000
380000
700000
D71F80
0BA5D0
0B80E0
0F00D0
0D01D0
1D01C0
2C02C0
280380
380340
340740
ENDCHAR
STARTCHAR Eng
ENCODING 330
SWIDTH 702 0
DWIDTH 13 0
BBX 12 16 1 -3
BITMAP
0B400E
0F800D
0EC01D
1DD01C
1CA028
287038
383434
342870
700D70
B00AA0
A007D0
D003D0
D002C0
000280
005B40
00F900
ENDCHAR
STARTCHAR eng
ENCODING 331
SWIDTH 577 0
DWIDTH 10 0
BBX 10 14 0 -4
BITMAP
0A2F40
0AA6D0
0F40D0
0E01D0
1D01C0
2C0280
280380
380340
740700
700B00
000A00
000D00
006C00
01F400
ENDCHAR
STARTCHAR Omacron
ENCODING 332
SWIDTH 720 0
DWIDTH 13 0
BBX 12 16 1 0
BITMAP
001540
007FD0
000000
00BF90
03E5F4
0F003C
2C001D
38001D
74001D
B0001D
B0002C
B00038
B00074
7801E0
2E5BC0
06F900
ENDCHAR
STARTCHAR omacron
ENCODING 333
SWIDTH 561 0
DWIDTH 10 0
BBX 9 13 1 0
BITMAP
015400
07FD00
000000
06F800
1E5E00
740B00
B00740
E00740
D00B00
D00A00
E01D00
757800
1F9000
ENDCHAR
STARTCHAR Obreve
ENCODING 334
SWIDTH 720 0
DWIDTH 13 0
BBX 12 16 1 0
BITMAP
006590
002F80
000000
00BF90
03E5F4
0F003C
2C001D
38001D
74001D
B0001D
B0002C
B00038
B00074
7801E0
2E5BC0
06F900
ENDCHAR
STARTCHAR obreve
ENCODING 335
SWIDTH 561 0
DWIDTH 10 0
BBX 9 13 1 0
BITMAP
075A00
02F800
000000
06F800
1E5E00
740B00
B00740
E00740
D00B00
D00A00
E01D00
757800
1F9000
ENDCHAR
STARTCHAR Ohungarumlaut
ENCODING 336
SWIDTH 720 0
DWIDTH 13 0
BBX 12 17 1 0
BITMAP
00075D
000D34
002490
000000
00BF90
03E5F4
0F003C
2C001D
38001D
74001D
B0001D
B0002C
B00038
B00074
7801E0
2E5BC0
06F900
ENDCHAR
STARTCHAR ohungarumlaut
ENCODING 337
SWIDTH 561 0
DWIDTH 10 0
BBX 9 14 1 0
BITMAP
00B2C0
01C700
020800
000000
06F800
1E5E00
740B00
B00740
E00740
D00B00
D00A00
E01D00
757800
1F9000
ENDCHAR
STARTCHAR OE
ENCODING 338
SWIDTH 854 0
DWIDTH 15 0
BBX 15 13 1 0
BITMAP
00BFFFFC
03E5F554
0F00E000
2C00D000
3801D000
7402C000
B002FFE0
B0039540
B0034000
B0074000
780B0000
2E5F5500
06FFFF80
ENDCHAR
STARTCHAR oe
ENCODING 339
SWIDTH 863 0
DWIDTH 16 0
BBX 14 10 1 0
BITMAP
06F81FD0
1E5EB5B0
7407C0B0
B00746E0
E007FE40
D0075000
D00B0000
E01F4000
757BD580
2F90BE40
ENDCHAR
STARTCHAR Racute
ENCODING 340
SWIDTH 568 0
DWIDTH 10 0
BBX 9 17 1 0
BITMAP
000740
000D00
002400
000000
0BFE00
0E5B80
0D02C0
1D01C0
1C02C0
281B40
3FF900
397000
703800
B02C00
A01D00
E00E00
D00B00
ENDCHAR
STARTCHAR racute
ENCODING 341
SWIDTH 395 0
DWIDTH 7 0
BBX 8 14 0 0
BITMAP
000E
002C
0060
0000
0A2E
0AA4
0F40
0E00
1D00
2C00
2800
3800
7400
7000
ENDCHAR
STARTCHAR Rcommaaccent
ENCODING 342
SWIDTH 568 0
DWIDTH 10 0
BBX 9 17 1 -4
BITMAP
0BFE00
0E5B80
0D02C0
1D01C0
1C02C0
281B40
3FF900
397000
703800
B02C00
A01D00
E00E00
D00B00
000000
034000
0A0000
0C0000
ENDCHAR
STARTCHAR rcommaaccent
ENCODING 343
SWIDTH 395 0
DWIDTH 7 0
BBX 9 14 -1 -4
BITMAP
028B80
02A900
03D000
038000
074000
0B0000
0A0000
0E0000
1D0000
1C0000
000000
280000
700000
900000
ENDCHAR
STARTCHAR Rcaron
ENCODING 344
SWIDTH 568 0
DWIDTH 10 0
BBX 9 17 1 0
BITMAP
018280
00AA00
007800
000000
0BFE00
0E5B80
0D02C0
1D01C0
1C02C0
281B40
3FF900
397000
703800
B02C00
A01D00
E00E00
D00B00
ENDCHAR
STARTCHAR rcaron
ENCODING 345
SWIDTH 395 0
DWIDTH 7 0
BBX 8 14 0 0
BITMAP
0347
01EC
00F4
0000
0A2E
0AA4
0F40
0E00
1D00
2C00
2800
3800
7400
7000
ENDCHAR
STARTCHAR Sacute
ENCODING 346
SWIDTH 501 0
DWIDTH 9 0
BBX 9 17 0 0
BITMAP
0002C0
000740
001D00
000000
01BF80
0796C0
0E0000
0E0000
0E0000
078000
01F400
002D00
000B00
000B00
000E00
A57D00
6FE400
ENDCHAR
STARTCHAR sacute
ENCODING 347
SWIDTH 428 0
DWIDTH 8 0
BBX 8 14 0 0
BITMAP
000E
0028
0060
0000
07F8
1D58
2800
2D00
0F40
02E0
0074
0034
95B0
BF90
ENDCHAR
STARTCHAR Scircumflex
ENCODING 348
SWIDTH 501 0
DWIDTH 9 0
BBX 9 17 0 0
BITMAP
001E00
007B40
01D180
000000
01BF80
0796C0
0E0000
0E0000
0E0000
078000
01F400
002D00
000B00
000B00
000E00
A57D00
6FE400
ENDCHAR
STARTCHAR scircumflex
ENCODING 349
SWIDTH 428 0
DWIDTH 8 0
BBX 8 14 0 0
BITMAP
00B4
02A8
0A09
0000
07F8
1D58
2800
2D00
0F40
02E0
0074
0034
95B0
BF90
ENDCHAR
STARTCHAR Scedilla
ENCODING 350
SWIDTH 501 0
DWIDTH 9 0
BBX 9 17 0 -4
BITMAP
01BF80
0796C0
0E0000
0E0000
0E0000
078000
01F400
002D00
000B00
000B00
000E00
A57D00
6FE400
020000
064000
028000
2E0000
ENDCHAR
STARTCHAR scedilla
ENCODING 351
SWIDTH 428 0
DWIDTH 8 0
BBX 7 14 0 -4
BITMAP
07F8
1D58
2800
2D00
0F40
02E0
0074
0034
95B0
BF90
0900
0A00
0700
7D00
ENDCHAR
STARTCHAR Scaron
ENCODING 352
SWIDTH 501 0
DWIDTH 9 0
BBX 9 17 0 0
BITMAP
00C180
00AA00
003C00
000000
01BF80
0796C0
0E0000
0E0000
0E0000
078000
01F400
002D00
000B00
000B00
000E00
A57D00
6FE400
ENDCHAR
STARTCHAR scaron
ENCODING 353
SWIDTH 428 0
DWIDTH 8 0
BBX 8 14 0 0
BITMAP
060A
02A8
01E0
0000
07F8
1D58
2800
2D00
0F40
02E0
0074
0034
95B0
BF90
ENDCHAR
STARTCHAR Tcedilla
ENCODING 354
SWIDTH 498 0
DWIDTH 9 0
BBX 10 17 1 -4
BITMAP
7FFFD0
15E540
00D000
01D000
01C000
02C000
038000
034000
074000
0B0000
0A0000
0E0000
0D0000
180000
1D0000
0A0000
B80000
ENDCHAR
STARTCHAR tcedilla
ENCODING 355
SWIDTH 324 0
DWIDTH 6 0
BBX 7 16 0 -4
BITMAP
0240
0700
2FF4
0A00
0E00
1D00
1C00
2C00
2800
3800
3940
1F80
0800
1900
0A00
B800
ENDCHAR
STARTCHAR Tcaron
ENCODING 356
SWIDTH 498 0
DWIDTH 9 0
BBX 10 17 1 0
BITMAP
024740
00DD00
00B400
000000
7FFFD0
15E540
00D000
01D000
01C000
02C000
038000
034000
074000
0B0000
0A0000
0E0000
0D0000
ENDCHAR
STARTCHAR tcaron
ENCODING 357
SWIDTH 324 0
DWIDTH 6 0
BBX 8 14 1 0
BITMAP
000D
0028
0930
1C00
BFD0
2800
3800
7400
7000
B000
A000
E000
E500
7E00
ENDCHAR
STARTCHAR Tbar
ENCODING 358
SWIDTH 498 0
DWIDTH 9 0
BBX 10 13 1 0
BITMAP
7FFFD0
15E540
00D000
01D000
01C000
02C000
7FFD00
179400
074000
070000
0A0000
0E0000
0D0000
ENDCHAR
STARTCHAR tbar
ENCODING 359
SWIDTH 324 0
DWIDTH 6 0
BBX 7 12 0 0
BITMAP
0240
0700
2FF4
0E00
0D00
7FD0
2C00
2800
3800
3800
3940
1F80
ENDCHAR
STARTCHAR Utilde
ENCODING 360
SWIDTH 675 0
DWIDTH 12 0
BBX 12 16 1 0
BITMAP
007E70
00D6D0
000000
0A001D
0D001C
1D0028
1C0038
2C0034
380074
3400B0
7400A0
7000E0
B001D0
7402C0
3D5F40
1BF800
ENDCHAR
STARTCHAR utilde
ENCODING 361
SWIDTH 577 0
DWIDTH 10 0
BBX 9 13 1 0
BITMAP
02E680
066E00
000000
2C0280
380380
340340
740700
700B00
A00E00
E01E00
E03D00
B5EC00
6E5C00
ENDCHAR
STARTCHAR Umacron
ENCODING 362
SWIDTH 675 0
DWIDTH 12 0
BBX 12 16 1 0
BITMAP
001540
007FD0
000000
0A001D
0D001C
1D0028
1C0038
2C0034
380074
3400B0
7400A0
7000E0
B001D0
7402C0
3D5F40
1BF800
ENDCHAR
STARTCHAR umacron
ENCODING 363
SWIDTH 577 0
DWIDTH 10 0
BBX 9 13 1 0
BITMAP
015500
03FF00
000000
2C0280
380380
340340
740700
700B00
A00E00
E01E00
E03D00
B5EC00
6E5C00
ENDCHAR
STARTCHAR Ubreve
ENCODING 364
SWIDTH 675 0
DWIDTH 12 0
BBX 12 16 1 0
BITMAP
0065A0
002F80
000000
0A001D
0D001C
1D0028
1C0038
2C0034
380074
3400B0
7400A0
7000E0
B001D0
7402C0
3D5F40
1BF800
ENDCHAR
STARTCHAR ubreve
ENCODING 365
SWIDTH 577 0
DWIDTH 10 0
BBX 9 13 1 0
BITMAP
035700
01F900
000000
2C0280
380380
340340
740700
700B00
A00E00
E01E00
E03D00
B5EC00
6E5C00
ENDCHAR
STARTCHAR Uring
ENCODING 366
SWIDTH 675 0
DWIDTH 12 0
BBX 12 18 1 0
BITMAP
001F40
0020C0
0020C0
001F40
000000
0A001D
0D001C
1D0028
1C0038
2C0034
380074
3400B0
7400A0
7000E0
B001D0
7402C0
3D5F40
1BF800
ENDCHAR
STARTCHAR uring
ENCODING 367
SWIDTH 577 0
DWIDTH 10 0
BBX 9 15 1 0
BITMAP
00B800
018900
018900
00B800
000000
2C0280
380380
340340
740700
700B00
A00E00
E01E00
E03D00
B5EC00
6E5C00
ENDCHAR
STARTCHAR Uhungarumlaut
ENCODING 368
SWIDTH 675 0
DWIDTH 12 0
BBX 12 17 1 0
BITMAP
00071C
001D74
002490
000000
0A001D
0D001C
1D0028
1C0038
2C0034
380074
3400B0
7400A0
7000E0
B001D0
7402C0
3D5F40
1BF800
ENDCHAR
STARTCHAR uhungarumlaut
ENCODING 369
SWIDTH 577 0
DWIDTH 10 0
BBX 10 14 1 0
BITMAP
0075D0
00D340
024900
000000
2C0280
380380
340340
740700
700B00
A00E00
E01E00
E03D00
B5EC00
6E5C00
ENDCHAR
STARTCHAR Uogonek
ENCODING 370
SWIDTH 675 0
DWIDTH 12 0
BBX 12 17 1 -4
BITMAP
0A001D
0D001C
1D0028
1C0038
2C0034
380074
3400B0
7400A0
7000E0
B001D0
7402C0
3D5F40
1BF800
00A000
018000
028000
01E000
ENDCHAR
STARTCHAR uogonek
ENCODING 371
SWIDTH 577 0
DWIDTH 10 0
BBX 9 14 1 -4
BITMAP
2C0280
380380
340340
740700
700B00
A00E00
E01E00
E03D00
B5EC00
6E5C00
006000
00D000
01C000
00B400
ENDCHAR
STARTCHAR Wcircumflex
ENCODING 372
SWIDTH 852 0
DWIDTH 15 0
BBX 15 17 2 0
BITMAP
00078000
000ED000
00347000
00000000
D00B4038
E00F4074
E02B40A0
E03741D0
E07342C0
A0D24340
A1C28700
A2828E00
A7029C00
AA02A800
AD02B400
B802E000
B401D000
ENDCHAR
STARTCHAR wcircumflex
ENCODING 373
SWIDTH 716 0
DWIDTH 13 0
BBX 13 14 1 0
BITMAP
001E0000
007B4000
01D18000
00000000
D02C0740
E07C0B00
E0AC0D00
E1CD2C00
A28D3800
A34D7000
AA0DA000
AD0ED000
BC0B8000
B40B4000
ENDCHAR
STARTCHAR Ycircumflex
ENCODING 374
SWIDTH 502 0
DWIDTH 9 0
BBX 10 17 1 0
BITMAP
00B400
01EC00
060A00
000000
7401D0
340380
280B00
1C1D00
1D3800
0DB000
0AD000
078000
070000
0B0000
0A0000
0E0000
1D0000
ENDCHAR
STARTCHAR ycircumflex
ENCODING 375
SWIDTH 461 0
DWIDTH 8 0
BBX 11 18 -2 -4
BITMAP
000B40
001EC0
006090
000000
03402C
038074
0280A0
0281D0
01C280
01C740
01CA00
00DC00
00F800
00B000
00D000
02C000
5B4000
B90000
ENDCHAR
STARTCHAR Ydieresis
ENCODING 376
SWIDTH 502 0
DWIDTH 9 0
BBX 10 16 1 0
BITMAP
024A00
034A00
000000
7401D0
340380
280B00
1C1D00
1D3800
0DB000
0AD000
078000
070000
0B0000
0A0000
0E0000
1D0000
ENDCHAR
STARTCHAR Zacute
ENCODING 377
SWIDTH 530 0
DWIDTH 10 0
BBX 11 17 0 0
BITMAP
0001D0
000380
000900
000000
07FFF4
0555E0
0002C0
000740
001E00
003800
00B000
02D000
074000
0E0000
380000
B55500
FFFF00
ENDCHAR
STARTCHAR zacute
ENCODING 378
SWIDTH 443 0
DWIDTH 8 0
BBX 8 14 0 0
BITMAP
000B
001D
0074
0000
0FFE
001D
0038
00A0
02C0
0740
1D00
3800
B000
FFF0
ENDCHAR
STARTCHAR Zdotaccent
ENCODING 379
SWIDTH 530 0
DWIDTH 10 0
BBX 11 16 0 0
BITMAP
000D00
000D00
000000
07FFF4
0555E0
0002C0
000740
001E00
003800
00B000
02D000
074000
0E0000
380000
B55500
FFFF00
ENDCHAR
STARTCHAR zdotaccent
ENCODING 380
SWIDTH 443 0
DWIDTH 8 0
BBX 8 13 0 0
BITMAP
0070
0070
0000
0FFE
001D
0038
00A0
02C0
0740
1D00
3800
B000
FFF0
ENDCHAR
STARTCHAR Zcaron
ENCODING 381
SWIDTH 530 0
DWIDTH 10 0
BBX 11 17 0 0
BITMAP
0060A0
002B80
001E00
000000
07FFF4
0555E0
0002C0
000740
001E00
003800
00B000
02D000
074000
0E0000
380000
B55500
FFFF00
ENDCHAR
STARTCHAR zcaron
ENCODING 382
SWIDTH 443 0
DWIDTH 8 0
BBX 8 14 0 0
BITMAP
0347
01EC
00F4
0000
0FFE
001D
0038
00A0
02C0
0740
1D00
3800
B000
FFF0
ENDCHAR
STARTCHAR longs
ENCODING 383
SWIDTH 274 0
DWIDTH 5 0
BBX 11 18 -3 -4
BITMAP
0002F4
000B50
000D00
001C00
002C00
002800
003800
007400
007000
00B000
00A000
00D000
01D000
01C000
028000
038000
1B0000
7D0000
ENDCHAR
STARTCHAR florin
ENCODING 402
SWIDTH 550 0
DWIDTH 10 0
BBX 10 17 0 -4
BITMAP
000BE0
002D50
003400
007400
02FF00
00A000
00E000
00D000
01C000
02C000
028000
038000
034000
070000
0A0000
5D0000
F80000
ENDCHAR
STARTCHAR Ohorn
ENCODING 416
SWIDTH 713 0
DWIDTH 13 0
BBX 14 14 1 0
BITMAP
000000F0
00BF90D0
03E5F680
0F003D00
2C001D00
38001D00
74001D00
B0001D00
B0002C00
B0003800
B0007400
7801E000
2E5BC000
06F90000
ENDCHAR
STARTCHAR ohorn
ENCODING 417
SWIDTH 561 0
DWIDTH 10 0
BBX 11 11 1 0
BITMAP
000038
06F874
1E5F90
740B00
B00740
E00740
D00B00
D00A00
E01D00
757800
1F9000
ENDCHAR
STARTCHAR Uhorn
ENCODING 431
SWIDTH 722 0
DWIDTH 13 0
BBX 15 14 1 0
BITMAP
00000074
0A001DB0
0D001ED0
1D002E00
1C003800
2C003400
38007400
3400B000
7400A000
7000E000
B001D000
7402C000
3D5F4000
0BF90000
ENDCHAR
STARTCHAR uhorn
ENCODING 432
SWIDTH 617 0
DWIDTH 11 0
BBX 12 11 1 0
BITMAP
00000B
2C029D
3803F4
340340
740700
700B00
A00E00
E01E00
E03D00
B5EC00
6E5C00
ENDCHAR
STARTCHAR uni01F0
ENCODING 496
SWIDTH 253 0
DWIDTH 5 0
BBX 10 18 -3 -4
BITMAP
006090
003B40
001E00
000000
002C00
002800
003800
007400
007000
00B000
00A000
00D000
01D000
01C000
028000
038000
1B4000
7D0000
ENDCHAR
STARTCHAR Aringacute
ENCODING 506
SWIDTH 555 0
DWIDTH 10 0
BBX 11 17 -1 0
BITMAP
0000B4
000280
000000
000B80
001890
001890
000FC0
002EC0
0075C0
00B1C0
01D1D0
0380D0
07FFE0
0E55E0
2C00A0
7800B0
B00070
ENDCHAR
STARTCHAR aringacute
ENCODING 507
SWIDTH 564 0
DWIDTH 10 0
BBX 9 17 1 0
BITMAP
000B40
002800
000000
01B800
028900
00A800
000000
06E580
1E5E80
380B40
B00700
E00B00
D00E00
D01E00
D03D00
B5EC00
2E5C00
ENDCHAR
STARTCHAR AEacute
ENCODING 508
SWIDTH 816 0
DWIDTH 15 0
BBX 17 17 -1 0
BITMAP
0000007400
000000D000
0000024000
0000000000
0000FFFF40
0002AD5500
00076C0000
000D280000
0028380000
0070740000
00D07FFC00
02FFF55400
0755E00000
0A00E00000
1C01D00000
3801D55000
B002FFF000
ENDCHAR
STARTCHAR aeacute
ENCODING 509
SWIDTH 814 0
DWIDTH 15 0
BBX 14 14 1 0
BITMAP
00007800
0000E000
00028000
00000000
06E36F40
1E6BE6C0
380F41D0
B00E0780
E00FFE00
D01D4000
D02D0000
D07E0000
B6AF9600
7E26FE00
ENDCHAR
STARTCHAR Oslashacute
ENCODING 510
SWIDTH 720 0
DWIDTH 13 0
BBX 12 18 1 -1
BITMAP
0001E0
000280
000A00
000000
00BF9E
03E5FC
0F00BC
2C01ED
38075D
740E1D
B0281D
B0B02C
B1D038
B74074
3D01E0
3E5BC0
B6F900
400000
ENDCHAR
STARTCHAR oslashacute
ENCODING 511
SWIDTH 561 0
DWIDTH 10 0
BBX 9 15 1 -1
BITMAP
000E00
002800
00A000
000140
06FB40
1E5E00
742F00
B07740
E1D700
D34700
DA0A00
F81D00
B97800
EF9000
800000
ENDCHAR
STARTCHAR Scommaaccent
ENCODING 536
SWIDTH 501 0
DWIDTH 9 0
BBX 9 17 0 -4
BITMAP
01BF80
0796C0
0E0000
0E0000
0E0000
078000
01F400
002D00
000B00
000B00
000E00
A57D00
6FE400
000000
070000
0A0000
180000
ENDCHAR
STARTCHAR scommaaccent
ENCODING 537
SWIDTH 428 0
DWIDTH 8 0
BBX 7 14 0 -4
BITMAP
07F8
1D58
2800
2D00
0F40
02E0
0074
0034
95B0
BF90
0000
0D00
2800
3000
ENDCHAR
STARTCHAR Tcommaaccent
ENCODING 538
SWIDTH 498 0
DWIDTH 9 0
BBX 10 17 1 -4
BITMAP
7FFFD0
15E540
00D000
01D000
01C000
02C000
038000
034000
074000
0B0000
0A0000
0E0000
0D0000
000000
280000
340000
A00000
ENDCHAR
STARTCHAR tcommaaccent
ENCODING 539
SWIDTH 324 0
DWIDTH 6 0
BBX 7 16 0 -4
BITMAP
0240
0700
2FF4
0A00
0E00
1D00
1C00
2C00
2800
3800
3940
1F80
0000
1C00
2400
6000
ENDCHAR
STARTCHAR dotlessj
ENCODING 567
SWIDTH 253 0
DWIDTH 5 0
BBX 7 14 -3 -4
BITMAP
002C
0028
0038
0074
0070
00B0
00A0
00D0
01D0
01C0
0280
0380
1B40
7D00
ENDCHAR
STARTCHAR uni02BC
ENCODING 700
SWIDTH 169 0
DWIDTH 3 0
BBX 4 4 1 9
BITMAP
1D
2C
74
A0
ENDCHAR
STARTCHAR circumflex
ENCODING 710
SWIDTH 554 0
DWIDTH 10 0
BBX 6 3 3 11
BITMAP
0780
1ED0
7460
ENDCHAR
STARTCHAR caron
ENCODING 711
SWIDTH 554 0
DWIDTH 10 0
BBX 6 3 4 11
BITMAP
91D0
3740
2D00
ENDCHAR
STARTCHAR macron
ENCODING 713
SWIDTH 535 0
DWIDTH 10 0
BBX 6 2 3 11
BITMAP
1540
7FD0
ENDCHAR
STARTCHAR breve
ENCODING 728
SWIDTH 554 0
DWIDTH 10 0
BBX 5 2 4 11
BITMAP
95C0
7E40
ENDCHAR
STARTCHAR dotaccent
ENCODING 729
SWIDTH 243 0
DWIDTH 4 0
BBX 2 2 3 11
BITMAP
D0
D0
ENDCHAR
STARTCHAR ring
ENCODING 730
SWIDTH 577 0
DWIDTH 10 0
BBX 4 4 5 11
BITMAP
78
C6
C6
B8
ENDCHAR
STARTCHAR ogonek
ENCODING 731
SWIDTH 182 0
DWIDTH 3 0
BBX 4 4 -2 -4
BITMAP
18
34
70
2D
ENDCHAR
STARTCHAR tilde
ENCODING 732
SWIDTH 554 0
DWIDTH 10 0
BBX 7 2 3 11
BITMAP
7E64
D6E0
ENDCHAR
STARTCHAR hungarumlaut
ENCODING 733
SWIDTH 554 0
DWIDTH 10 0
BBX 7 3 3 11
BITMAP
0A28
28A0
6180
ENDCHAR
STARTCHAR uni02F3
ENCODING 755
SWIDTH 333 0
DWIDTH 6 0
BBX 5 4 -1 -5
BITMAP
2E00
9240
9240
2E00
ENDCHAR
STARTCHAR uni0300
ENCODING 768
SWIDTH 0 0
DWIDTH 0 0
BBX 4 3 -7 11
BITMAP
74
2C
09
ENDCHAR
STARTCHAR uni0301
ENCODING 769
SWIDTH 0 0
DWIDTH 0 0
BBX 4 3 -5 11
BITMAP
0E
28
60
ENDCHAR
STARTCHAR uni0303
ENCODING 771
SWIDTH 0 0
DWIDTH 0 0
BBX 7 2 -8 11
BITMAP
2E58
66F4
ENDCHAR
STARTCHAR hook
ENCODING 777
SWIDTH 0 0
DWIDTH 0 0
BBX 3 4 -5 11
BITMAP
F4
1C
B4
C0
ENDCHAR
STARTCHAR uni030F
ENCODING 783
SWIDTH 0 0
DWIDTH 0 0
BBX 6 3 -9 11
BITMAP
B2C0
74D0
1870
ENDCHAR
STARTCHAR dotbelow
ENCODING 803
SWIDTH 0 0
DWIDTH 0 0
BBX 3 2 -8 -3
BITMAP
74
70
ENDCHAR
STARTCHAR tonos
ENCODING 900
SWIDTH 562 0
DWIDTH 10 0
BBX 4 4 5 11
BITMAP
0E
2C
34
60
ENDCHAR
STARTCHAR dieresistonos
ENCODING 901
SWIDTH 562 0
DWIDTH 10 0
BBX 5 4 4 11
BITMAP
0380
0700
99C0
D180
ENDCHAR
STARTCHAR Alphatonos
ENCODING 902
SWIDTH 555 0
DWIDTH 10 0
BBX 10 14 -1 0
BITMAP
01D000
028780
074B80
091EC0
0035C0
0071C0
00D1D0
0280D0
03FFD0
0A55E0
0D00A0
2800A0
7400B0
B00070
ENDCHAR
STARTCHAR anoteleia
ENCODING 903
SWIDTH 252 0
DWIDTH 5 0
BBX 3 3 1 5
BITMAP
10
78
74
ENDCHAR
STARTCHAR Epsilontonos
ENCODING 904
SWIDTH 567 0
DWIDTH 10 0
BBX 11 14 0 0
BITMAP
0E0000
1DBFFC
28A554
70E000
01D000
01C000
02C000
03FFD0
039540
074000
070000
0B0000
0E5540
0FFF40
ENDCHAR
STARTCHAR Etatonos
ENCODING 905
SWIDTH 753 0
DWIDTH 14 0
BBX 14 14 0 0
BITMAP
0E000000
1D7400E0
287000D0
70B001C0
00E002C0
00D00280
01D00340
02FFFF40
02D55B00
03800B00
03400A00
07400D00
0B001D00
0A001C00
ENDCHAR
STARTCHAR Iotatonos
ENCODING 906
SWIDTH 363 0
DWIDTH 7 0
BBX 6 14 1 0
BITMAP
2C00
34D0
A1D0
C1C0
02C0
0380
0340
0740
0700
0A00
0E00
0D00
1D00
2C00
ENDCHAR
STARTCHAR Omicrontonos
ENCODING 908
SWIDTH 756 0
DWIDTH 14 0
BBX 12 14 1 0
BITMAP
2C0000
746FE0
A1F5BC
C7801E
0E000B
1D000B
2C000B
38000B
38000E
38001D
3C002C
2D00B8
0F96E0
02FE40
ENDCHAR
STARTCHAR Upsilontonos
ENCODING 910
SWIDTH 640 0
DWIDTH 12 0
BBX 13 14 0 0
BITMAP
0E000000
1DA00280
28700740
70740E00
00342800
00287400
001CD000
001E8000
000F0000
000E0000
000D0000
001D0000
002C0000
00280000
ENDCHAR
STARTCHAR Omegatonos
ENCODING 911
SWIDTH 782 0
DWIDTH 14 0
BBX 14 14 0 0
BITMAP
0B000000
0E1BF900
1C7D6F40
35E003C0
038001D0
074001D0
0B0001D0
0B0001D0
0B0002C0
0B000740
07400A00
02802C00
15E1F540
7FE2FF80
ENDCHAR
STARTCHAR iotadieresistonos
ENCODING 912
SWIDTH 305 0
DWIDTH 6 0
BBX 6 15 1 0
BITMAP
02C0
0740
A9D0
A0C0
0000
2800
3800
3400
7400
7000
A000
E000
D000
E500
7D00
ENDCHAR
STARTCHAR Alpha
ENCODING 913
SWIDTH 555 0
DWIDTH 10 0
BBX 10 13 -1 0
BITMAP
000780
000B80
001EC0
0035C0
0071C0
00D1D0
0280D0
03FFD0
0A55E0
0D00A0
2800A0
7400B0
B00070
ENDCHAR
STARTCHAR Beta
ENCODING 914
SWIDTH 598 0
DWIDTH 11 0
BBX 10 13 1 0
BITMAP
0BFE40
0E57C0
0D01D0
1D00E0
1C01D0
2C0780
3FFD00
395B00
740380
B00380
A00740
E56E00
FFE400
ENDCHAR
STARTCHAR Gamma
ENCODING 915
SWIDTH 476 0
DWIDTH 9 0
BBX 9 13 1 0
BITMAP
0BFFC0
0E5540
0D0000
1D0000
1C0000
2C0000
380000
340000
740000
B00000
A00000
E00000
D00000
ENDCHAR
STARTCHAR uni0394
ENCODING 916
SWIDTH 558 0
DWIDTH 10 0
BBX 10 13 -1 0
BITMAP
000780
000B80
001E80
0029C0
0075C0
00E1C0
01D1D0
0380D0
0740D0
0E00E0
1C00A0
3955A0
7FFFE0
ENDCHAR
STARTCHAR Epsilon
ENCODING 917
SWIDTH 511 0
DWIDTH 9 0
BBX 9 13 1 0
BITMAP
0BFFC0
0E5540
0D0000
1D0000
1C0000
2C0000
3FFD00
395400
740000
B00000
A00000
E55000
FFF400
ENDCHAR
STARTCHAR Zeta
ENCODING 918
SWIDTH 530 0
DWIDTH 10 0
BBX 11 13 0 0
BITMAP
07FFF4
0555E0
0002C0
000740
001E00
003800
00B000
02D000
074000
0E0000
380000
B55500
FFFF00
ENDCHAR
STARTCHAR Eta
ENCODING 919
SWIDTH 678 0
DWIDTH 12 0
BBX 11 13 1 0
BITMAP
0B001C
0E002C
0D0028
1D0038
1C0034
2C0070
3FFFF0
3955E0
7400D0
B000D0
A001C0
E002C0
D00280
ENDCHAR
STARTCHAR Theta
ENCODING 920
SWIDTH 720 0
DWIDTH 13 0
BBX 12 13 1 0
BITMAP
00BF90
03E5F4
0F003C
2C001D
38001D
74001D
B1FF5D
B1552C
B00038
B00074
7801E0
2E5BC0
06F900
ENDCHAR
STARTCHAR Iota
ENCODING 921
SWIDTH 272 0
DWIDTH 5 0
BBX 4 13 1 0
BITMAP
0B
0E
0D
1D
1C
28
38
34
74
B0
A0
E0
D0
ENDCHAR
STARTCHAR Kappa
ENCODING 922
SWIDTH 557 0
DWIDTH 10 0
BBX 11 13 1 0
BITMAP
0B00B4
0E02D0
0D0B40
1D2D00
1CB400
2AD000
3FD000
38A000
747400
B03800
A02C00
E00D00
D00B00
ENDCHAR
STARTCHAR Lambda
ENCODING 923
SWIDTH 558 0
DWIDTH 10 0
BBX 10 13 -1 0
BITMAP
000780
000B80
001EC0
0039C0
0071C0
00E0D0
02C0D0
0380E0
0B00A0
0D00A0
2C00B0
740070
B00070
ENDCHAR
STARTCHAR Mu
ENCODING 924
SWIDTH 836 0
DWIDTH 15 0
BBX 14 13 1 0
BITMAP
0B8001F0
0F8003E0
0EC00AE0
1DC00DD0
1CC029D0
28D076C0
38D0A280
34A1C380
70A28340
B0A70740
A07D0B00
D07C0A00
D0340E00
ENDCHAR
STARTCHAR Nu
ENCODING 925
SWIDTH 702 0
DWIDTH 13 0
BBX 12 13 1 0
BITMAP
0B400A
0F800D
0EC01D
1DD01C
1CA028
287038
383434
342870
701D70
B00EA0
A00BE0
D003D0
D002C0
ENDCHAR
STARTCHAR Xi
ENCODING 926
SWIDTH 517 0
DWIDTH 9 0
BBX 10 13 0 0
BITMAP
07FFF0
015550
000000
000000
000000
000000
0BFF00
055500
000000
000000
000000
555500
FFFE00
ENDCHAR
STARTCHAR Omicron
ENCODING 927
SWIDTH 720 0
DWIDTH 13 0
BBX 12 13 1 0
BITMAP
00BF90
03E5F4
0F003C
2C001D
38001D
74001D
B0001D
B0002C
B00038
B00074
7801E0
2E5BC0
06F900
ENDCHAR
STARTCHAR Pi
ENCODING 928
SWIDTH 679 0
DWIDTH 12 0
BBX 12 13 1 0
BITMAP
0BFFFD
0E556C
0D0028
1D0038
1C0034
280070
3800B0
3400A0
7400E0
B001D0
A001C0
E002C0
D00380
ENDCHAR
STARTCHAR Rho
ENCODING 929
SWIDTH 565 0
DWIDTH 10 0
BBX 9 13 1 0
BITMAP
0BFE00
0E5B80
0D02C0
1D01C0
1C02C0
2C0380
381B40
3FF900
754000
B00000
A00000
E00000
D00000
ENDCHAR
STARTCHAR Sigma
ENCODING 931
SWIDTH 520 0
DWIDTH 9 0
BBX 10 13 0 0
BITMAP
0BFFF0
0B5550
034000
02C000
01D000
00A000
00B000
01D000
074000
0E0000
380000
B55500
FFFF00
ENDCHAR
STARTCHAR Tau
ENCODING 932
SWIDTH 498 0
DWIDTH 9 0
BBX 10 13 1 0
BITMAP
7FFFD0
15E540
00D000
01D000
01C000
02C000
038000
034000
074000
0B0000
0A0000
0E0000
0D0000
ENDCHAR
STARTCHAR Upsilon
ENCODING 933
SWIDTH 502 0
DWIDTH 9 0
BBX 10 13 1 0
BITMAP
7401D0
340380
280B00
1C1D00
1D3800
0DB000
0AD000
078000
070000
0B0000
0A0000
0E0000
1D0000
ENDCHAR
STARTCHAR Phi
ENCODING 934
SWIDTH 744 0
DWIDTH 13 0
BBX 12 13 1 0
BITMAP
000700
000B00
01BFE0
1F9E7C
381D0E
741C0A
B02C0A
B0380E
B0342C
7975B4
1FFF90
00E400
00E000
ENDCHAR
STARTCHAR Chi
ENCODING 935
SWIDTH 519 0
DWIDTH 9 0
BBX 12 13 -1 0
BITMAP
02801D
01C038
00D0A0
00A2C0
007740
003D00
003C00
00AD00
02CA00
074700
0E0380
2802C0
B001D0
ENDCHAR
STARTCHAR Psi
ENCODING 936
SWIDTH 734 0
DWIDTH 13 0
BBX 13 13 1 0
BITMAP
1C0702C0
2C0B0280
280E0380
380D0740
341D0740
741C0B00
342C1E00
2D387C00
0BFFE000
00B50000
00B00000
00A00000
00E00000
ENDCHAR
STARTCHAR uni03A9
ENCODING 937
SWIDTH 732 0
DWIDTH 13 0
BBX 13 13 0 0
BITMAP
002FE400
01F97D00
07800B00
0B000740
0D000340
1D000340
2C000740
2C000B00
1D000E00
0D002C00
0B00B400
5782D500
FF8BFE00
ENDCHAR
STARTCHAR Iotadieresis
ENCODING 938
SWIDTH 272 0
DWIDTH 5 0
BBX 6 16 1 0
BITMAP
2870
2860
0000
0B00
0E00
0D00
1D00
1C00
2800
3800
3400
7400
B000
A000
E000
D000
ENDCHAR
STARTCHAR Upsilondieresis
ENCODING 939
SWIDTH 502 0
DWIDTH 9 0
BBX 10 16 1 0
BITMAP
024A00
034A00
000000
7401D0
340380
280B00
1C1D00
1D3800
0DB000
0AD000
078000
070000
0B0000
0A0000
0E0000
1D0000
ENDCHAR
STARTCHAR alphatonos
ENCODING 940
SWIDTH 568 0
DWIDTH 10 0
BBX 9 15 1 0
BITMAP
000E00
001C00
003800
006000
000000
06E5C0
1E5E80
380B40
B00B00
E00A00
D00E00
D01D00
D03D00
B5ED00
2E4B40
ENDCHAR
STARTCHAR epsilontonos
ENCODING 941
SWIDTH 444 0
DWIDTH 8 0
BBX 8 15 0 0
BITMAP
000B
000D
0028
0034
0000
02FE
0B56
0D00
0E00
07F0
2D50
7400
7000
7958
1BE4
ENDCHAR
STARTCHAR etatonos
ENCODING 942
SWIDTH 577 0
DWIDTH 10 0
BBX 10 19 0 -4
BITMAP
000380
000700
000E00
001800
000000
0A2F40
0AA6D0
0F40D0
0E01D0
1D01C0
2C0280
280380
380340
740700
700B00
000A00
000D00
001D00
001C00
ENDCHAR
STARTCHAR iotatonos
ENCODING 943
SWIDTH 305 0
DWIDTH 6 0
BBX 5 15 1 0
BITMAP
02C0
0340
0A00
0D00
0000
2800
3800
3400
7400
7000
A000
E000
D000
E500
7D00
ENDCHAR
STARTCHAR upsilondieresistonos
ENCODING 944
SWIDTH 576 0
DWIDTH 10 0
BBX 9 15 1 0
BITMAP
001D00
002800
036A00
030A00
000000
280380
380380
340380
740340
700740
A00700
A00A00
A01D00
797800
1FD000
ENDCHAR
STARTCHAR alpha
ENCODING 945
SWIDTH 568 0
DWIDTH 10 0
BBX 9 10 1 0
BITMAP
06E5C0
1E5E80
380B40
B00B00
E00A00
D00E00
D01D00
D03D00
B5ED00
2E4B40
ENDCHAR
STARTCHAR beta
ENCODING 946
SWIDTH 577 0
DWIDTH 10 0
BBX 11 18 -1 -4
BITMAP
001BE0
007978
00E02C
01D01C
01C028
0280B4
039F80
0346D0
070070
0B0074
0A0074
0D00B0
1F56D0
1DBE40
2C0000
380000
340000
740000
ENDCHAR
STARTCHAR gamma
ENCODING 947
SWIDTH 458 0
DWIDTH 8 0
BBX 8 14 1 -4
BITMAP
D00A
E01D
A028
A074
70E0
71C0
3680
3B00
2E00
2C00
3800
B000
E000
D000
ENDCHAR
STARTCHAR delta
ENCODING 948
SWIDTH 553 0
DWIDTH 10 0
BBX 10 14 0 0
BITMAP
006F90
00E5A0
01C000
00D000
00B400
007D00
079700
1D0380
380280
740280
740380
740740
2D5E00
0BE400
ENDCHAR
STARTCHAR epsilon
ENCODING 949
SWIDTH 444 0
DWIDTH 8 0
BBX 8 10 0 0
BITMAP
02FE
0B56
0D00
0E00
07F0
2D50
7400
7000
7958
1BE4
ENDCHAR
STARTCHAR zeta
ENCODING 950
SWIDTH 453 0
DWIDTH 8 0
BBX 9 17 1 -3
BITMAP
07FF40
055E00
007800
01E000
074000
0E0000
280000
700000
E00000
D00000
D00000
F00000
7E0000
07C000
00D000
01D000
074000
ENDCHAR
STARTCHAR eta
ENCODING 951
SWIDTH 577 0
DWIDTH 10 0
BBX 10 14 0 -4
BITMAP
0A2F40
0AA6D0
0F40D0
0E01D0
1D01C0
2C0280
280380
380340
740700
700B00
000A00
000D00
001D00
001C00
ENDCHAR
STARTCHAR theta
ENCODING 952
SWIDTH 542 0
DWIDTH 10 0
BBX 9 14 1 0
BITMAP
01F900
0B5B00
1D0740
280340
340340
700740
BFFF00
E55B00
D00A00
D00D00
D02C00
D03800
B5E000
2F8000
ENDCHAR
STARTCHAR iota
ENCODING 953
SWIDTH 305 0
DWIDTH 6 0
BBX 4 10 1 0
BITMAP
28
38
34
74
70
A0
E0
D0
E5
7D
ENDCHAR
STARTCHAR kappa
ENCODING 954
SWIDTH 487 0
DWIDTH 9 0
BBX 9 10 0 0
BITMAP
0B0380
0A0A00
0D2800
1DA000
1ED000
2EE000
287400
343800
742C00
700E00
ENDCHAR
STARTCHAR lambda
ENCODING 955
SWIDTH 482 0
DWIDTH 9 0
BBX 9 14 -1 0
BITMAP
03E000
017400
002800
002800
002C00
007C00
00AC00
01DD00
038D00
070D00
0D0E00
2C0A00
740B40
A00780
ENDCHAR
STARTCHAR uni03BC
ENCODING 956
SWIDTH 583 0
DWIDTH 11 0
BBX 11 14 -1 -4
BITMAP
02C02C
028028
038034
034074
070070
0B00A0
0A01E0
0E02D0
1F5AD0
1EE5C0
280000
380000
340000
740000
ENDCHAR
STARTCHAR nu
ENCODING 957
SWIDTH 488 0
DWIDTH 9 0
BBX 8 10 1 0
BITMAP
D00B
E00E
E00D
A02C
B038
7070
70E0
7280
3B00
3C00
ENDCHAR
STARTCHAR xi
ENCODING 958
SWIDTH 444 0
DWIDTH 8 0
BBX 9 17 0 -3
BITMAP
02FF80
01B900
028000
070000
070000
038000
01FD00
0B9400
2C0000
340000
740000
380000
1E4000
02E000
007400
007000
01D000
ENDCHAR
STARTCHAR omicron
ENCODING 959
SWIDTH 561 0
DWIDTH 10 0
BBX 9 10 1 0
BITMAP
06F800
1E5E00
740B00
B00740
E00740
D00B00
D00A00
E01D00
757800
1F9000
ENDCHAR
STARTCHAR pi
ENCODING 960
SWIDTH 600 0
DWIDTH 11 0
BBX 10 10 1 0
BITMAP
BFFFF0
6D5B50
2C0A00
380E00
340D00
741D00
701C00
A02800
E02D00
D01F00
ENDCHAR
STARTCHAR rho
ENCODING 961
SWIDTH 570 0
DWIDTH 10 0
BBX 11 14 -1 -4
BITMAP
006F80
00E5E0
028074
034034
070034
0B0074
0A00B0
0E01D0
1F9780
1DBE00
280000
380000
340000
740000
ENDCHAR
STARTCHAR sigma1
ENCODING 962
SWIDTH 453 0
DWIDTH 8 0
BBX 7 13 1 -3
BITMAP
06F8
1E58
7400
B000
E000
D000
E000
B000
3E00
07C0
00D0
01D0
0740
ENDCHAR
STARTCHAR sigma
ENCODING 963
SWIDTH 581 0
DWIDTH 10 0
BBX 10 10 1 0
BITMAP
06FFE0
2E5D40
740A00
A00B00
E00B00
D00B00
D00E00
E01D00
797800
2FD000
ENDCHAR
STARTCHAR tau
ENCODING 964
SWIDTH 417 0
DWIDTH 8 0
BBX 7 10 1 0
BITMAP
BFFC
5B54
0E00
0D00
1D00
1C00
2800
2800
2D40
1B80
ENDCHAR
STARTCHAR upsilon
ENCODING 965
SWIDTH 576 0
DWIDTH 10 0
BBX 9 10 1 0
BITMAP
280380
380380
340380
740340
700740
A00700
A00A00
A01D00
797800
1FD000
ENDCHAR
STARTCHAR phi
ENCODING 966
SWIDTH 669 0
DWIDTH 12 0
BBX 11 14 1 -4
BITMAP
090B90
1D29B0
347470
B0B074
E0A070
D0E0B0
D0D0E0
E1C2C0
7ADB40
1BF800
034000
074000
070000
0A0000
ENDCHAR
STARTCHAR chi
ENCODING 967
SWIDTH 502 0
DWIDTH 9 0
BBX 12 14 -2 -4
BITMAP
02D01D
01B038
0074B0
0035D0
003780
002E00
002D00
007C00
00EC00
029D00
070D00
1D0D00
380B40
B007D0
ENDCHAR
STARTCHAR psi
ENCODING 968
SWIDTH 713 0
DWIDTH 13 0
BBX 11 18 1 -4
BITMAP
000B00
000A00
000D00
001D00
281C1C
382C1C
34281C
74342C
707428
A07038
A0A074
B0E1E0
79EB80
1BF900
01C000
028000
038000
034000
ENDCHAR
STARTCHAR omega
ENCODING 969
SWIDTH 729 0
DWIDTH 13 0
BBX 12 10 1 0
BITMAP
0D001C
2C001D
74001D
B0001D
E0341C
D0742C
D07028
D0B074
B6B5E0
6E1F80
ENDCHAR
STARTCHAR iotadieresis
ENCODING 970
SWIDTH 305 0
DWIDTH 6 0
BBX 5 13 1 0
BITMAP
A1C0
A180
0000
2800
3800
3400
7400
7000
A000
E000
D000
E500
7D00
ENDCHAR
STARTCHAR upsilondieresis
ENCODING 971
SWIDTH 576 0
DWIDTH 10 0
BBX 9 13 1 0
BITMAP
024A00
034900
000000
280380
380380
340380
740340
700740
A00700
A00A00
A01D00
797800
1FD000
ENDCHAR
STARTCHAR omicrontonos
ENCODING 972
SWIDTH 561 0
DWIDTH 10 0
BBX 9 15 1 0
BITMAP
000E00
002C00
003400
006000
000000
06F800
1E5E00
740B00
B00740
E00740
D00B00
D00A00
E01D00
757800
1F9000
ENDCHAR
STARTCHAR upsilontonos
ENCODING 973
SWIDTH 576 0
DWIDTH 10 0
BBX 9 15 1 0
BITMAP
001D00
002C00
003400
00A000
000000
280380
380380
340380
740340
700740
A00700
A00A00
A01D00
797800
1FD000
ENDCHAR
STARTCHAR omegatonos
ENCODING 974
SWIDTH 729 0
DWIDTH 13 0
BBX 12 15 1 0
BITMAP
0002C0
000380
000700
000D00
000000
0D001C
2C001D
74001D
B0001D
E0341C
D0742C
D07028
D0B074
B6B5E0
6E1F80
ENDCHAR
STARTCHAR uni03D1
ENCODING 977
SWIDTH 569 0
DWIDTH 10 0
BBX 11 14 0 0
BITMAP
007E00
01D680
0281D0
0280D0
01E0D0
006FF8
7801D0
5D01C0
1C0280
280340
340700
740D00
397800
1BD000
ENDCHAR
STARTCHAR uni03D2
ENCODING 978
SWIDTH 509 0
DWIDTH 9 0
BBX 10 13 1 0
BITMAP
7401E0
340790
280E00
1C2C00
1D3400
0DA000
0BD000
078000
074000
0B0000
0A0000
0E0000
1D0000
ENDCHAR
STARTCHAR uni03D6
ENCODING 982
SWIDTH 791 0
DWIDTH 14 0
BBX 14 10 1 0
BITMAP
7FFFFFE0
5E555E40
1C000E00
38000E00
74000E00
B0280D00
B0381C00
B0742800
79E9B400
2F4B9000
ENDCHAR
STARTCHAR uni0400
ENCODING 1024
SWIDTH 511 0
DWIDTH 9 0
BBX 9 17 1 0
BITMAP
00A000
007400
001800
000000
0BFFC0
0E5540
0D0000
1D0000
1C0000
2C0000
3FFD00
395400
740000
B00000
A00000
E55000
FFF400
ENDCHAR
STARTCHAR afii10023
ENCODING 1025
SWIDTH 511 0
DWIDTH 9 0
BBX 9 16 1 0
BITMAP
01C340
01C340
000000
0BFFC0
0E5540
0D0000
1D0000
1C0000
2C0000
3FFD00
395400
740000
B00000
A00000
E55000
FFF400
ENDCHAR
STARTCHAR afii10051
ENCODING 1026
SWIDTH 666 0
DWIDTH 12 0
BBX 10 13 1 0
BITMAP
7FFF80
16D540
028000
038000
074000
07FF80
0B56D0
0A00E0
0D00E0
1D00D0
1C01D0
2C1780
383E00
ENDCHAR
STARTCHAR afii10052
ENCODING 1027
SWIDTH 476 0
DWIDTH 9 0
BBX 9 17 1 0
BITMAP
000B40
001D00
003400
000000
0BFFC0
0E5540
0D0000
1D0000
1C0000
2C0000
380000
340000
740000
B00000
A00000
E00000
D00000
ENDCHAR
STARTCHAR afii10053
ENCODING 1028
SWIDTH 584 0
DWIDTH 11 0
BBX 10 13 1 0
BITMAP
006FE0
02E5A0
0B4000
1D0000
3C0000
740000
BFFE00
B55500
B00000
B00000
780000
2E5600
06FE00
ENDCHAR
STARTCHAR afii10054
ENCODING 1029
SWIDTH 501 0
DWIDTH 9 0
BBX 9 13 0 0
BITMAP
01BF80
0796C0
0E0000
0E0000
0E0000
078000
01F400
002D00
000B00
000B00
000E00
A57D00
6FE400
ENDCHAR
STARTCHAR afii10055
ENCODING 1030
SWIDTH 272 0
DWIDTH 5 0
BBX 4 13 1 0
BITMAP
0B
0E
0D
1D
1C
28
38
34
74
B0
A0
E0
D0
ENDCHAR
STARTCHAR afii10056
ENCODING 1031
SWIDTH 272 0
DWIDTH 5 0
BBX 6 16 1 0
BITMAP
2870
2860
0000
0B00
0E00
0D00
1D00
1C00
2800
3800
3400
7400
B000
A000
E000
D000
ENDCHAR
STARTCHAR afii10057
ENCODING 1032
SWIDTH 267 0
DWIDTH 5 0
BBX 8 16 -3 -3
BITMAP
000B
000E
000D
001D
001C
0028
0038
0034
0070
00B0
00A0
00E0
01D0
02C0
5B40
BD00
ENDCHAR
STARTCHAR afii10058
ENCODING 1033
SWIDTH 889 0
DWIDTH 16 0
BBX 16 13 -1 0
BITMAP
000BFF40
000E5B00
001D0A00
002C0E00
00281D00
00341D00
00702FE4
00A02D6E
00D0380B
01C0740B
0380700E
5B40B57C
7900FFE0
ENDCHAR
STARTCHAR afii10059
ENCODING 1034
SWIDTH 901 0
DWIDTH 16 0
BBX 14 13 1 0
BITMAP
0B003400
0E007400
0D007000
1D00A000
1C00E000
2C00D000
3FFFFF80
3956D6E0
740280B0
B0038070
A00340B0
E00756D0
D00BFE40
ENDCHAR
STARTCHAR afii10060
ENCODING 1035
SWIDTH 666 0
DWIDTH 12 0
BBX 10 13 1 0
BITMAP
7FFF80
16D540
028000
038000
074000
07FF80
0B56D0
0A00E0
0D00E0
1D00D0
1C01D0
2C01C0
3802C0
ENDCHAR
STARTCHAR afii10061
ENCODING 1036
SWIDTH 559 0
DWIDTH 10 0
BBX 11 17 1 0
BITMAP
000380
000B00
001800
000000
0B00B4
0E02D0
0D0B40
1D2D00
1CB400
2AD000
3F4000
368000
75D000
B0B000
A03800
E01D00
D00B00
ENDCHAR
STARTCHAR uni040D
ENCODING 1037
SWIDTH 696 0
DWIDTH 13 0
BBX 12 17 1 0
BITMAP
003800
001C00
000A00
000000
0A001E
0E007D
0D00EC
1D02AC
1C0B28
281D34
383434
34A070
72C0B0
B740A0
BD00D0
F801D0
F001C0
ENDCHAR
STARTCHAR afii10062
ENCODING 1038
SWIDTH 571 0
DWIDTH 10 0
BBX 12 17 0 0
BITMAP
00D034
00A1B0
006F80
000000
0E000E
0A002C
070074
0340A0
0281D0
01C380
01DB00
00ED00
00B800
00B000
01D000
9B8000
F90000
ENDCHAR
STARTCHAR afii10145
ENCODING 1039
SWIDTH 679 0
DWIDTH 12 0
BBX 12 16 1 -3
BITMAP
0B001D
0E002C
0D0028
1D0038
1C0034
2C0070
3800B0
3400A0
7400E0
B001D0
A001C0
E556C0
FFFF80
028000
038000
034000
ENDCHAR
STARTCHAR afii10017
ENCODING 1040
SWIDTH 555 0
DWIDTH 10 0
BBX 10 13 -1 0
BITMAP
000780
000B80
001EC0
0035C0
0071C0
00D1D0
0280D0
03FFD0
0A55E0
0D00A0
2800A0
7400B0
B00070
ENDCHAR
STARTCHAR afii10018
ENCODING 1041
SWIDTH 563 0
DWIDTH 10 0
BBX 9 13 1 0
BITMAP
0BFFC0
0A5540
0E0000
1D0000
1C0000
2C0000
3FF800
396E00
740B00
700B00
B00E00
E57D00
FFE000
ENDCHAR
STARTCHAR afii10019
ENCODING 1042
SWIDTH 598 0
DWIDTH 11 0
BBX 10 13 1 0
BITMAP
0BFE40
0E57C0
0D01D0
1D00E0
1C01D0
2C0780
3FFD00
395B00
740380
B00380
A00740
E56E00
FFE400
ENDCHAR
STARTCHAR afii10020
ENCODING 1043
SWIDTH 476 0
DWIDTH 9 0
BBX 9 13 1 0
BITMAP
0BFFC0
0E5540
0D0000
1D0000
1C0000
2C0000
380000
340000
740000
B00000
A00000
E00000
D00000
ENDCHAR
STARTCHAR afii10021
ENCODING 1044
SWIDTH 621 0
DWIDTH 11 0
BBX 13 16 -2 -3
BITMAP
0000FFC0
0001D780
00028380
00074340
000B0700
000D0B00
002C0A00
00380E00
00B01D00
01D01C00
02802C00
1B957900
2FFFFF00
34000B00
34000A00
70000D00
ENDCHAR
STARTCHAR afii10022
ENCODING 1045
SWIDTH 511 0
DWIDTH 9 0
BBX 9 13 1 0
BITMAP
0BFFC0
0E5540
0D0000
1D0000
1C0000
2C0000
3FFD00
395400
740000
B00000
A00000
E55000
FFF400
ENDCHAR
STARTCHAR afii10024
ENCODING 1046
SWIDTH 775 0
DWIDTH 14 0
BBX 17 13 -1 0
BITMAP
0280340B40
01D0742D00
00A0707400
0074A1D000
002CE78000
001DEE0000
001FFC0000
003ADD0000
00F28E0000
02C3474000
0B47438000
2D0701D000
740B00E000
ENDCHAR
STARTCHAR afii10025
ENCODING 1047
SWIDTH 532 0
DWIDTH 10 0
BBX 10 13 0 0
BITMAP
02BE00
0B57C0
0001D0
0001D0
0002C0
001B40
0BF800
055E00
000740
000380
000740
E56E00
6FE400
ENDCHAR
STARTCHAR afii10026
ENCODING 1048
SWIDTH 696 0
DWIDTH 13 0
BBX 12 13 1 0
BITMAP
0A001E
0E007D
0D00EC
1D02AC
1C0B28
281D34
383434
34A070
72C0B0
B740A0
BD00D0
F801D0
F001C0
ENDCHAR
STARTCHAR afii10027
ENCODING 1049
SWIDTH 696 0
DWIDTH 13 0
BBX 12 17 1 0
BITMAP
00A034
00A4B0
002F90
000000
0A001E
0E007D
0D00EC
1D02AC
1C0B28
281D34
383434
34A070
72C0B0
B740A0
BD00D0
F801D0
F001C0
ENDCHAR
STARTCHAR afii10028
ENCODING 1050
SWIDTH 559 0
DWIDTH 10 0
BBX 11 13 1 0
BITMAP
0B00B4
0E02D0
0D0B40
1D2D00
1CB400
2AD000
3F4000
368000
75D000
B0B000
A03800
E01D00
D00B00
ENDCHAR
STARTCHAR afii10029
ENCODING 1051
SWIDTH 644 0
DWIDTH 12 0
BBX 13 13 -1 0
BITMAP
000BFF80
000E5740
001D0700
002C0B00
00280A00
00340E00
00701D00
00A01C00
00D02C00
01C03800
03803400
5B407400
79007000
ENDCHAR
STARTCHAR afii10030
ENCODING 1052
SWIDTH 836 0
DWIDTH 15 0
BBX 14 13 1 0
BITMAP
0B8001F0
0F8003E0
0EC00AE0
1DC00DD0
1CC029D0
28D076C0
38D0A280
34A1C380
70A28340
B0A70740
A07D0B00
D07C0A00
D0340E00
ENDCHAR
STARTCHAR afii10031
ENCODING 1053
SWIDTH 678 0
DWIDTH 12 0
BBX 11 13 1 0
BITMAP
0B001C
0E002C
0D0028
1D0038
1C0034
2C0070
3FFFF0
3955E0
7400D0
B000D0
A001C0
E002C0
D00280
ENDCHAR
STARTCHAR afii10032
ENCODING 1054
SWIDTH 720 0
DWIDTH 13 0
BBX 12 13 1 0
BITMAP
00BF90
03E5F4
0F003C
2C001D
38001D
74001D
B0001D
B0002C
B00038
B00074
7801E0
2E5BC0
06F900
ENDCHAR
STARTCHAR afii10033
ENCODING 1055
SWIDTH 679 0
DWIDTH 12 0
BBX 12 13 1 0
BITMAP
0BFFFD
0E556C
0D0028
1D0038
1C0034
280070
3800B0
3400A0
7400E0
B001D0
A001C0
E002C0
D00380
ENDCHAR
STARTCHAR afii10034
ENCODING 1056
SWIDTH 565 0
DWIDTH 10 0
BBX 9 13 1 0
BITMAP
0BFE00
0E5B80
0D02C0
1D01C0
1C02C0
2C0380
381B40
3FF900
754000
B00000
A00000
E00000
D00000
ENDCHAR
STARTCHAR afii10035
ENCODING 1057
SWIDTH 584 0
DWIDTH 11 0
BBX 10 13 1 0
BITMAP
006FE0
02E5A0
0B4000
1D0000
380000
740000
B00000
B00000
B00000
B00000
780000
2E5600
06FE00
ENDCHAR
STARTCHAR afii10036
ENCODING 1058
SWIDTH 498 0
DWIDTH 9 0
BBX 10 13 1 0
BITMAP
7FFFD0
15E540
00D000
01D000
01C000
02C000
038000
034000
074000
0B0000
0A0000
0E0000
0D0000
ENDCHAR
STARTCHAR afii10037
ENCODING 1059
SWIDTH 571 0
DWIDTH 10 0
BBX 12 13 0 0
BITMAP
0E000E
0A002C
070074
0340A0
0281D0
01C380
01DB00
00ED00
00B800
00B000
01D000
9B8000
F90000
ENDCHAR
STARTCHAR afii10038
ENCODING 1060
SWIDTH 744 0
DWIDTH 13 0
BBX 12 13 1 0
BITMAP
000700
000B00
01BFE0
1F9E7C
381D0E
741C0A
B02C0A
B0380E
B0342C
7975B4
1FFF90
00E400
00E000
ENDCHAR
STARTCHAR afii10039
ENCODING 1061
SWIDTH 519 0
DWIDTH 9 0
BBX 12 13 -1 0
BITMAP
02801D
01C038
00D0A0
00A2C0
007740
003D00
003C00
00AD00
02CA00
074700
0E0380
2802C0
B001D0
ENDCHAR
STARTCHAR afii10040
ENCODING 1062
SWIDTH 665 0
DWIDTH 12 0
BBX 11 16 1 -3
BITMAP
0B002C
0E0028
0D0038
1D0074
1C0070
2800B0
3800E0
3400D0
7401D0
B001C0
A00280
E55790
FFFFF0
0000A0
0000D0
0001C0
ENDCHAR
STARTCHAR afii10041
ENCODING 1063
SWIDTH 639 0
DWIDTH 12 0
BBX 10 13 2 0
BITMAP
2800D0
3801D0
7401C0
7002C0
B00380
A00340
B41B40
7FFF00
054A00
000E00
000D00
001D00
002C00
ENDCHAR
STARTCHAR afii10042
ENCODING 1064
SWIDTH 955 0
DWIDTH 17 0
BBX 17 13 1 0
BITMAP
0B00700740
0E00A00B00
0D00E00A00
1D00D00E00
1C01D00D00
2802C01C00
3802802C00
3403802800
7403403800
B007007400
A00B007000
E55B55B000
FFFFFFE000
ENDCHAR
STARTCHAR afii10043
ENCODING 1065
SWIDTH 957 0
DWIDTH 17 0
BBX 17 16 1 -3
BITMAP
0B00700740
0E00A00B00
0D00E00A00
1D00D00E00
1C01D00D00
2802C01C00
3802802C00
3403802800
7403403800
B007007400
A00B007000
E55B55B400
FFFFFFFC00
0000002C00
0000002800
0000003400
ENDCHAR
STARTCHAR afii10044
ENCODING 1066
SWIDTH 625 0
DWIDTH 11 0
BBX 9 13 1 0
BITMAP
7FD000
16C000
028000
038000
074000
074000
0BFE00
0A5780
0E01C0
1D01C0
1C02C0
2D5B40
3FF900
ENDCHAR
STARTCHAR afii10045
ENCODING 1067
SWIDTH 786 0
DWIDTH 14 0
BBX 13 13 1 0
BITMAP
0B0001C0
0E0002C0
0D000280
1D000380
1C000740
2C000700
3FE40B00
396D0A00
740A0D00
B00B1D00
A00E1C00
E57C2800
FFE03800
ENDCHAR
STARTCHAR afii10046
ENCODING 1068
SWIDTH 554 0
DWIDTH 10 0
BBX 8 13 1 0
BITMAP
0B00
0E00
0D00
1D00
1C00
2C00
3FE4
396D
740A
B00B
A00E
E57C
FFE0
ENDCHAR
STARTCHAR afii10047
ENCODING 1069
SWIDTH 584 0
DWIDTH 11 0
BBX 10 13 0 0
BITMAP
06FE00
0A5BC0
0001E0
0000F0
0000B0
0000B0
03FFE0
0155E0
0000D0
0002C0
000740
A56D00
6FE400
ENDCHAR
STARTCHAR afii10048
ENCODING 1070
SWIDTH 979 0
DWIDTH 18 0
BBX 16 13 1 0
BITMAP
0B002FE0
0E00F9BC
0D03801E
1D0B000B
1C0E000B
2C1D000B
3FFC000B
396C000E
742C000D
B02C002C
A01E0078
E00B96E0
D001BE40
ENDCHAR
STARTCHAR afii10049
ENCODING 1071
SWIDTH 568 0
DWIDTH 10 0
BBX 12 13 -1 0
BITMAP
002FFD
00F96C
02C028
028038
02C034
01E074
00BFF0
00B5E0
01D0E0
0781D0
0B01C0
2D02C0
780280
ENDCHAR
STARTCHAR afii10065
ENCODING 1072
SWIDTH 564 0
DWIDTH 10 0
BBX 9 10 1 0
BITMAP
06E580
1E5E80
380B40
B00700
E00B00
D00E00
D01E00
D03D00
B5EC00
2E5C00
ENDCHAR
STARTCHAR afii10066
ENCODING 1073
SWIDTH 541 0
DWIDTH 10 0
BBX 10 14 1 0
BITMAP
001AD0
02FA40
0B4000
1D0000
380000
76F800
BE5D00
F40A00
E00A00
D00A00
D00D00
E02C00
75B400
2F9000
ENDCHAR
STARTCHAR afii10067
ENCODING 1074
SWIDTH 538 0
DWIDTH 10 0
BBX 8 10 1 0
BITMAP
06F9
2E5B
7407
A01E
FFF4
E56C
D00D
E00D
796C
1FE0
ENDCHAR
STARTCHAR afii10068
ENCODING 1075
SWIDTH 457 0
DWIDTH 8 0
BBX 8 10 0 0
BITMAP
0AF8
095E
000E
002D
02F4
1E40
7400
7000
7964
1FE4
ENDCHAR
STARTCHAR afii10069
ENCODING 1076
SWIDTH 562 0
DWIDTH 10 0
BBX 9 14 1 0
BITMAP
06F800
055E00
000B00
000740
000340
07E740
2D5F40
740B40
A00700
E00A00
D00D00
E02C00
B5B400
2F9000
ENDCHAR
STARTCHAR afii10070
ENCODING 1077
SWIDTH 493 0
DWIDTH 9 0
BBX 8 10 1 0
BITMAP
06F4
1E6D
341D
B078
FFE0
E400
D000
E000
B964
2FE0
ENDCHAR
STARTCHAR afii10072
ENCODING 1078
SWIDTH 833 0
DWIDTH 15 0
BBX 17 10 -1 0
BITMAP
0B90702F40
05B070F500
0034A2D000
0038D38000
003FFF4000
0035D70000
0071C70000
00E2874000
1783439400
7E0341B800
ENDCHAR
STARTCHAR afii10073
ENCODING 1079
SWIDTH 436 0
DWIDTH 8 0
BBX 8 10 0 0
BITMAP
1BF4
196D
000D
002C
0BE0
0574
0028
0038
95B4
BF90
ENDCHAR
STARTCHAR afii10074
ENCODING 1080
SWIDTH 577 0
DWIDTH 10 0
BBX 9 10 1 0
BITMAP
2C0280
380380
340340
740700
700B00
A00E00
E01E00
E03D00
B5EC00
6E5C00
ENDCHAR
STARTCHAR afii10075
ENCODING 1081
SWIDTH 577 0
DWIDTH 10 0
BBX 9 14 1 0
BITMAP
070280
074740
02F900
000000
2C0280
380380
340340
740700
700B00
A00E00
E01E00
E03D00
B5EC00
6E5C00
ENDCHAR
STARTCHAR afii10076
ENCODING 1082
SWIDTH 477 0
DWIDTH 9 0
BBX 9 10 0 0
BITMAP
0B02C0
0A0B00
0E2C00
0DB000
1EC000
2EC000
28E000
387400
742C00
701E00
ENDCHAR
STARTCHAR afii10077
ENCODING 1083
SWIDTH 537 0
DWIDTH 10 0
BBX 10 10 -1 0
BITMAP
001BE0
0039A0
00A0E0
00D0D0
01C1D0
0281C0
074280
0B0380
6D0340
B40700
ENDCHAR
STARTCHAR afii10078
ENCODING 1084
SWIDTH 689 0
DWIDTH 12 0
BBX 12 10 0 0
BITMAP
0B401E
0B402E
0F807D
0E80DC
1DC19C
28C368
28DA28
349C34
30B870
707070
ENDCHAR
STARTCHAR afii10079
ENCODING 1085
SWIDTH 599 0
DWIDTH 11 0
BBX 10 10 0 0
BITMAP
0B0070
0A00B0
0E00A0
0D00E0
1FFFD0
2D56C0
2802C0
340280
740340
700740
ENDCHAR
STARTCHAR afii10080
ENCODING 1086
SWIDTH 561 0
DWIDTH 10 0
BBX 9 10 1 0
BITMAP
06F800
1E5E00
740B00
B00740
E00740
D00B00
D00A00
E01D00
757800
1F9000
ENDCHAR
STARTCHAR afii10081
ENCODING 1087
SWIDTH 577 0
DWIDTH 10 0
BBX 10 10 0 0
BITMAP
0A2F40
0AA6D0
0F40D0
0E01D0
1D01C0
2C02C0
280380
380340
740740
700700
ENDCHAR
STARTCHAR afii10082
ENCODING 1088
SWIDTH 577 0
DWIDTH 10 0
BBX 11 14 -1 -4
BITMAP
028BD0
02A9B0
03D034
038034
074034
0B0074
0A00B0
0F01D0
1E9780
1CBE00
280000
380000
340000
740000
ENDCHAR
STARTCHAR afii10083
ENCODING 1089
SWIDTH 450 0
DWIDTH 8 0
BBX 7 10 1 0
BITMAP
06F8
1E58
3800
B000
E000
D000
D000
E000
B960
1FE0
ENDCHAR
STARTCHAR afii10084
ENCODING 1090
SWIDTH 872 0
DWIDTH 16 0
BBX 15 10 0 0
BITMAP
0A2F46E0
0A969978
0F41E028
0E02D038
1D028034
2C038074
280340B0
380700A0
740B00E0
700A00D0
ENDCHAR
STARTCHAR afii10085
ENCODING 1091
SWIDTH 461 0
DWIDTH 8 0
BBX 11 14 -2 -4
BITMAP
03402C
038074
0280A0
0281D0
01C280
01C740
01CA00
00DC00
00F800
00B000
00D000
02C000
5B4000
B90000
ENDCHAR
STARTCHAR afii10086
ENCODING 1092
SWIDTH 663 0
DWIDTH 12 0
BBX 10 18 1 -4
BITMAP
000D00
000D00
001C00
002800
06FE40
1E7AD0
7874B0
B07070
E0A070
D0A0B0
D0D0E0
E1C2C0
7ADB40
1BF800
034000
034000
070000
0A0000
ENDCHAR
STARTCHAR afii10087
ENCODING 1093
SWIDTH 478 0
DWIDTH 9 0
BBX 10 10 -1 0
BITMAP
0700E0
038280
01CB00
00ED00
00B400
00F400
02A800
0B1D00
1D0E00
740700
ENDCHAR
STARTCHAR afii10088
ENCODING 1094
SWIDTH 595 0
DWIDTH 11 0
BBX 9 13 1 -3
BITMAP
2C0280
380380
340340
740700
700B00
A00E00
E01D00
E03D00
B5EE00
6E4B40
000740
000B00
000A00
ENDCHAR
STARTCHAR afii10089
ENCODING 1095
SWIDTH 555 0
DWIDTH 10 0
BBX 9 10 1 0
BITMAP
340340
740700
700B00
B01E00
B47E00
3FDD00
041C00
002C00
002800
003800
ENDCHAR
STARTCHAR afii10090
ENCODING 1096
SWIDTH 872 0
DWIDTH 16 0
BBX 14 10 1 0
BITMAP
2C034070
380740B0
340700E0
740A00D0
700E01D0
A00D02C0
E02D0380
D07C0B80
E5DE6B40
7E07D340
ENDCHAR
STARTCHAR afii10091
ENCODING 1097
SWIDTH 890 0
DWIDTH 16 0
BBX 14 13 1 -3
BITMAP
2C034070
380740B0
340700E0
740B00D0
700E01D0
A00D02C0
E02D0380
D07C0B80
E5DE6B90
7E07D1E0
000000E0
000001D0
000001C0
ENDCHAR
STARTCHAR afii10092
ENCODING 1098
SWIDTH 591 0
DWIDTH 11 0
BBX 9 10 1 0
BITMAP
FF4000
574000
070000
0A0000
0FFD00
0E5B40
1D0340
1D0340
0E5B00
06F800
ENDCHAR
STARTCHAR afii10093
ENCODING 1099
SWIDTH 721 0
DWIDTH 13 0
BBX 12 10 1 0
BITMAP
2C000D
38001C
34002C
740028
7BE038
B57874
A02C70
A028B0
B5B4A0
2F90D0
ENDCHAR
STARTCHAR afii10094
ENCODING 1100
SWIDTH 519 0
DWIDTH 9 0
BBX 7 10 1 0
BITMAP
2C00
3800
3400
7400
7BE4
B56C
A01C
A01C
B578
2FD0
ENDCHAR
STARTCHAR afii10095
ENCODING 1101
SWIDTH 456 0
DWIDTH 8 0
BBX 8 10 0 0
BITMAP
2FE0
1578
001C
001D
1FFD
056D
002C
0078
95E0
BF80
ENDCHAR
STARTCHAR afii10096
ENCODING 1102
SWIDTH 780 0
DWIDTH 14 0
BBX 13 10 0 0
BITMAP
0B01BE00
0A079780
0E0E02C0
0D1C01C0
1FFC01C0
2D7802C0
28280380
342C0740
741E5E00
7006F400
ENDCHAR
STARTCHAR afii10097
ENCODING 1103
SWIDTH 526 0
DWIDTH 9 0
BBX 10 10 -1 0
BITMAP
00BFE0
0395E0
0700D0
0701D0
0741C0
01FF80
02D780
0B0340
1E0740
780700
ENDCHAR
STARTCHAR uni0450
ENCODING 1104
SWIDTH 493 0
DWIDTH 9 0
BBX 8 14 1 0
BITMAP
0740
0280
00D0
0000
06F4
1E6D
341D
B078
FFE0
E400
D000
E000
B964
2FE0
ENDCHAR
STARTCHAR afii10071
ENCODING 1105
SWIDTH 493 0
DWIDTH 9 0
BBX 8 13 1 0
BITMAP
030D
070D
0000
06F4
1E6D
341D
B078
FFE0
E400
D000
E000
B964
2FE0
ENDCHAR
STARTCHAR afii10099
ENCODING 1106
SWIDTH 577 0
DWIDTH 10 0
BBX 10 18 0 -4
BITMAP
028000
038000
1FFD00
074000
072F40
0AE6C0
0F41D0
0E01D0
1D02C0
2C0280
280380
340340
340700
700B00
000A00
000D00
006C00
01F400
ENDCHAR
STARTCHAR afii10100
ENCODING 1107
SWIDTH 457 0
DWIDTH 8 0
BBX 9 14 0 0
BITMAP
000B40
001D00
003400
000000
0AF800
095E00
000E00
002D00
02F400
1E4000
740000
700000
796400
1FE400
ENDCHAR
STARTCHAR afii10101
ENCODING 1108
SWIDTH 450 0
DWIDTH 8 0
BBX 7 10 1 0
BITMAP
06F8
1E58
3800
B000
FFE0
E540
D000
E000
B960
1FE0
ENDCHAR
STARTCHAR afii10102
ENCODING 1109
SWIDTH 428 0
DWIDTH 8 0
BBX 7 10 0 0
BITMAP
07F8
1D58
2800
2D00
0F40
02E0
0074
0034
95B0
BF90
ENDCHAR
STARTCHAR afii10103
ENCODING 1110
SWIDTH 253 0
DWIDTH 5 0
BBX 5 14 0 0
BITMAP
0280
0240
0000
0000
0B00
0A00
0E00
0D00
1C00
2C00
2800
3800
7400
7000
ENDCHAR
STARTCHAR afii10104
ENCODING 1111
SWIDTH 253 0
DWIDTH 5 0
BBX 6 13 0 0
BITMAP
1870
1870
0000
0B00
0A00
0E00
0D00
1C00
2C00
2800
3800
7400
7000
ENDCHAR
STARTCHAR afii10105
ENCODING 1112
SWIDTH 253 0
DWIDTH 5 0
BBX 8 18 -3 -4
BITMAP
000A
0009
0000
0000
002C
0028
0038
0074
0070
00B0
00A0
00D0
01D0
01C0
0280
0380
1B40
7D00
ENDCHAR
STARTCHAR afii10106
ENCODING 1113
SWIDTH 762 0
DWIDTH 14 0
BBX 14 10 -1 0
BITMAP
001FD000
0079D000
00A1C000
00D2C000
01C2FF80
028396D0
074340E0
0B0340D0
6D0396C0
B401BE40
ENDCHAR
STARTCHAR afii10107
ENCODING 1114
SWIDTH 812 0
DWIDTH 15 0
BBX 14 10 0 0
BITMAP
0B00D000
0A01D000
0E02C000
0D028000
1FFFFF40
2D5796D0
280740D0
340740D0
740396C0
7001BE00
ENDCHAR
STARTCHAR afii10108
ENCODING 1115
SWIDTH 577 0
DWIDTH 10 0
BBX 10 14 0 0
BITMAP
028000
038000
1FFD00
074000
072F40
0AA6C0
0F41D0
0E01D0
1D01C0
2C0280
280380
340340
340740
700700
ENDCHAR
STARTCHAR afii10109
ENCODING 1116
SWIDTH 477 0
DWIDTH 9 0
BBX 9 14 0 0
BITMAP
000380
000A00
002800
000000
0B02C0
0A0B00
0E2C00
0DB000
1EC000
2EC000
28E000
387400
742C00
701E00
ENDCHAR
STARTCHAR uni045D
ENCODING 1117
SWIDTH 577 0
DWIDTH 10 0
BBX 9 14 1 0
BITMAP
02C000
01D000
006000
000000
2C0280
380380
340340
740700
700B00
A00E00
E01E00
E03D00
B5EC00
6E5C00
ENDCHAR
STARTCHAR afii10110
ENCODING 1118
SWIDTH 461 0
DWIDTH 8 0
BBX 11 18 -2 -4
BITMAP
006028
007474
002F90
000000
03402C
038074
0280A0
0281D0
01C280
01C740
01CA00
00DC00
00F800
00B000
00D000
02C000
5B4000
B90000
ENDCHAR
STARTCHAR afii10193
ENCODING 1119
SWIDTH 577 0
DWIDTH 10 0
BBX 9 14 1 -4
BITMAP
2C0280
380380
340340
740700
700B00
A00E00
E01E00
E03D00
B5EC00
6E5C00
070000
0A0000
0E0000
0D0000
ENDCHAR
STARTCHAR uni0460
ENCODING 1120
SWIDTH 953 0
DWIDTH 17 0
BBX 16 13 1 0
BITMAP
01BE0BE4
079A0A7C
0E00001D
2C00000E
3800000E
7400000D
7000001D
B003402C
B0074038
B00B0074
740F01E0
3D6F9B80
1BE1BE00
ENDCHAR
STARTCHAR uni0461
ENCODING 1121
SWIDTH 717 0
DWIDTH 13 0
BBX 12 10 1 0
BITMAP
D07007
E0700B
A0340E
A0341D
B0342C
70B834
71E8B0
7769D0
3A1F80
3D1E00
ENDCHAR
STARTCHAR uni0462
ENCODING 1122
SWIDTH 619 0
DWIDTH 11 0
BBX 9 14 1 0
BITMAP
01D000
01C000
02C000
7FFF00
579500
074000
07FD00
0A5B80
0E02C0
0D02C0
1C02C0
2C0780
2D6F00
3FE400
ENDCHAR
STARTCHAR uni0463
ENCODING 1123
SWIDTH 551 0
DWIDTH 10 0
BBX 8 12 1 0
BITMAP
0B00
0E00
FFF0
5D50
1C00
2800
3FF8
395E
740A
740A
396D
1BE4
ENDCHAR
STARTCHAR uni0464
ENCODING 1124
SWIDTH 860 0
DWIDTH 16 0
BBX 15 13 1 0
BITMAP
0B001BF8
0E00B968
0D02D000
1D074000
1C0B0000
2C1D0000
3FFFFF80
396D5540
742C0000
B02C0000
A01E0000
E00B9580
D002FF80
ENDCHAR
STARTCHAR uni0465
ENCODING 1125
SWIDTH 687 0
DWIDTH 12 0
BBX 13 10 0 0
BITMAP
0B01BE40
0A079500
0E0E0000
0D1C0000
1FFFFC00
2D795400
28280000
342C0000
741E5800
7006F800
ENDCHAR
STARTCHAR uni0466
ENCODING 1126
SWIDTH 601 0
DWIDTH 11 0
BBX 11 13 -1 0
BITMAP
0002C0
0007C0
000ED0
0028D0
0034A0
00BFE0
01DEB0
024D70
071C34
0D1C34
2C2838
743828
A0342C
ENDCHAR
STARTCHAR uni0467
ENCODING 1127
SWIDTH 528 0
DWIDTH 10 0
BBX 10 10 -1 0
BITMAP
001E00
003B00
00A700
00D340
02FF40
077680
0A7280
1C71C0
34A1C0
B0A1D0
ENDCHAR
STARTCHAR uni0468
ENCODING 1128
SWIDTH 840 0
DWIDTH 15 0
BBX 14 13 1 0
BITMAP
0B001D00
0E003D00
0D00BA00
1D00DA00
1C02CB00
2C034700
3FFFFF40
396DA740
7438A380
B0B0D280
A1D1C2C0
E282C1C0
D74281D0
ENDCHAR
STARTCHAR uni0469
ENCODING 1129
SWIDTH 721 0
DWIDTH 13 0
BBX 12 10 0 0
BITMAP
0B00F4
0A02B4
0E0768
0D0A28
1FFFFC
2D7A9C
28B29D
38D34D
76C74E
77470A
ENDCHAR
STARTCHAR uni046A
ENCODING 1130
SWIDTH 660 0
DWIDTH 12 0
BBX 14 13 -1 0
BITMAP
00FFFFD0
00E55780
00B00B00
00342C00
002C7400
000ED000
00BFF400
02DB2D00
070A0D00
0E0E0E00
1C1D0E00
381C0E00
702C0A00
ENDCHAR
STARTCHAR uni046B
ENCODING 1131
SWIDTH 603 0
DWIDTH 11 0
BBX 12 10 -1 0
BITMAP
02FFFD
02D578
00E0E0
007780
01FFD0
0B6CB0
1D2870
283434
743434
B07038
ENDCHAR
STARTCHAR uni046C
ENCODING 1132
SWIDTH 915 0
DWIDTH 16 0
BBX 16 13 1 0
BITMAP
0B07FFFE
0E07556D
0D038074
1D02C0E0
1C00D380
2C00BB00
3FFFFF80
396E79E0
743874B0
B0707070
A0E0A070
E1C0E070
D380D074
ENDCHAR
STARTCHAR uni046D
ENCODING 1133
SWIDTH 800 0
DWIDTH 14 0
BBX 14 10 0 0
BITMAP
0B0FFFF0
0A0A56D0
0E074740
0D029D00
1FFFFE00
2D78E340
28B0D280
38D1C1C0
76C1C1C0
778281D0
ENDCHAR
STARTCHAR uni046E
ENCODING 1134
SWIDTH 532 0
DWIDTH 10 0
BBX 11 19 -1 -4
BITMAP
0028B4
000F80
00AF90
0295F0
000074
000074
0000B0
0006D0
02FE00
015780
0001D0
0000E0
0002D0
016B80
2FF900
740000
B55500
2FFF00
000100
ENDCHAR
STARTCHAR uni046F
ENCODING 1135
SWIDTH 446 0
DWIDTH 8 0
BBX 9 16 -1 -4
BITMAP
01D6C0
007D00
02FE00
025740
000340
000B00
01F800
005E00
000B00
000A00
006D00
2FA000
B40000
A00000
7FFC00
055000
ENDCHAR
STARTCHAR uni0470
ENCODING 1136
SWIDTH 734 0
DWIDTH 13 0
BBX 13 13 1 0
BITMAP
1C0702C0
2C0B0280
280E0380
380D0740
341D0740
741C0B00
342C1E00
2D387C00
0BFFE000
00B50000
00B00000
00A00000
00E00000
ENDCHAR
STARTCHAR uni0471
ENCODING 1137
SWIDTH 713 0
DWIDTH 13 0
BBX 11 18 1 -4
BITMAP
000B00
000A00
000D00
001D00
281C1C
382C1C
34281C
74342C
707428
A07038
A0A074
B0E1E0
79EB80
1BF900
01C000
028000
038000
034000
ENDCHAR
STARTCHAR uni0472
ENCODING 1138
SWIDTH 720 0
DWIDTH 13 0
BBX 12 13 1 0
BITMAP
00BF90
03E5F4
0F003C
2D001D
38001D
74001D
BFFFFD
B5556C
B00028
B00074
7801E0
2E5BC0
06F900
ENDCHAR
STARTCHAR uni0473
ENCODING 1139
SWIDTH 561 0
DWIDTH 10 0
BBX 9 10 1 0
BITMAP
06F800
1E5E00
740700
B00740
FFFF00
E55B00
D00E00
E01D00
79B800
1F9000
ENDCHAR
STARTCHAR uni0474
ENCODING 1140
SWIDTH 559 0
DWIDTH 10 0
BBX 11 13 1 0
BITMAP
74007C
7401E4
340280
380740
380A00
281D00
282800
2C7400
1CB000
1DD000
1EC000
0F4000
0F0000
ENDCHAR
STARTCHAR uni0475
ENCODING 1141
SWIDTH 439 0
DWIDTH 8 0
BBX 9 10 1 0
BITMAP
D00B40
D02C00
E03400
A0B000
A0D000
B1C000
728000
770000
7A0000
3D0000
ENDCHAR
STARTCHAR uni0476
ENCODING 1142
SWIDTH 559 0
DWIDTH 10 0
BBX 11 17 1 0
BITMAP
1D3800
0B1C00
024900
000000
74007C
7401E4
340280
380740
380A00
281D00
282800
2C7400
1CB000
1DD000
1EC000
0F4000
0F0000
ENDCHAR
STARTCHAR uni0477
ENCODING 1143
SWIDTH 439 0
DWIDTH 8 0
BBX 9 14 1 0
BITMAP
B2C000
34D000
1C7000
000000
D00B40
D02C00
E03400
A0B000
A0D000
B1C000
728000
770000
7A0000
3D0000
ENDCHAR
STARTCHAR uni0478
ENCODING 1144
SWIDTH 1184 0
DWIDTH 21 0
BBX 21 17 1 -4
BITMAP
00BF90000000
03E5F4000000
0F003C000000
2C001D3402C0
38001D380740
74001D280A00
B0001D281D00
B0002C1C2800
B000381C7400
B000741CA000
7801E00DC000
2E5BC00F8000
06F9000B0000
0000000D0000
0000002C0000
000005B40000
00000B900000
ENDCHAR
STARTCHAR uni0479
ENCODING 1145
SWIDTH 1003 0
DWIDTH 18 0
BBX 18 14 1 -4
BITMAP
06F81C00E0
1E5E1D01C0
740B0D0380
B0074E0B00
E0074A0D00
D00B0A2C00
D00A073400
E01D07B000
757803D000
1F90038000
0000074000
00000E0000
00016C0000
0003E00000
ENDCHAR
STARTCHAR uni047A
ENCODING 1146
SWIDTH 738 0
DWIDTH 13 0
BBX 12 15 1 -1
BITMAP
000B40
00BFE0
07DFB8
0E002D
2C000E
38000E
74000E
B0000E
B0000D
B0001D
B00038
7800B4
2EF6D0
07FE40
01E000
ENDCHAR
STARTCHAR uni047B
ENCODING 1147
SWIDTH 578 0
DWIDTH 10 0
BBX 9 12 1 -1
BITMAP
00A000
07F900
2D9B00
740740
B00340
E00340
D00740
D00B00
E00E00
B6AC00
2FE000
074000
ENDCHAR
STARTCHAR uni047C
ENCODING 1148
SWIDTH 953 0
DWIDTH 17 0
BBX 16 18 1 0
BITMAP
0001FE80
00027980
00002800
00006000
00000000
01BE0BE4
079A0A7C
0E00001D
2C00000E
3800000E
7400000D
7000001D
B000002C
B0000038
B0000074
740401E0
3D6F5B80
1BE6FE00
ENDCHAR
STARTCHAR uni047D
ENCODING 1149
SWIDTH 758 0
DWIDTH 14 0
BBX 12 16 1 0
BITMAP
002F90
0061B8
000700
000340
000900
000000
0BE1F8
2D515D
74000A
B0000A
E0000A
D0000E
D0001D
E0002C
B5B5B4
2FAF90
ENDCHAR
STARTCHAR uni047E
ENCODING 1150
SWIDTH 953 0
DWIDTH 17 0
BBX 16 16 1 0
BITMAP
000EBBC0
00082140
00000000
01BE0BE4
079A0A7C
0E00001D
2C00000E
3800000E
7400000D
7000001D
B003402C
B0074038
B00B0074
740F01E0
3D6F9B80
1BE1BE00
ENDCHAR
STARTCHAR uni047F
ENCODING 1151
SWIDTH 717 0
DWIDTH 13 0
BBX 12 13 1 0
BITMAP
07BEE0
021450
000000
D07007
E0700B
A0340E
A0341D
B0342C
70B834
71E8B0
7769D0
3A1F80
3D1E00
ENDCHAR
STARTCHAR uni0480
ENCODING 1152
SWIDTH 584 0
DWIDTH 11 0
BBX 10 17 1 -4
BITMAP
006FE0
02E5A0
0B4000
1D0000
380000
740000
B00000
B00000
B00000
B00000
780000
2E5400
06F000
00B000
00A000
00D000
01D000
ENDCHAR
STARTCHAR uni0481
ENCODING 1153
SWIDTH 450 0
DWIDTH 8 0
BBX 7 14 1 -4
BITMAP
06F8
1E58
3800
B000
E000
D000
D000
E000
B940
2FC0
0280
0380
0340
0700
ENDCHAR
STARTCHAR uni0482
ENCODING 1154
SWIDTH 608 0
DWIDTH 11 0
BBX 9 11 1 0
BITMAP
000600
010A00
07EC00
00BD00
00BB80
51D140
BA8000
0B8000
0EB400
2C1400
240000
ENDCHAR
STARTCHAR uni0483
ENCODING 1155
SWIDTH 560 0
DWIDTH 10 0
BBX 7 3 3 10
BITMAP
0028
BFF4
D000
ENDCHAR
STARTCHAR uni0484
ENCODING 1156
SWIDTH 580 0
DWIDTH 10 0
BBX 7 2 3 11
BITMAP
06F4
B91C
ENDCHAR
STARTCHAR uni0485
ENCODING 1157
SWIDTH 580 0
DWIDTH 10 0
BBX 3 3 5 11
BITMAP
74
60
14
ENDCHAR
STARTCHAR uni0486
ENCODING 1158
SWIDTH 580 0
DWIDTH 10 0
BBX 2 3 6 11
BITMAP
E0
60
80
ENDCHAR
STARTCHAR uni0488
ENCODING 1160
SWIDTH 988 0
DWIDTH 18 0
BBX 18 16 0 -3
BITMAP
0001E00000
0002180000
0000000000
0780007D00
0860008200
0000000000
0000000000
2D00000B80
8200001850
0000000000
0000000000
0000000000
0780007D00
0860008200
0001E00000
0002180000
ENDCHAR
STARTCHAR uni0489
ENCODING 1161
SWIDTH 956 0
DWIDTH 17 0
BBX 17 16 0 -3
BITMAP
0000500000
0000D00000
0201C00000
0280006800
0080009000
0000000000
0000000000
A900001900
1900000680
0000000000
0000000000
0080009000
03D0007000
0A00902000
0000C00000
0001800000
ENDCHAR
STARTCHAR uni048A
ENCODING 1162
SWIDTH 703 0
DWIDTH 13 0
BBX 12 20 1 -3
BITMAP
00A034
00A5B0
002F90
000000
0A001E
0E007D
0D00EC
1D02AC
1C0B28
281D34
383434
34A070
72C0B0
B740A0
BD00D0
F801E4
F001F4
000060
0001D0
000380
ENDCHAR
STARTCHAR uni048B
ENCODING 1163
SWIDTH 579 0
DWIDTH 10 0
BBX 9 17 1 -3
BITMAP
070280
074740
01FD00
000000
2C0280
380380
340340
740700
700B00
A00E00
E01E00
E03D00
B5ED00
6E5F00
000A00
000D00
002800
ENDCHAR
STARTCHAR uni048C
ENCODING 1164
SWIDTH 553 0
DWIDTH 10 0
BBX 8 13 1 0
BITMAP
0B00
0A00
7FF4
1E50
1C00
2C00
3FE4
396D
740A
700A
A01E
E5BC
FF90
ENDCHAR
STARTCHAR uni048D
ENCODING 1165
SWIDTH 519 0
DWIDTH 9 0
BBX 7 14 1 0
BITMAP
0A00
0D00
BFE0
2D00
2800
3800
3400
7400
7BE4
B56C
A01C
A01C
B578
2F90
ENDCHAR
STARTCHAR uni048E
ENCODING 1166
SWIDTH 565 0
DWIDTH 10 0
BBX 9 13 1 0
BITMAP
0BFE00
0E5B80
0D02C0
1D01C0
1C01C0
2C6380
383F40
3FFD00
750900
B00000
A00000
E00000
D00000
ENDCHAR
STARTCHAR uni048F
ENCODING 1167
SWIDTH 577 0
DWIDTH 10 0
BBX 11 14 -1 -4
BITMAP
028BD0
02A9B0
03D034
038034
074034
0B0074
0A00B0
0F19D0
1E9F80
1CBF00
2C0240
380000
340000
740000
ENDCHAR
STARTCHAR afii10050
ENCODING 1168
SWIDTH 476 0
DWIDTH 9 0
BBX 10 16 1 0
BITMAP
0000D0
0001C0
0001C0
0BFF80
0E5540
0D0000
1D0000
1C0000
2C0000
380000
340000
740000
B00000
A00000
E00000
D00000
ENDCHAR
STARTCHAR afii10098
ENCODING 1169
SWIDTH 382 0
DWIDTH 7 0
BBX 8 13 0 0
BITMAP
0007
000B
000E
0BFD
0A00
0E00
0D00
1C00
2C00
2800
3800
7400
7000
ENDCHAR
STARTCHAR uni0492
ENCODING 1170
SWIDTH 471 0
DWIDTH 8 0
BBX 9 13 1 0
BITMAP
0BFF80
0E5540
0D0000
1D0000
1C0000
2C0000
FFD000
794000
740000
B00000
A00000
E00000
D00000
ENDCHAR
STARTCHAR uni0493
ENCODING 1171
SWIDTH 382 0
DWIDTH 7 0
BBX 8 10 0 0
BITMAP
0BFD
0A54
0D00
1D00
BFD0
2C00
2800
3400
7400
7000
ENDCHAR
STARTCHAR uni0494
ENCODING 1172
SWIDTH 603 0
DWIDTH 11 0
BBX 9 17 1 -4
BITMAP
0BFFC0
0E5540
0D0000
1D0000
1C0000
280000
3FE400
396D00
740B00
B00740
A00740
E00740
D00B00
000E00
002D00
55F400
BF9000
ENDCHAR
STARTCHAR uni0495
ENCODING 1173
SWIDTH 491 0
DWIDTH 9 0
BBX 8 14 0 -4
BITMAP
0BFE
0A54
0E00
0D00
1FE4
2D7C
281D
340E
740E
700D
001D
0038
25F4
2F90
ENDCHAR
STARTCHAR uni0496
ENCODING 1174
SWIDTH 821 0
DWIDTH 15 0
BBX 17 16 -1 -3
BITMAP
0280340B40
01D0742D00
00A0707400
0074A1D000
002CE78000
001DEE0000
001FFC0000
003ADD0000
00F28E0000
02C3474000
0B47438000
2D0701D400
740B00F800
0000003400
0000007400
0000007000
ENDCHAR
STARTCHAR uni0497
ENCODING 1175
SWIDTH 837 0
DWIDTH 15 0
BBX 17 13 -1 -3
BITMAP
0B90702F40
05B070F500
0034A2D000
0038D38000
003FFF4000
0035D70000
0071C70000
00E2874000
1783439400
7E0340BC00
0000002800
0000003400
0000007400
ENDCHAR
STARTCHAR uni0498
ENCODING 1176
SWIDTH 532 0
DWIDTH 10 0
BBX 10 17 0 -4
BITMAP
02BE00
0B57C0
0001D0
0001D0
0002C0
001B40
0BF800
055E00
000740
000380
000740
E56E00
6FE400
024000
018000
028000
1E4000
ENDCHAR
STARTCHAR uni0499
ENCODING 1177
SWIDTH 436 0
DWIDTH 8 0
BBX 8 14 0 -4
BITMAP
1BF4
196D
000D
002C
0BE0
0574
0028
0038
95B4
BF90
0600
0300
0700
3D00
ENDCHAR
STARTCHAR uni049A
ENCODING 1178
SWIDTH 600 0
DWIDTH 11 0
BBX 11 16 1 -3
BITMAP
0B00B4
0E02D0
0D0B40
1D2D00
1CB400
2AD000
3F4000
368000
75D000
B0B000
A03800
E01E40
D00B80
000340
000740
000700
ENDCHAR
STARTCHAR uni049B
ENCODING 1179
SWIDTH 520 0
DWIDTH 9 0
BBX 9 13 0 -3
BITMAP
0B0280
0A0A00
0E2800
0DA000
1E8000
2E8000
28E000
387400
742900
701F40
000700
000B00
000A00
ENDCHAR
STARTCHAR uni049C
ENCODING 1180
SWIDTH 559 0
DWIDTH 10 0
BBX 11 13 1 0
BITMAP
0B00B4
0E02D0
0DAB40
1DFC00
1CF000
2AC000
3FC000
3AE000
77B000
B33800
A02C00
E01D00
D00B00
ENDCHAR
STARTCHAR uni049D
ENCODING 1181
SWIDTH 475 0
DWIDTH 9 0
BBX 9 10 0 0
BITMAP
0B02C0
0A6B00
0DBC00
1DE000
1EC000
2EC000
29D000
36B000
776800
701D00
ENDCHAR
STARTCHAR uni049E
ENCODING 1182
SWIDTH 557 0
DWIDTH 10 0
BBX 11 13 1 0
BITMAP
0B00B4
0A02D0
7FDB40
2E6D00
1CB400
2AD000
3FD000
38A000
747400
703800
A02C00
E00D00
D00B00
ENDCHAR
STARTCHAR uni049F
ENCODING 1183
SWIDTH 478 0
DWIDTH 9 0
BBX 9 14 0 0
BITMAP
028000
038000
1FF800
074000
070380
0A0A00
0E2800
0DA000
1ED000
2EE000
287400
343800
742C00
700E00
ENDCHAR
STARTCHAR uni04A0
ENCODING 1184
SWIDTH 631 0
DWIDTH 11 0
BBX 12 13 1 0
BITMAP
7FD01E
16C078
0281E0
038780
035E00
077800
0BE000
0AB400
0D3800
1D1D00
1C0B00
2C0380
2801D0
ENDCHAR
STARTCHAR uni04A1
ENCODING 1185
SWIDTH 560 0
DWIDTH 10 0
BBX 10 10 1 0
BITMAP
FF41D0
5B4740
071D00
0A7400
0ED000
0ED000
1CB000
2C3800
281D00
380B00
ENDCHAR
STARTCHAR uni04A2
ENCODING 1186
SWIDTH 676 0
DWIDTH 12 0
BBX 11 16 1 -3
BITMAP
0B001C
0E002C
0D0028
1D0038
1C0034
2C0070
3FFFF0
3955E0
7400D0
B000D0
A001C0
E002D0
D002F0
0000A0
0000A0
0000D0
ENDCHAR
STARTCHAR uni04A3
ENCODING 1187
SWIDTH 599 0
DWIDTH 11 0
BBX 10 13 0 -3
BITMAP
0B0070
0A00B0
0E00A0
0D00E0
1FFFD0
2D56C0
2802C0
340280
740380
7007E0
0001D0
0001C0
0002C0
ENDCHAR
STARTCHAR uni04A4
ENCODING 1188
SWIDTH 754 0
DWIDTH 14 0
BBX 14 13 1 0
BITMAP
0B001FF0
0E002D50
0D002800
1D003800
1C003400
2C007000
3FFFF000
3955E000
7400D000
B000D000
A001C000
E002C000
D0028000
ENDCHAR
STARTCHAR uni04A5
ENCODING 1189
SWIDTH 687 0
DWIDTH 12 0
BBX 14 10 0 0
BITMAP
0B007FD0
0A00B540
0E00A000
0D00E000
1FFFD000
2D56C000
2802C000
34028000
74034000
70074000
ENDCHAR
STARTCHAR uni04A6
ENCODING 1190
SWIDTH 996 0
DWIDTH 18 0
BBX 16 17 1 -4
BITMAP
0BFFFC00
0E557800
0D003800
1D007400
1C007000
2800B000
3800FF90
3400E5B4
7401D02C
B001C01D
A002C01D
E003801D
D003401D
0000003C
000000B4
000156D0
0001FE40
ENDCHAR
STARTCHAR uni04A7
ENCODING 1191
SWIDTH 817 0
DWIDTH 15 0
BBX 14 14 0 -4
BITMAP
0BFFE000
0A55E000
0E00D000
0D01C000
1C02FE00
2C0297C0
280341D0
380340D0
740700D0
700B01D0
000002C0
00000380
00025F00
0002F800
ENDCHAR
STARTCHAR uni04A8
ENCODING 1192
SWIDTH 720 0
DWIDTH 13 0
BBX 12 14 1 -1
BITMAP
00BF80
03E540
0F01A0
2C07F8
380E1D
742C1D
B0381D
B0382C
B03838
B43874
782DE0
2E6F80
06FF94
0001F4
ENDCHAR
STARTCHAR uni04A9
ENCODING 1193
SWIDTH 599 0
DWIDTH 11 0
BBX 9 10 1 0
BITMAP
06F000
2E5000
742F40
B0B780
E0D2C0
D1D280
D1C340
E1DB00
79FD00
1FEF40
ENDCHAR
STARTCHAR uni04AA
ENCODING 1194
SWIDTH 584 0
DWIDTH 11 0
BBX 10 17 1 -4
BITMAP
006FE0
02E5A0
0B4000
1D0000
380000
740000
B00000
B00000
B00000
B00000
780000
2E5600
06FE00
009000
00A000
00A000
078000
ENDCHAR
STARTCHAR uni04AB
ENCODING 1195
SWIDTH 450 0
DWIDTH 8 0
BBX 7 14 1 -4
BITMAP
06F8
1E58
3800
B000
E000
D000
D000
E000
B960
1FE0
0600
0700
0700
3D00
ENDCHAR
STARTCHAR uni04AC
ENCODING 1196
SWIDTH 498 0
DWIDTH 9 0
BBX 10 16 1 -3
BITMAP
7FFFD0
15E540
00D000
01D000
01C000
02C000
038000
034000
074000
0B0000
0A0000
0E4000
0F8000
034000
034000
070000
ENDCHAR
STARTCHAR uni04AD
ENCODING 1197
SWIDTH 884 0
DWIDTH 16 0
BBX 15 13 0 -3
BITMAP
0A2F46E0
0A969978
0F41E038
0E02D038
1D028034
2C038070
280340B0
380700A0
740B00E4
700A007C
00000038
00000034
00000074
ENDCHAR
STARTCHAR uni04AE
ENCODING 1198
SWIDTH 502 0
DWIDTH 9 0
BBX 10 13 1 0
BITMAP
7401D0
340380
280B00
1C1D00
1D3800
0DB000
0AD000
078000
070000
0B0000
0A0000
0E0000
1D0000
ENDCHAR
STARTCHAR uni04AF
ENCODING 1199
SWIDTH 461 0
DWIDTH 8 0
BBX 8 14 1 -4
BITMAP
D00B
E01D
A028
A074
B0E0
72C0
7740
3B00
3D00
3800
3400
7400
7000
B000
ENDCHAR
STARTCHAR uni04B0
ENCODING 1200
SWIDTH 502 0
DWIDTH 9 0
BBX 10 13 1 0
BITMAP
7401D0
340380
280B00
1C1D00
0D3400
0DA000
0AC000
074000
FFF800
5B5000
0E0000
0D0000
1D0000
ENDCHAR
STARTCHAR uni04B1
ENCODING 1201
SWIDTH 461 0
DWIDTH 8 0
BBX 9 14 0 -4
BITMAP
3402C0
380740
280A00
281D00
2C3800
1CB000
1DE000
1EC000
0F4000
0F0000
FFE000
1D0000
1C0000
2C0000
ENDCHAR
STARTCHAR uni04B2
ENCODING 1202
SWIDTH 568 0
DWIDTH 10 0
BBX 12 16 -1 -3
BITMAP
02801D
01C038
00D0A0
00A2C0
007740
003D00
003C00
00AD00
02CA00
074700
0E0340
2802D0
B001F0
000070
0000A0
0000D0
ENDCHAR
STARTCHAR uni04B3
ENCODING 1203
SWIDTH 520 0
DWIDTH 9 0
BBX 10 13 0 -3
BITMAP
0E02D0
070740
034E00
02E800
00F000
02E000
077400
0D2800
381D00
B00F40
000700
000B00
000A00
ENDCHAR
STARTCHAR uni04B4
ENCODING 1204
SWIDTH 776 0
DWIDTH 14 0
BBX 13 16 1 -3
BITMAP
7FFFE2C0
15E54280
00D00380
01D00740
01C00700
02C00B00
03800E00
03400D00
07401D00
0B001C00
0A002C00
0E557900
0FFFFF00
00000A00
00000D00
00001D00
ENDCHAR
STARTCHAR uni04B5
ENCODING 1205
SWIDTH 657 0
DWIDTH 12 0
BBX 10 13 1 -3
BITMAP
FFFC70
5B54B0
0A00A0
0E00D0
0D01D0
1C02C0
2C0380
2C0B80
1D6B90
0BD1E0
0000E0
0001D0
0001C0
ENDCHAR
STARTCHAR uni04B6
ENCODING 1206
SWIDTH 636 0
DWIDTH 11 0
BBX 10 16 2 -3
BITMAP
2800D0
3801D0
7401C0
7002C0
B00380
A00340
B01B40
7FFF00
050A00
000E00
000D00
001E40
002F40
000700
000B00
000A00
ENDCHAR
STARTCHAR uni04B7
ENCODING 1207
SWIDTH 543 0
DWIDTH 10 0
BBX 9 13 1 -3
BITMAP
340340
740700
700B00
B01E00
B47E00
3F9D00
041C00
002C00
002900
003E00
000E00
001D00
001C00
ENDCHAR
STARTCHAR uni04B8
ENCODING 1208
SWIDTH 639 0
DWIDTH 12 0
BBX 10 13 2 0
BITMAP
2800D0
3801D0
7401C0
7002C0
B0C380
A1C340
B29B40
7FFF00
074A00
030E00
070D00
001D00
002C00
ENDCHAR
STARTCHAR uni04B9
ENCODING 1209
SWIDTH 554 0
DWIDTH 10 0
BBX 9 10 1 0
BITMAP
340340
740700
700B00
B29E00
B6AE00
3F9D00
071C00
062C00
0A3800
003400
ENDCHAR
STARTCHAR uni04BA
ENCODING 1210
SWIDTH 639 0
DWIDTH 12 0
BBX 9 13 1 0
BITMAP
0B0000
0E0000
0D0000
1D0000
1C0000
2DBE40
3E97C0
3401C0
7402C0
B00280
A00380
E00740
D00700
ENDCHAR
STARTCHAR uni04BB
ENCODING 1211
SWIDTH 576 0
DWIDTH 10 0
BBX 9 10 0 0
BITMAP
0B0000
0A0000
0E0000
0D7E00
1E9740
2E0380
2C0380
380340
740740
700B00
ENDCHAR
STARTCHAR uni04BC
ENCODING 1212
SWIDTH 765 0
DWIDTH 14 0
BBX 13 13 1 0
BITMAP
0006F900
002E5F40
00F00380
02D00380
A3800B40
A7416E00
BFFFE400
1E540000
0E000000
0B000000
07400000
03E56800
00BFE400
ENDCHAR
STARTCHAR uni04BD
ENCODING 1213
SWIDTH 592 0
DWIDTH 11 0
BBX 9 10 1 0
BITMAP
007F40
02D6C0
0741C0
DE0780
FFFD00
1D4000
1D0000
0D0000
0B5600
02F900
ENDCHAR
STARTCHAR uni04BE
ENCODING 1214
SWIDTH 765 0
DWIDTH 14 0
BBX 13 16 1 -3
BITMAP
0006F900
002E5F40
00F00380
02D00380
A3800B40
A7416E00
BFFFE400
1E540000
0E000000
0B000000
07400000
03E56800
00BFE400
001C0000
002C0000
00280000
ENDCHAR
STARTCHAR uni04BF
ENCODING 1215
SWIDTH 592 0
DWIDTH 11 0
BBX 9 13 1 -3
BITMAP
007F40
02D6C0
0741C0
DE0780
FFFD00
1D4000
1D0000
0D0000
0B5600
02FE00
00D000
01D000
01C000
ENDCHAR
STARTCHAR uni04C0
ENCODING 1216
SWIDTH 272 0
DWIDTH 5 0
BBX 4 13 1 0
BITMAP
0B
0E
0D
1D
1C
28
38
34
74
B0
A0
E0
D0
ENDCHAR
STARTCHAR uni04C1
ENCODING 1217
SWIDTH 775 0
DWIDTH 14 0
BBX 17 17 -1 0
BITMAP
000280D000
000292C000
0000BE4000
0000000000
0280340B40
01D0742D00
00A0707400
0074A1D000
002CE78000
001DEE0000
001FFC0000
003ADD0000
00F28E0000
02C3474000
0B47438000
2D0701D000
740B00E000
ENDCHAR
STARTCHAR uni04C2
ENCODING 1218
SWIDTH 833 0
DWIDTH 15 0
BBX 17 14 -1 0
BITMAP
000341D000
0003868000
0001BE0000
0000000000
0B90702F40
05B070F500
0034A2D000
0038D38000
003FFF4000
0035D70000
0071C70000
00E2874000
1783439400
7E0341B800
ENDCHAR
STARTCHAR uni04C3
ENCODING 1219
SWIDTH 628 0
DWIDTH 11 0
BBX 11 17 1 -4
BITMAP
0B00B4
0E02D0
0D0B40
1D2D00
1CB400
2AD000
3FF800
396E00
740740
B00380
A00280
E00380
D00380
000740
001E00
65B800
6F9000
ENDCHAR
STARTCHAR uni04C4
ENCODING 1220
SWIDTH 514 0
DWIDTH 9 0
BBX 9 14 0 -4
BITMAP
0B0380
0A0E00
0D3800
0DE000
1FF400
2D2D00
280A00
340B00
740B00
700B00
000E00
002D00
15B800
1F9000
ENDCHAR
STARTCHAR uni04C5
ENCODING 1221
SWIDTH 649 0
DWIDTH 12 0
BBX 13 16 -1 -3
BITMAP
000BFF80
000E5740
001D0700
002C0B00
00280A00
00340E00
00701D00
00A01C00
00D02C00
01C03800
03803400
5B407900
79007D00
00001800
00007400
0000A000
ENDCHAR
STARTCHAR uni04C6
ENCODING 1222
SWIDTH 536 0
DWIDTH 10 0
BBX 10 13 -1 -3
BITMAP
001BE0
0039A0
00A0E0
00D0D0
01C1D0
0281C0
074280
0B0380
6D0390
B407D0
0001C0
000240
000700
ENDCHAR
STARTCHAR uni04C7
ENCODING 1223
SWIDTH 678 0
DWIDTH 12 0
BBX 11 17 1 -4
BITMAP
0B001C
0E002C
0D0028
1D0038
1C0034
2C0070
3FFFF0
3955E0
7400D0
B001D0
A001C0
E00280
D00380
000740
000E00
65BC00
6FE000
ENDCHAR
STARTCHAR uni04C8
ENCODING 1224
SWIDTH 599 0
DWIDTH 11 0
BBX 10 14 0 -4
BITMAP
0B0070
0A00B0
0E00A0
0D00D0
1FFFD0
2D56C0
2802C0
340380
740340
700740
000B00
000E00
097C00
0BE000
ENDCHAR
STARTCHAR uni04C9
ENCODING 1225
SWIDTH 684 0
DWIDTH 12 0
BBX 11 16 1 -3
BITMAP
0B001C
0E002C
0D0028
1D0038
1C0034
2C0070
3FFFF0
3955E0
7400D0
B000D0
A001C0
E002D0
D002F0
000090
0002C0
000740
ENDCHAR
STARTCHAR uni04CA
ENCODING 1226
SWIDTH 599 0
DWIDTH 11 0
BBX 10 13 0 -3
BITMAP
0B0070
0A00B0
0E00A0
0D00E0
1FFFD0
2D56C0
2802C0
340280
740390
7007E0
0000C0
000280
000700
ENDCHAR
STARTCHAR uni04CB
ENCODING 1227
SWIDTH 639 0
DWIDTH 12 0
BBX 10 16 2 -3
BITMAP
2800D0
3801D0
7401C0
7002C0
B00380
A00340
B01B40
7FFF00
050A00
000E00
000D00
006D00
00FC00
00D000
01C000
02C000
ENDCHAR
STARTCHAR uni04CC
ENCODING 1228
SWIDTH 578 0
DWIDTH 10 0
BBX 9 13 1 -3
BITMAP
2C0280
280380
340740
740F00
386F00
2FDA00
010E00
001D00
002C00
00BC00
00D000
01D000
01C000
ENDCHAR
STARTCHAR uni04CD
ENCODING 1229
SWIDTH 841 0
DWIDTH 15 0
BBX 14 16 1 -3
BITMAP
0B8001F0
0F8003E0
0EC00AE0
1DC00DD0
1CC029D0
28D076C0
38D0A280
34A1C380
70A28340
B0A70740
A07D0B00
D07C0B40
D0340F80
00000340
00000A00
00001D00
ENDCHAR
STARTCHAR uni04CE
ENCODING 1230
SWIDTH 688 0
DWIDTH 12 0
BBX 12 13 0 -3
BITMAP
0B401E
0B402E
0F807D
0E80DC
1DC19C
28C368
28DA28
349C34
30B874
70707D
000018
000034
0000A0
ENDCHAR
STARTCHAR uni04CF
ENCODING 1231
SWIDTH 272 0
DWIDTH 5 0
BBX 4 13 1 0
BITMAP
0B
0E
0D
1D
1C
28
38
34
74
B0
A0
E0
D0
ENDCHAR
STARTCHAR uni04D0
ENCODING 1232
SWIDTH 555 0
DWIDTH 10 0
BBX 12 17 -1 0
BITMAP
00280D
00292C
000BE4
000000
000780
000B80
001EC0
0035C0
0071C0
00D1D0
0280D0
03FFD0
0A55E0
0D00A0
2800A0
7400B0
B00070
ENDCHAR
STARTCHAR uni04D1
ENCODING 1233
SWIDTH 564 0
DWIDTH 10 0
BBX 9 14 1 0
BITMAP
0701C0
034780
01FE00
000000
06E580
1E5E80
380B40
B00700
E00B00
D00E00
D01E00
D03D00
B5EC00
2E5C00
ENDCHAR
STARTCHAR uni04D2
ENCODING 1234
SWIDTH 555 0
DWIDTH 10 0
BBX 11 16 -1 0
BITMAP
001C34
001C34
000000
000780
000B80
001EC0
0035C0
0071C0
00D1D0
0280D0
03FFD0
0A55E0
0D00A0
2800A0
7400B0
B00070
ENDCHAR
STARTCHAR uni04D3
ENCODING 1235
SWIDTH 564 0
DWIDTH 10 0
BBX 9 13 1 0
BITMAP
024A00
034A00
000000
06E580
1E5E80
380B40
B00700
E00B00
D00E00
D01E00
D03D00
B5EC00
2E5C00
ENDCHAR
STARTCHAR uni04D4
ENCODING 1236
SWIDTH 816 0
DWIDTH 15 0
BBX 17 13 -1 0
BITMAP
0000FFFF40
0002AD5500
00076C0000
000D280000
0028380000
0070740000
00D07FFC00
02FFF55400
0755E00000
0A00E00000
1C01D00000
3801D55000
B002FFF000
ENDCHAR
STARTCHAR uni04D5
ENCODING 1237
SWIDTH 814 0
DWIDTH 15 0
BBX 14 10 1 0
BITMAP
06E36F40
1E6BE6C0
380F41D0
B00E0780
E00FFE00
D01D4000
D02D0000
D07E0000
B6AF9600
7E26FE00
ENDCHAR
STARTCHAR uni04D6
ENCODING 1238
SWIDTH 511 0
DWIDTH 9 0
BBX 10 17 1 0
BITMAP
0340D0
0286C0
01BE00
000000
0BFFC0
0E5540
0D0000
1D0000
1C0000
2C0000
3FFD00
395400
740000
B00000
A00000
E55000
FFF400
ENDCHAR
STARTCHAR uni04D7
ENCODING 1239
SWIDTH 493 0
DWIDTH 9 0
BBX 9 14 1 0
BITMAP
0D0740
0E1A00
06F800
000000
06F400
1E6D00
341D00
B07800
FFE000
E40000
D00000
E00000
B96400
2FE000
ENDCHAR
STARTCHAR uni04D8
ENCODING 1240
SWIDTH 661 0
DWIDTH 12 0
BBX 12 13 0 0
BITMAP
01BF90
0796F4
000038
00002C
00001D
00001D
01AFFC
1FA57C
3D0038
7400B0
7402D0
3E5B40
0BF800
ENDCHAR
STARTCHAR uni04D9
ENCODING 1241
SWIDTH 493 0
DWIDTH 9 0
BBX 8 10 0 0
BITMAP
0BF4
196D
000A
000B
06FF
2E5E
741D
702C
79B4
2F90
ENDCHAR
STARTCHAR uni04DA
ENCODING 1242
SWIDTH 661 0
DWIDTH 12 0
BBX 12 16 0 0
BITMAP
002860
002460
000000
01BF90
0796F4
000038
00002C
00001D
00001D
01AFFC
1FA57C
3D0038
7400B0
7402D0
3E5B40
0BF800
ENDCHAR
STARTCHAR uni04DB
ENCODING 1243
SWIDTH 493 0
DWIDTH 9 0
BBX 8 13 0 0
BITMAP
024A
024A
0000
0BF4
196D
000A
000B
06FF
2E5E
741D
702C
79B4
2F90
ENDCHAR
STARTCHAR uni04DC
ENCODING 1244
SWIDTH 775 0
DWIDTH 14 0
BBX 17 16 -1 0
BITMAP
0000D24000
0000C34000
0000000000
0280340B40
01D0742D00
00A0707400
0074A1D000
002CE78000
001DEE0000
001FFC0000
003ADD0000
00F28E0000
02C3474000
0B47438000
2D0701D000
740B00E000
ENDCHAR
STARTCHAR uni04DD
ENCODING 1245
SWIDTH 833 0
DWIDTH 15 0
BBX 17 13 -1 0
BITMAP
0001C34000
0001C30000
0000000000
0B90702F40
05B070F500
0034A2D000
0038D38000
003FFF4000
0035D70000
0071C70000
00E2874000
1783439400
7E0341B800
ENDCHAR
STARTCHAR uni04DE
ENCODING 1246
SWIDTH 532 0
DWIDTH 10 0
BBX 10 16 0 0
BITMAP
009280
009280
000000
02BE00
0B57C0
0001D0
0001D0
0002C0
001B40
0BF800
055E00
000740
000380
000740
E56E00
6FE400
ENDCHAR
STARTCHAR uni04DF
ENCODING 1247
SWIDTH 436 0
DWIDTH 8 0
BBX 8 13 0 0
BITMAP
0349
0349
0000
1BF4
196D
000D
002C
0BE0
0574
0028
0038
95B4
BF90
ENDCHAR
STARTCHAR uni04E0
ENCODING 1248
SWIDTH 525 0
DWIDTH 9 0
BBX 10 13 0 0
BITMAP
07FFE0
0156D0
000B40
001D00
007400
01D000
03F800
015F00
000740
000740
000B00
A56D00
6FE400
ENDCHAR
STARTCHAR uni04E1
ENCODING 1249
SWIDTH 456 0
DWIDTH 8 0
BBX 10 14 -2 -4
BITMAP
02FFF0
0156D0
000380
000E00
002800
00A000
01F800
001B00
000340
000380
000340
000B00
656D00
2FE400
ENDCHAR
STARTCHAR uni04E2
ENCODING 1250
SWIDTH 696 0
DWIDTH 13 0
BBX 12 16 1 0
BITMAP
001540
007FE0
000000
0A001E
0E007D
0D00EC
1D02AC
1C0B28
281D34
383434
34A070
72C0B0
B740A0
BD00D0
F801D0
F001C0
ENDCHAR
STARTCHAR uni04E3
ENCODING 1251
SWIDTH 577 0
DWIDTH 10 0
BBX 9 13 1 0
BITMAP
015500
03FF00
000000
2C0280
380380
340340
740700
700B00
A00E00
E01E00
E03D00
B5EC00
6E5C00
ENDCHAR
STARTCHAR uni04E4
ENCODING 1252
SWIDTH 696 0
DWIDTH 13 0
BBX 12 16 1 0
BITMAP
003490
003490
000000
0A001E
0E007D
0D00EC
1D02AC
1C0B28
281D34
383434
34A070
72C0B0
B740A0
BD00D0
F801D0
F001C0
ENDCHAR
STARTCHAR uni04E5
ENCODING 1253
SWIDTH 577 0
DWIDTH 10 0
BBX 9 13 1 0
BITMAP
024A00
024A00
000000
2C0280
380380
340340
740700
700B00
A00E00
E01E00
E03D00
B5EC00
6E5C00
ENDCHAR
STARTCHAR uni04E6
ENCODING 1254
SWIDTH 720 0
DWIDTH 13 0
BBX 12 16 1 0
BITMAP
003490
003490
000000
00BF90
03E5F4
0F003C
2C001D
38001D
74001D
B0001D
B0002C
B00038
B00074
7801E0
2E5BC0
06F900
ENDCHAR
STARTCHAR uni04E7
ENCODING 1255
SWIDTH 561 0
DWIDTH 10 0
BBX 9 13 1 0
BITMAP
034900
034900
000000
06F800
1E5E00
740B00
B00740
E00740
D00B00
D00A00
E01D00
757800
1F9000
ENDCHAR
STARTCHAR uni04E8
ENCODING 1256
SWIDTH 720 0
DWIDTH 13 0
BBX 12 13 1 0
BITMAP
00BF90
03E5F4
0F003C
2D001D
38001D
74001D
BFFFFD
B5556C
B00028
B00074
7801E0
2E5BC0
06F900
ENDCHAR
STARTCHAR uni04E9
ENCODING 1257
SWIDTH 561 0
DWIDTH 10 0
BBX 9 10 1 0
BITMAP
06F800
1E5E00
740700
B00740
FFFF00
E55B00
D00E00
E01D00
79B800
1F9000
ENDCHAR
STARTCHAR uni04EA
ENCODING 1258
SWIDTH 720 0
DWIDTH 13 0
BBX 12 16 1 0
BITMAP
003490
003490
000000
00BF90
03E5F4
0F003C
2D001D
38001D
74001D
BFFFFD
B5556C
B00028
B00074
7801E0
2E5BC0
06F900
ENDCHAR
STARTCHAR uni04EB
ENCODING 1259
SWIDTH 561 0
DWIDTH 10 0
BBX 9 13 1 0
BITMAP
034900
034900
000000
06F800
1E5E00
740700
B00740
FFFF00
E55B00
D00E00
E01D00
79B800
1F9000
ENDCHAR
STARTCHAR uni04EC
ENCODING 1260
SWIDTH 584 0
DWIDTH 11 0
BBX 10 16 0 0
BITMAP
009280
00D240
000000
06FE00
0A5BC0
0001E0
0000F0
0000B0
0000B0
03FFE0
0155E0
0000D0
0002C0
000740
A56D00
6FE400
ENDCHAR
STARTCHAR uni04ED
ENCODING 1261
SWIDTH 456 0
DWIDTH 8 0
BBX 8 13 0 0
BITMAP
070D
060C
0000
2FE0
1578
001C
001D
1FFD
056D
002C
0078
95E0
BF80
ENDCHAR
STARTCHAR uni04EE
ENCODING 1262
SWIDTH 571 0
DWIDTH 10 0
BBX 12 16 0 0
BITMAP
001540
00BFD0
000000
0E000E
0A002C
070074
0340A0
0281D0
01C380
01DB00
00ED00
00B800
00B000
01D000
9B8000
F90000
ENDCHAR
STARTCHAR uni04EF
ENCODING 1263
SWIDTH 461 0
DWIDTH 8 0
BBX 11 17 -2 -4
BITMAP
001540
007FE0
000000
03402C
038074
0280A0
0281D0
01C280
01C740
01CA00
00DC00
00F800
00B000
00D000
02C000
5B4000
B90000
ENDCHAR
STARTCHAR uni04F0
ENCODING 1264
SWIDTH 571 0
DWIDTH 10 0
BBX 12 16 0 0
BITMAP
0070D0
0070D0
000000
0E000E
0A002C
070074
0340A0
0281D0
01C380
01DB00
00ED00
00B800
00B000
01D000
9B8000
F90000
ENDCHAR
STARTCHAR uni04F1
ENCODING 1265
SWIDTH 461 0
DWIDTH 8 0
BBX 11 17 -2 -4
BITMAP
0024A0
003490
000000
03402C
038074
0280A0
0281D0
01C280
01C740
01CA00
00DC00
00F800
00B000
00D000
02C000
5B4000
B90000
ENDCHAR
STARTCHAR uni04F2
ENCODING 1266
SWIDTH 571 0
DWIDTH 10 0
BBX 12 17 0 0
BITMAP
000B2C
001C70
002080
000000
0E000E
0A002C
070074
0340A0
0281D0
01C380
01DB00
00ED00
00B800
00B000
01D000
9B8000
F90000
ENDCHAR
STARTCHAR uni04F3
ENCODING 1267
SWIDTH 461 0
DWIDTH 8 0
BBX 11 18 -2 -4
BITMAP
00071C
001D74
002490
000000
03402C
038074
0280A0
0281D0
01C280
01C740
01CA00
00DC00
00F800
00B000
00D000
02C000
5B4000
B90000
ENDCHAR
STARTCHAR uni04F4
ENCODING 1268
SWIDTH 639 0
DWIDTH 12 0
BBX 10 16 2 0
BITMAP
018700
028600
000000
2800D0
3801D0
7401C0
7002C0
B00380
A00340
B41B40
7FFF00
054A00
000E00
000D00
001D00
002C00
ENDCHAR
STARTCHAR uni04F5
ENCODING 1269
SWIDTH 555 0
DWIDTH 10 0
BBX 9 13 1 0
BITMAP
030D00
070D00
000000
340340
740700
700B00
B01E00
B47E00
3FDD00
041C00
002C00
002800
003800
ENDCHAR
STARTCHAR uni04F6
ENCODING 1270
SWIDTH 476 0
DWIDTH 9 0
BBX 9 16 1 -3
BITMAP
0BFFC0
0E5540
0D0000
1D0000
1C0000
2C0000
380000
340000
740000
B00000
A00000
E40000
F80000
340000
340000
700000
ENDCHAR
STARTCHAR uni04F7
ENCODING 1271
SWIDTH 382 0
DWIDTH 7 0
BBX 8 13 0 -3
BITMAP
0BFD
0A54
0E00
0D00
1C00
2C00
2800
3800
7400
7D00
1C00
2C00
3800
ENDCHAR
STARTCHAR uni04F8
ENCODING 1272
SWIDTH 786 0
DWIDTH 14 0
BBX 13 16 1 0
BITMAP
001C3400
001C3400
00000000
0B0001C0
0E0002C0
0D000280
1D000380
1C000740
2C000700
3FE40B00
396D0A00
740A0D00
B00B1D00
A00E1C00
E57C2800
FFE03800
ENDCHAR
STARTCHAR uni04F9
ENCODING 1273
SWIDTH 721 0
DWIDTH 13 0
BBX 12 13 1 0
BITMAP
00A180
00A180
000000
2C000D
38001C
34002C
740028
7BE038
B57874
A02C70
A028B0
B5B4A0
2F90D0
ENDCHAR
STARTCHAR uni04FA
ENCODING 1274
SWIDTH 471 0
DWIDTH 8 0
BBX 10 16 0 -3
BITMAP
02FFE0
039550
034000
074000
070000
0B0000
3FF400
1E5000
1D0000
2C0000
280000
390000
3E0000
0D0000
5C0000
B40000
ENDCHAR
STARTCHAR uni04FB
ENCODING 1275
SWIDTH 382 0
DWIDTH 7 0
BBX 8 13 0 -3
BITMAP
0BFD
0A54
0D00
1D00
BFD0
2C00
2800
3400
7400
7D00
0C00
6800
F400
ENDCHAR
STARTCHAR uni04FC
ENCODING 1276
SWIDTH 508 0
DWIDTH 9 0
BBX 12 16 -1 -3
BITMAP
02801D
01C038
00D0A0
00A2C0
007740
003D00
003C00
00AD00
02CA00
074700
0E0340
2802D0
B001F0
0000A0
0001D0
000780
ENDCHAR
STARTCHAR uni04FD
ENCODING 1277
SWIDTH 469 0
DWIDTH 8 0
BBX 10 13 -1 -3
BITMAP
0700E0
038280
01CB00
00ED00
00B400
00F400
02A800
0B1C00
1D0E40
740780
000280
001740
002E00
ENDCHAR
STARTCHAR uni04FE
ENCODING 1278
SWIDTH 519 0
DWIDTH 9 0
BBX 12 13 -1 0
BITMAP
02801D
01C038
00D0E0
00B280
003B00
07FFE0
05BE50
00EE00
02CB00
074740
1D0380
2802C0
B001D0
ENDCHAR
STARTCHAR uni04FF
ENCODING 1279
SWIDTH 478 0
DWIDTH 9 0
BBX 10 10 -1 0
BITMAP
0700E0
038280
01CA00
00EC00
0FFF80
01F800
03AC00
0B1D00
2D0E00
740700
ENDCHAR
STARTCHAR uni0500
ENCODING 1280
SWIDTH 565 0
DWIDTH 10 0
BBX 10 13 1 0
BITMAP
0001D0
0002C0
000280
000380
000340
000700
0BFF00
7D5A00
E00E00
D01D00
E01C00
B96C00
2FF800
ENDCHAR
STARTCHAR uni0501
ENCODING 1281
SWIDTH 577 0
DWIDTH 10 0
BBX 10 14 1 0
BITMAP
0000E0
0000D0
0001D0
0001C0
06E680
1E5F80
380B40
B00700
E00B00
D00E00
D01E00
D03D00
B5EC00
2E5C00
ENDCHAR
STARTCHAR uni0502
ENCODING 1282
SWIDTH 831 0
DWIDTH 15 0
BBX 13 13 1 0
BITMAP
0001D000
0001C000
0002C000
00038000
00074000
06FF42C0
2E5B0280
B40A0380
E00E0340
E01D0740
E02D0B00
B9BE6D00
2F82F400
ENDCHAR
STARTCHAR uni0503
ENCODING 1283
SWIDTH 850 0
DWIDTH 15 0
BBX 13 14 1 0
BITMAP
0000E000
0000D000
0001D000
0001C000
06E68000
1E5F8000
380B4000
B0070000
E00B01C0
D00E0280
D01E0380
D03E0740
B5EB5E00
2E42F800
ENDCHAR
STARTCHAR uni0504
ENCODING 1284
SWIDTH 837 0
DWIDTH 15 0
BBX 12 13 2 0
BITMAP
1BE400
B56C00
001D00
000D00
001C00
00B407
BF800B
15E00A
00740E
00741D
00742C
0039B8
001FE0
ENDCHAR
STARTCHAR uni0505
ENCODING 1285
SWIDTH 743 0
DWIDTH 13 0
BBX 11 10 1 0
BITMAP
6F9000
65B000
007400
01A000
2F801C
16D02C
00E028
00E034
00B5B0
002F80
ENDCHAR
STARTCHAR uni0506
ENCODING 1286
SWIDTH 569 0
DWIDTH 10 0
BBX 8 16 2 -3
BITMAP
1BE4
B56C
001D
001D
002C
00B4
BF80
15E0
0074
0034
0070
00B4
00BC
002C
0028
0034
ENDCHAR
STARTCHAR uni0507
ENCODING 1287
SWIDTH 470 0
DWIDTH 8 0
BBX 7 13 1 -3
BITMAP
6F90
65B0
0074
01A0
2F80
16D0
00E0
00D0
01E0
01F4
0070
00B0
00A0
ENDCHAR
STARTCHAR uni0508
ENCODING 1288
SWIDTH 895 0
DWIDTH 16 0
BBX 16 13 -1 0
BITMAP
000BFF00
000E5B00
001D0A00
002C0E00
00281D00
00341C07
00702C0B
00A0380A
00D0340D
01C0741D
0380742C
5B4039B4
79001BD0
ENDCHAR
STARTCHAR uni0509
ENCODING 1289
SWIDTH 806 0
DWIDTH 15 0
BBX 15 10 -1 0
BITMAP
001BE000
0039A000
00A0E000
00D0D000
01C1D074
0281C070
074280A0
0B0280E0
6D02D6C0
B400BE40
ENDCHAR
STARTCHAR uni050A
ENCODING 1290
SWIDTH 953 0
DWIDTH 17 0
BBX 15 13 1 0
BITMAP
0B001D00
0E002C00
0D002800
1D003800
1C003400
2C00701C
3FFFF02C
3955E028
7400E034
B000D074
A001D0B0
E000E6E0
D0006F80
ENDCHAR
STARTCHAR uni050B
ENCODING 1291
SWIDTH 867 0
DWIDTH 16 0
BBX 15 10 0 0
BITMAP
0B007000
0A00B000
0E00A000
0D00D000
1FFFD034
2D56C070
2802C0B0
340280E0
7401D6D0
7000BE40
ENDCHAR
STARTCHAR uni050C
ENCODING 1292
SWIDTH 695 0
DWIDTH 13 0
BBX 11 13 1 0
BITMAP
006FE4
02E5A8
0B4000
1D0000
380000
740000
B00FFC
B00578
B00034
B000B0
7801E0
2E5B80
06F900
ENDCHAR
STARTCHAR uni050D
ENCODING 1293
SWIDTH 588 0
DWIDTH 11 0
BBX 9 10 1 0
BITMAP
02FE40
1E5640
780000
B00000
E00000
D0BF80
D05740
E00B00
796D00
1BE400
ENDCHAR
STARTCHAR uni050E
ENCODING 1294
SWIDTH 658 0
DWIDTH 12 0
BBX 10 13 1 0
BITMAP
7FFFD0
15E540
00D000
01D000
01C000
0280A0
0380E0
0340D0
0741C0
0B01C0
0B0280
079B40
01F900
ENDCHAR
STARTCHAR uni050F
ENCODING 1295
SWIDTH 586 0
DWIDTH 11 0
BBX 9 10 1 0
BITMAP
FFF800
5B5400
0A0000
0D0000
1D0740
1C0700
2C0B00
280E00
1D6D00
0BE400
ENDCHAR
STARTCHAR uni0510
ENCODING 1296
SWIDTH 539 0
DWIDTH 10 0
BBX 9 13 1 0
BITMAP
01BE40
0B96C0
0E0000
1D0000
0D0000
0B4000
06FD00
2E5400
B00000
E00000
F00000
B95900
1BF900
ENDCHAR
STARTCHAR uni0511
ENCODING 1297
SWIDTH 444 0
DWIDTH 8 0
BBX 8 10 0 0
BITMAP
02FE
0B56
0D00
0E00
07F0
2D50
7400
7000
7958
1BE4
ENDCHAR
STARTCHAR uni0512
ENCODING 1298
SWIDTH 633 0
DWIDTH 11 0
BBX 13 16 -1 -3
BITMAP
000BFF80
000E5740
001D0700
002C0B00
00280A00
00340E00
00701D00
00A01C00
00D02C00
01C02800
03803400
5B407800
79007D00
00001C00
00006800
0000F400
ENDCHAR
STARTCHAR uni0513
ENCODING 1299
SWIDTH 526 0
DWIDTH 9 0
BBX 10 13 -1 -3
BITMAP
001BE0
0039A0
00A0E0
00D0D0
01C1D0
0281C0
074280
0B0380
6D0380
B407D0
0000C0
0006C0
000F40
ENDCHAR
STARTCHAR uni1E00
ENCODING 7680
SWIDTH 555 0
DWIDTH 10 0
BBX 10 18 -1 -5
BITMAP
000780
000B80
001EC0
0035C0
0071C0
00D1D0
0280D0
03FFD0
0A55E0
0D00A0
2800A0
7400B0
B00070
000000
01E400
031800
031800
01E400
ENDCHAR
STARTCHAR uni1E01
ENCODING 7681
SWIDTH 564 0
DWIDTH 10 0
BBX 9 15 1 -5
BITMAP
06E580
1E5E80
380B40
B00700
E00B00
D00E00
D01E00
D03D00
B5EC00
2E5C00
000000
1F4000
30C000
30C000
1F4000
ENDCHAR
STARTCHAR uni1E3E
ENCODING 7742
SWIDTH 836 0
DWIDTH 15 0
BBX 14 17 1 0
BITMAP
00002C00
00007400
0001D000
00000000
0B8001F0
0F8003E0
0EC00AE0
1DC00DD0
1CC029D0
28D076C0
38D0A280
34A1C380
70A28340
B0A70740
A07D0B00
D07C0A00
D0340E00
ENDCHAR
STARTCHAR uni1E3F
ENCODING 7743
SWIDTH 872 0
DWIDTH 16 0
BBX 15 14 0 0
BITMAP
00000E00
00002800
00006000
00000000
0A2F46E0
0A969978
0F41E028
0E02D038
1D028034
2C038074
280340B0
380700A0
740B00E0
700A00D0
ENDCHAR
STARTCHAR Wgrave
ENCODING 7808
SWIDTH 852 0
DWIDTH 15 0
BBX 15 17 2 0
BITMAP
002C0000
000E0000
00070000
00000000
D00B4038
E00F4074
E02B40A0
E03741D0
E07342C0
A0D24340
A1C28700
A2828E00
A7029C00
AA02A800
AD02B400
B802E000
B401D000
ENDCHAR
STARTCHAR wgrave
ENCODING 7809
SWIDTH 716 0
DWIDTH 13 0
BBX 13 14 1 0
BITMAP
00B00000
00340000
001C0000
00000000
D02C0740
E07C0B00
E0AC0D00
E1CD2C00
A28D3800
A34D7000
AA0DA000
AD0ED000
BC0B8000
B40B4000
ENDCHAR
STARTCHAR Wacute
ENCODING 7810
SWIDTH 852 0
DWIDTH 15 0
BBX 15 17 2 0
BITMAP
00007400
0000D000
00024000
00000000
D00B4038
E00F4074
E02B40A0
E03741D0
E07342C0
A0D24340
A1C28700
A2828E00
A7029C00
AA02A800
AD02B400
B802E000
B401D000
ENDCHAR
STARTCHAR wacute
ENCODING 7811
SWIDTH 716 0
DWIDTH 13 0
BBX 13 14 1 0
BITMAP
0002D000
00074000
000D0000
00000000
D02C0740
E07C0B00
E0AC0D00
E1CD2C00
A28D3800
A34D7000
AA0DA000
AD0ED000
BC0B8000
B40B4000
ENDCHAR
STARTCHAR Wdieresis
ENCODING 7812
SWIDTH 852 0
DWIDTH 15 0
BBX 15 16 2 0
BITMAP
00287000
00286000
00000000
D00B4038
E00F4074
E02B40A0
E03741D0
E07342C0
A0D24340
A1C28700
A2828E00
A7029C00
AA02A800
AD02B400
B802E000
B401D000
ENDCHAR
STARTCHAR wdieresis
ENCODING 7813
SWIDTH 716 0
DWIDTH 13 0
BBX 13 13 1 0
BITMAP
00A18000
00928000
00000000
D02C0740
E07C0B00
E0AC0D00
E1CD2C00
A28D3800
A34D7000
AA0DA000
AD0ED000
BC0B8000
B40B4000
ENDCHAR
STARTCHAR uni1EA0
ENCODING 7840
SWIDTH 555 0
DWIDTH 10 0
BBX 10 16 -1 -3
BITMAP
000780
000B80
001EC0
0035C0
0071C0
00D1D0
0280D0
03FFD0
0A55E0
0D00A0
2800A0
7400B0
B00070
000000
00A000
00A000
ENDCHAR
STARTCHAR uni1EA1
ENCODING 7841
SWIDTH 564 0
DWIDTH 10 0
BBX 9 13 1 -3
BITMAP
06E580
1E5E80
380B40
B00700
E00B00
D00E00
D01E00
D03D00
B5EC00
2E5C00
000000
0D0000
0D0000
ENDCHAR
STARTCHAR uni1EA2
ENCODING 7842
SWIDTH 555 0
DWIDTH 10 0
BBX 11 18 -1 0
BITMAP
0002E0
000034
0001A0
000240
000000
000780
000B80
001EC0
0035C0
0071C0
00D1D0
0280D0
03FFD0
0A55E0
0D00A0
2800A0
7400B0
B00070
ENDCHAR
STARTCHAR uni1EA3
ENCODING 7843
SWIDTH 564 0
DWIDTH 10 0
BBX 9 15 1 0
BITMAP
007D00
000A00
002800
006000
000000
06E580
1E5E80
380B40
B00700
E00B00
D00E00
D01E00
D03D00
B5EC00
2E5C00
ENDCHAR
STARTCHAR uni1EA4
ENCODING 7844
SWIDTH 555 0
DWIDTH 10 0
BBX 13 18 -1 0
BITMAP
00000280
0003D900
000AA000
00242000
00000000
00078000
000B8000
001EC000
0035C000
0071C000
00D1D000
0280D000
03FFD000
0A55E000
0D00A000
2800A000
7400B000
B0007000
ENDCHAR
STARTCHAR uni1EA5
ENCODING 7845
SWIDTH 564 0
DWIDTH 10 0
BBX 11 15 1 0
BITMAP
000074
007980
01DC00
020600
000000
06E580
1E5E80
380B40
B00700
E00B00
D00E00
D01E00
D03D00
B5EC00
2E5C00
ENDCHAR
STARTCHAR uni1EA6
ENCODING 7846
SWIDTH 555 0
DWIDTH 10 0
BBX 10 18 -1 0
BITMAP
00D000
0023D0
000AA0
002420
000000
000780
000B80
001EC0
0035C0
0071C0
00D1D0
0280D0
03FFD0
0A55E0
0D00A0
2800A0
7400B0
B00070
ENDCHAR
STARTCHAR uni1EA7
ENCODING 7847
SWIDTH 564 0
DWIDTH 10 0
BBX 9 15 1 0
BITMAP
180000
097800
01DC00
020600
000000
06E580
1E5E80
380B40
B00700
E00B00
D00E00
D01E00
D03D00
B5EC00
2E5C00
ENDCHAR
STARTCHAR uni1EA8
ENCODING 7848
SWIDTH 555 0
DWIDTH 10 0
BBX 13 19 -1 0
BITMAP
00000A00
00000240
0003D900
000AA000
00242000
00000000
00078000
000B8000
001EC000
0035C000
0071C000
00D1D000
0280D000
03FFD000
0A55E000
0D00A000
2800A000
7400B000
B0007000
ENDCHAR
STARTCHAR uni1EA9
ENCODING 7849
SWIDTH 564 0
DWIDTH 10 0
BBX 10 16 1 0
BITMAP
0001A0
000060
007980
01DC00
020600
000000
06E580
1E5E80
380B40
B00700
E00B00
D00E00
D01E00
D03D00
B5EC00
2E5C00
ENDCHAR
STARTCHAR uni1EAA
ENCODING 7850
SWIDTH 555 0
DWIDTH 10 0
BBX 12 19 -1 0
BITMAP
000B86
0018BC
0003D0
000AA0
002424
000000
000780
000B80
001EC0
0035C0
0071C0
00D1D0
0280D0
03FFD0
0A55E0
0D00A0
2800A0
7400B0
B00070
ENDCHAR
STARTCHAR uni1EAB
ENCODING 7851
SWIDTH 564 0
DWIDTH 10 0
BBX 9 16 1 0
BITMAP
01F4C0
035B40
007800
01DC00
020600
000000
06E580
1E5E80
380B40
B00700
E00B00
D00E00
D01E00
D03D00
B5EC00
2E5C00
ENDCHAR
STARTCHAR uni1EAC
ENCODING 7852
SWIDTH 555 0
DWIDTH 10 0
BBX 11 20 -1 -3
BITMAP
0002D0
000AA0
002824
000000
000780
000B80
001EC0
0035C0
0071C0
00D1D0
0280D0
03FFD0
0A55E0
0D00A0
2800A0
7400B0
B00070
000000
00A000
00A000
ENDCHAR
STARTCHAR uni1EAD
ENCODING 7853
SWIDTH 564 0
DWIDTH 10 0
BBX 9 17 1 -3
BITMAP
007800
01EC00
074A00
000000
06E580
1E5E80
380B40
B00700
E00B00
D00E00
D01E00
D03D00
B5EC00
2E5C00
000000
0D0000
0D0000
ENDCHAR
STARTCHAR uni1EAE
ENCODING 7854
SWIDTH 555 0
DWIDTH 10 0
BBX 11 18 -1 0
BITMAP
000074
000090
001964
000BE0
000000
000780
000B80
001EC0
0035C0
0071C0
00D1D0
0280D0
03FFD0
0A55E0
0D00A0
2800A0
7400B0
B00070
ENDCHAR
STARTCHAR uni1EAF
ENCODING 7855
SWIDTH 564 0
DWIDTH 10 0
BBX 9 15 1 0
BITMAP
000A00
002800
035700
01F900
000000
06E580
1E5E80
380B40
B00700
E00B00
D00E00
D01E00
D03D00
B5EC00
2E5C00
ENDCHAR
STARTCHAR uni1EB0
ENCODING 7856
SWIDTH 555 0
DWIDTH 10 0
BBX 11 18 -1 0
BITMAP
000700
000240
001964
000BE0
000000
000780
000B80
001EC0
0035C0
0071C0
00D1D0
0280D0
03FFD0
0A55E0
0D00A0
2800A0
7400B0
B00070
ENDCHAR
STARTCHAR uni1EB1
ENCODING 7857
SWIDTH 564 0
DWIDTH 10 0
BBX 9 15 1 0
BITMAP
00D000
002000
035700
01F900
000000
06E580
1E5E80
380B40
B00700
E00B00
D00E00
D01E00
D03D00
B5EC00
2E5C00
ENDCHAR
STARTCHAR uni1EB2
ENCODING 7858
SWIDTH 555 0
DWIDTH 10 0
BBX 11 19 -1 0
BITMAP
000190
000060
000180
001964
000BE0
000000
000780
000B80
001EC0
0035C0
0071C0
00D1D0
0280D0
03FFD0
0A55E0
0D00A0
2800A0
7400B0
B00070
ENDCHAR
STARTCHAR uni1EB3
ENCODING 7859
SWIDTH 564 0
DWIDTH 10 0
BBX 9 16 1 0
BITMAP
002800
000900
003400
035700
01F900
000000
06E580
1E5E80
380B40
B00700
E00B00
D00E00
D01E00
D03D00
B5EC00
2E5C00
ENDCHAR
STARTCHAR uni1EB4
ENCODING 7860
SWIDTH 555 0
DWIDTH 10 0
BBX 12 19 -1 0
BITMAP
000B89
0029B8
000000
001964
000BE0
000000
000780
000B80
001EC0
0035C0
0071C0
00D1D0
0280D0
03FFD0
0A55E0
0D00A0
2800A0
7400B0
B00070
ENDCHAR
STARTCHAR uni1EB5
ENCODING 7861
SWIDTH 564 0
DWIDTH 10 0
BBX 9 16 1 0
BITMAP
01E4C0
035F40
000000
035700
01F900
000000
06E580
1E5E80
380B40
B00700
E00B00
D00E00
D01E00
D03D00
B5EC00
2E5C00
ENDCHAR
STARTCHAR uni1EB6
ENCODING 7862
SWIDTH 555 0
DWIDTH 10 0
BBX 11 19 -1 -3
BITMAP
001964
000BE0
000000
000780
000B80
001EC0
0035C0
0071C0
00D1D0
0280D0
03FFD0
0A55E0
0D00A0
2800A0
7400B0
B00070
000000
00A000
00A000
ENDCHAR
STARTCHAR uni1EB7
ENCODING 7863
SWIDTH 564 0
DWIDTH 10 0
BBX 9 16 1 -3
BITMAP
025700
01F900
000000
06E580
1E5E80
380B40
B00700
E00B00
D00E00
D01E00
D03D00
B5EC00
2E5C00
000000
0D0000
0D0000
ENDCHAR
STARTCHAR uni1EB8
ENCODING 7864
SWIDTH 511 0
DWIDTH 9 0
BBX 9 16 1 -3
BITMAP
0BFFC0
0E5540
0D0000
1D0000
1C0000
2C0000
3FFD00
395400
740000
B00000
A00000
E55000
FFF400
000000
0D0000
0D0000
ENDCHAR
STARTCHAR uni1EB9
ENCODING 7865
SWIDTH 493 0
DWIDTH 9 0
BBX 8 13 1 -3
BITMAP
06F4
1E6D
341D
B078
FFE0
E400
D000
E000
B964
2FE0
0000
1D00
1C00
ENDCHAR
STARTCHAR uni1EBA
ENCODING 7866
SWIDTH 511 0
DWIDTH 9 0
BBX 9 18 1 0
BITMAP
003E00
000700
002D00
003000
000000
0BFFC0
0E5540
0D0000
1D0000
1C0000
2C0000
3FFD00
395400
740000
B00000
A00000
E55000
FFF400
ENDCHAR
STARTCHAR uni1EBB
ENCODING 7867
SWIDTH 493 0
DWIDTH 9 0
BBX 8 15 1 0
BITMAP
00B8
000C
0074
00C0
0000
06F4
1E6D
341D
B078
FFE0
E400
D000
E000
B964
2FE0
ENDCHAR
STARTCHAR uni1EBC
ENCODING 7868
SWIDTH 511 0
DWIDTH 9 0
BBX 9 16 1 0
BITMAP
01F5C0
036F40
000000
0BFFC0
0E5540
0D0000
1D0000
1C0000
2C0000
3FFD00
395400
740000
B00000
A00000
E55000
FFF400
ENDCHAR
STARTCHAR uni1EBD
ENCODING 7869
SWIDTH 493 0
DWIDTH 9 0
BBX 8 13 1 0
BITMAP
0B97
1DBD
0000
06F4
1E6D
341D
B078
FFE0
E400
D000
E000
B964
2FE0
ENDCHAR
STARTCHAR uni1EBE
ENCODING 7870
SWIDTH 511 0
DWIDTH 9 0
BBX 11 18 1 0
BITMAP
000028
003D90
00AA00
024200
000000
0BFFC0
0E5540
0D0000
1D0000
1C0000
2C0000
3FFD00
395400
740000
B00000
A00000
E55000
FFF400
ENDCHAR
STARTCHAR uni1EBF
ENCODING 7871
SWIDTH 493 0
DWIDTH 9 0
BBX 10 15 1 0
BITMAP
0000A0
00B680
02A800
060900
000000
06F400
1E6D00
341D00
B07800
FFE000
E40000
D00000
E00000
B96400
2FE000
ENDCHAR
STARTCHAR uni1EC0
ENCODING 7872
SWIDTH 511 0
DWIDTH 9 0
BBX 9 18 1 0
BITMAP
0D0000
023D00
00AA00
024200
000000
0BFFC0
0E5540
0D0000
1D0000
1C0000
2C0000
3FFD00
395400
740000
B00000
A00000
E55000
FFF400
ENDCHAR
STARTCHAR uni1EC1
ENCODING 7873
SWIDTH 493 0
DWIDTH 9 0
BBX 8 15 1 0
BITMAP
2400
08B4
02A8
0609
0000
06F4
1E6D
341D
B078
FFE0
E400
D000
E000
B964
2FE0
ENDCHAR
STARTCHAR uni1EC2
ENCODING 7874
SWIDTH 511 0
DWIDTH 9 0
BBX 11 19 1 0
BITMAP
0000A0
000024
003D90
00AA00
024200
000000
0BFFC0
0E5540
0D0000
1D0000
1C0000
2C0000
3FFD00
395400
740000
B00000
A00000
E55000
FFF400
ENDCHAR
STARTCHAR uni1EC3
ENCODING 7875
SWIDTH 493 0
DWIDTH 9 0
BBX 10 16 1 0
BITMAP
000290
000090
00B640
02A800
060900
000000
06F400
1E6D00
341D00
B07800
FFE000
E40000
D00000
E00000
B96400
2FE000
ENDCHAR
STARTCHAR uni1EC4
ENCODING 7876
SWIDTH 511 0
DWIDTH 9 0
BBX 10 19 1 0
BITMAP
00B860
018BC0
003D00
00AA00
024200
000000
0BFFC0
0E5540
0D0000
1D0000
1C0000
2C0000
3FFD00
395400
740000
B00000
A00000
E55000
FFF400
ENDCHAR
STARTCHAR uni1EC5
ENCODING 7877
SWIDTH 493 0
DWIDTH 9 0
BBX 9 16 1 0
BITMAP
02E580
062F00
00B400
029800
060900
000000
06F400
1E6D00
341D00
B07800
FFE000
E40000
D00000
E00000
B96400
2FE000
ENDCHAR
STARTCHAR uni1EC6
ENCODING 7878
SWIDTH 511 0
DWIDTH 9 0
BBX 9 20 1 -3
BITMAP
002D00
00AA00
028240
000000
0BFFC0
0E5540
0D0000
1D0000
1C0000
2C0000
3FFD00
395400
740000
B00000
A00000
E55000
FFF400
000000
0D0000
0D0000
ENDCHAR
STARTCHAR uni1EC7
ENCODING 7879
SWIDTH 493 0
DWIDTH 9 0
BBX 8 17 1 -3
BITMAP
00B4
02A8
0A09
0000
06F4
1E6D
341D
B078
FFE0
E400
D000
E000
B964
2FE0
0000
1D00
1C00
ENDCHAR
STARTCHAR uni1EC8
ENCODING 7880
SWIDTH 272 0
DWIDTH 5 0
BBX 6 18 1 0
BITMAP
03D0
0060
02D0
0300
0000
0B00
0E00
0D00
1D00
1C00
2800
3800
3400
7400
B000
A000
E000
D000
ENDCHAR
STARTCHAR uni1EC9
ENCODING 7881
SWIDTH 253 0
DWIDTH 5 0
BBX 6 15 0 0
BITMAP
03D0
0070
02D0
0300
0000
0B00
0A00
0E00
0D00
1C00
2C00
2800
3800
7400
7000
ENDCHAR
STARTCHAR uni1ECA
ENCODING 7882
SWIDTH 272 0
DWIDTH 5 0
BBX 5 16 0 -3
BITMAP
02C0
0380
0340
0740
0700
0A00
0E00
0D00
1D00
2C00
2800
3800
3400
0000
A000
A000
ENDCHAR
STARTCHAR uni1ECB
ENCODING 7883
SWIDTH 253 0
DWIDTH 5 0
BBX 5 17 0 -3
BITMAP
0280
0240
0000
0000
0B00
0A00
0E00
0D00
1C00
2C00
2800
3800
7400
7000
0000
A000
D000
ENDCHAR
STARTCHAR uni1ECC
ENCODING 7884
SWIDTH 720 0
DWIDTH 13 0
BBX 12 16 1 -3
BITMAP
00BF90
03E5F4
0F003C
2C001D
38001D
74001D
B0001D
B0002C
B00038
B00074
7801E0
2E5BC0
06F900
000000
02C000
028000
ENDCHAR
STARTCHAR uni1ECD
ENCODING 7885
SWIDTH 561 0
DWIDTH 10 0
BBX 9 13 1 -3
BITMAP
06F800
1E5E00
740B00
B00740
E00740
D00B00
D00A00
E01D00
757800
1F9000
000000
0A0000
0A0000
ENDCHAR
STARTCHAR uni1ECE
ENCODING 7886
SWIDTH 720 0
DWIDTH 13 0
BBX 12 18 1 0
BITMAP
0007D0
0000A0
000290
000600
000000
00BF90
03E5F4
0F003C
2C001D
38001D
74001D
B0001D
B0002C
B00038
B00074
7801E0
2E5BC0
06F900
ENDCHAR
STARTCHAR uni1ECF
ENCODING 7887
SWIDTH 561 0
DWIDTH 10 0
BBX 9 15 1 0
BITMAP
00B800
000D00
006800
009000
000000
06F800
1E5E00
740B00
B00740
E00740
D00B00
D00A00
E01D00
757800
1F9000
ENDCHAR
STARTCHAR uni1ED0
ENCODING 7888
SWIDTH 720 0
DWIDTH 13 0
BBX 12 18 1 0
BITMAP
00000A
000B68
0019C0
006090
000000
00BF90
03E5F4
0F003C
2C001D
38001D
74001D
B0001D
B0002C
B00038
B00074
7801E0
2E5BC0
06F900
ENDCHAR
STARTCHAR uni1ED1
ENCODING 7889
SWIDTH 561 0
DWIDTH 10 0
BBX 10 15 1 0
BITMAP
0000A0
00B680
019800
060900
000000
06F800
1E5E00
740B00
B00740
E00740
D00B00
D00A00
E01D00
757800
1F9000
ENDCHAR
STARTCHAR uni1ED2
ENCODING 7890
SWIDTH 720 0
DWIDTH 13 0
BBX 12 18 1 0
BITMAP
028000
008B40
002980
006090
000000
00BF90
03E5F4
0F003C
2C001D
38001D
74001D
B0001D
B0002C
B00038
B00074
7801E0
2E5BC0
06F900
ENDCHAR
STARTCHAR uni1ED3
ENCODING 7891
SWIDTH 561 0
DWIDTH 10 0
BBX 9 15 1 0
BITMAP
280000
08B400
019800
060900
000000
06F800
1E5E00
740B00
B00740
E00740
D00B00
D00A00
E01D00
757800
1F9000
ENDCHAR
STARTCHAR uni1ED4
ENCODING 7892
SWIDTH 720 0
DWIDTH 13 0
BBX 12 19 1 0
BITMAP
000029
000009
000B68
002980
006090
000000
00BF90
03E5F4
0F003C
2C001D
38001D
74001D
B0001D
B0002C
B00038
B00074
7801E0
2E5BC0
06F900
ENDCHAR
STARTCHAR uni1ED5
ENCODING 7893
SWIDTH 561 0
DWIDTH 10 0
BBX 10 16 1 0
BITMAP
000290
000090
00B680
019800
060900
000000
06F800
1E5E00
740B00
B00740
E00740
D00B00
D00A00
E01D00
757800
1F9000
ENDCHAR
STARTCHAR uni1ED6
ENCODING 7894
SWIDTH 720 0
DWIDTH 13 0
BBX 12 19 1 0
BITMAP
002E58
0061F4
000B40
001980
006090
000000
00BF90
03E5F4
0F003C
2C001D
38001D
74001D
B0001D
B0002C
B00038
B00074
7801E0
2E5BC0
06F900
ENDCHAR
STARTCHAR uni1ED7
ENCODING 7895
SWIDTH 561 0
DWIDTH 10 0
BBX 9 16 1 0
BITMAP
01E580
021F40
00B400
019C00
060900
000000
06F800
1E5E00
740B00
B00740
E00740
D00B00
D00A00
E01D00
757800
1F9000
ENDCHAR
STARTCHAR uni1ED8
ENCODING 7896
SWIDTH 720 0
DWIDTH 13 0
BBX 12 20 1 -3
BITMAP
000B40
001EC0
0060A0
000000
00BF90
03E5F4
0F003C
2C001D
38001D
74001D
B0001D
B0002C
B00038
B00074
7801E0
2E5BC0
06F900
000000
02C000
028000
ENDCHAR
STARTCHAR uni1ED9
ENCODING 7897
SWIDTH 561 0
DWIDTH 10 0
BBX 9 17 1 -3
BITMAP
007400
01EC00
060A00
000000
06F800
1E5E00
740B00
B00740
E00740
D00B00
D00A00
E01D00
757800
1F9000
000000
0A0000
0A0000
ENDCHAR
STARTCHAR uni1EDA
ENCODING 7898
SWIDTH 713 0
DWIDTH 13 0
BBX 14 17 1 0
BITMAP
0001E000
00028000
000A0000
000000F0
00BF90D0
03E5F680
0F003D00
2C001D00
38001D00
74001D00
B0001D00
B0002C00
B0003800
B0007400
7801E000
2E5BC000
06F90000
ENDCHAR
STARTCHAR uni1EDB
ENCODING 7899
SWIDTH 561 0
DWIDTH 10 0
BBX 11 14 1 0
BITMAP
000E00
002800
00A000
000038
06F874
1E5F90
740B00
B00740
E00740
D00B00
D00A00
E01D00
757800
1F9000
ENDCHAR
STARTCHAR uni1EDC
ENCODING 7900
SWIDTH 713 0
DWIDTH 13 0
BBX 14 17 1 0
BITMAP
00380000
001D0000
00060000
000000F0
00BF90D0
03E5F680
0F003D00
2C001D00
38001D00
74001D00
B0001D00
B0002C00
B0003800
B0007400
7801E000
2E5BC000
06F90000
ENDCHAR
STARTCHAR uni1EDD
ENCODING 7901
SWIDTH 561 0
DWIDTH 10 0
BBX 11 14 1 0
BITMAP
038000
01D000
006000
000038
06F874
1E5F90
740B00
B00740
E00740
D00B00
D00A00
E01D00
757800
1F9000
ENDCHAR
STARTCHAR uni1EDE
ENCODING 7902
SWIDTH 713 0
DWIDTH 13 0
BBX 14 18 1 0
BITMAP
0007D000
0000A000
00029000
00060000
000000F0
00BF90D0
03E5F680
0F003D00
2C001D00
38001D00
74001D00
B0001D00
B0002C00
B0003800
B0007400
7801E000
2E5BC000
06F90000
ENDCHAR
STARTCHAR uni1EDF
ENCODING 7903
SWIDTH 561 0
DWIDTH 10 0
BBX 11 15 1 0
BITMAP
00B800
000D00
006800
009000
000038
06F874
1E5F90
740B00
B00740
E00740
D00B00
D00A00
E01D00
757800
1F9000
ENDCHAR
STARTCHAR uni1EE0
ENCODING 7904
SWIDTH 713 0
DWIDTH 13 0
BBX 14 16 1 0
BITMAP
007E6400
0096E000
000000F0
00BF90D0
03E5F680
0F003D00
2C001D00
38001D00
74001D00
B0001D00
B0002C00
B0003800
B0007400
7801E000
2E5BC000
06F90000
ENDCHAR
STARTCHAR uni1EE1
ENCODING 7905
SWIDTH 561 0
DWIDTH 10 0
BBX 11 13 1 0
BITMAP
07E640
096E00
000038
06F874
1E5F90
740B00
B00740
E00740
D00B00
D00A00
E01D00
757800
1F9000
ENDCHAR
STARTCHAR uni1EE2
ENCODING 7906
SWIDTH 713 0
DWIDTH 13 0
BBX 14 17 1 -3
BITMAP
000000F0
00BF90D0
03E5F680
0F003D00
2C001D00
38001D00
74001D00
B0001D00
B0002C00
B0003800
B0007400
7801E000
2E5BC000
06F90000
00000000
02C00000
02800000
ENDCHAR
STARTCHAR uni1EE3
ENCODING 7907
SWIDTH 561 0
DWIDTH 10 0
BBX 11 14 1 -3
BITMAP
000038
06F874
1E5F90
740B00
B00740
E00740
D00B00
D00A00
E01D00
757800
1F9000
000000
0A0000
0A0000
ENDCHAR
STARTCHAR uni1EE4
ENCODING 7908
SWIDTH 675 0
DWIDTH 12 0
BBX 12 16 1 -3
BITMAP
0A001D
0D001C
1D0028
1C0038
2C0034
380074
3400B0
7400A0
7000E0
B001D0
7402C0
3D5F40
1BF800
000000
028000
028000
ENDCHAR
STARTCHAR uni1EE5
ENCODING 7909
SWIDTH 577 0
DWIDTH 10 0
BBX 9 13 1 -3
BITMAP
2C0280
380380
340340
740700
700B00
A00E00
E01E00
E03D00
B5EC00
6E5C00
000000
070000
0A0000
ENDCHAR
STARTCHAR uni1EE6
ENCODING 7910
SWIDTH 675 0
DWIDTH 12 0
BBX 12 18 1 0
BITMAP
000B80
0000C0
000780
000900
000000
0A001D
0D001C
1D0028
1C0038
2C0034
380074
3400B0
7400A0
7000E0
B001D0
7402C0
3D5F40
1BF800
ENDCHAR
STARTCHAR uni1EE7
ENCODING 7911
SWIDTH 577 0
DWIDTH 10 0
BBX 9 15 1 0
BITMAP
007D00
000A00
002900
006000
000000
2C0280
380380
340340
740700
700B00
A00E00
E01E00
E03D00
B5EC00
6E5C00
ENDCHAR
STARTCHAR uni1EE8
ENCODING 7912
SWIDTH 722 0
DWIDTH 13 0
BBX 15 17 1 0
BITMAP
0001E000
00028000
000A0000
00000074
0A001DB0
0D001ED0
1D002E00
1C003800
2C003400
38007400
3400B000
7400A000
7000E000
B001D000
7402C000
3D5F4000
0BF90000
ENDCHAR
STARTCHAR uni1EE9
ENCODING 7913
SWIDTH 617 0
DWIDTH 11 0
BBX 12 14 1 0
BITMAP
000E00
002C00
006000
00000B
2C029D
3803F4
340340
740700
700B00
A00E00
E01E00
E03D00
B5EC00
6E5C00
ENDCHAR
STARTCHAR uni1EEA
ENCODING 7914
SWIDTH 722 0
DWIDTH 13 0
BBX 15 17 1 0
BITMAP
00740000
00280000
00090000
00000074
0A001DB0
0D001ED0
1D002E00
1C003800
2C003400
38007400
3400B000
7400A000
7000E000
B001D000
7402C000
3D5F4000
0BF90000
ENDCHAR
STARTCHAR uni1EEB
ENCODING 7915
SWIDTH 617 0
DWIDTH 11 0
BBX 12 14 1 0
BITMAP
02C000
01D000
006000
00000B
2C029D
3803F4
340340
740700
700B00
A00E00
E01E00
E03D00
B5EC00
6E5C00
ENDCHAR
STARTCHAR uni1EEC
ENCODING 7916
SWIDTH 722 0
DWIDTH 13 0
BBX 15 18 1 0
BITMAP
000B8000
0000C000
00078000
00090000
00000074
0A001DB0
0D001ED0
1D002E00
1C003800
2C003400
38007400
3400B000
7400A000
7000E000
B001D000
7402C000
3D5F4000
0BF90000
ENDCHAR
STARTCHAR uni1EED
ENCODING 7917
SWIDTH 617 0
DWIDTH 11 0
BBX 12 15 1 0
BITMAP
007D00
000A00
002900
006000
00000B
2C029D
3803F4
340340
740700
700B00
A00E00
E01E00
E03D00
B5EC00
6E5C00
ENDCHAR
STARTCHAR uni1EEE
ENCODING 7918
SWIDTH 722 0
DWIDTH 13 0
BBX 15 16 1 0
BITMAP
007E7000
00D6D000
00000074
0A001DB0
0D001ED0
1D002E00
1C003800
2C003400
38007400
3400B000
7400A000
7000E000
B001D000
7402C000
3D5F4000
0BF90000
ENDCHAR
STARTCHAR uni1EEF
ENCODING 7919
SWIDTH 617 0
DWIDTH 11 0
BBX 12 13 1 0
BITMAP
02E680
066E00
00000B
2C029D
3803F4
340340
740700
700B00
A00E00
E01E00
E03D00
B5EC00
6E5C00
ENDCHAR
STARTCHAR uni1EF0
ENCODING 7920
SWIDTH 722 0
DWIDTH 13 0
BBX 15 17 1 -3
BITMAP
00000074
0A001DB0
0D001ED0
1D002E00
1C003800
2C003400
38007400
3400B000
7400A000
7000E000
B001D000
7402C000
3D5F4000
0BF90000
00000000
02800000
02800000
ENDCHAR
STARTCHAR uni1EF1
ENCODING 7921
SWIDTH 617 0
DWIDTH 11 0
BBX 12 14 1 -3
BITMAP
00000B
2C029D
3803F4
340340
740700
700B00
A00E00
E01E00
E03D00
B5EC00
6E5C00
000000
070000
0A0000
ENDCHAR
STARTCHAR Ygrave
ENCODING 7922
SWIDTH 502 0
DWIDTH 9 0
BBX 10 17 1 0
BITMAP
038000
01C000
00A000
000000
7401D0
340380
280B00
1C1D00
1D3800
0DB000
0AD000
078000
070000
0B0000
0A0000
0E0000
1D0000
ENDCHAR
STARTCHAR ygrave
ENCODING 7923
SWIDTH 461 0
DWIDTH 8 0
BBX 11 18 -2 -4
BITMAP
003800
001C00
000A00
000000
03402C
038074
0280A0
0281D0
01C280
01C740
01CA00
00DC00
00F800
00B000
00D000
02C000
5B4000
B90000
ENDCHAR
STARTCHAR uni1EF4
ENCODING 7924
SWIDTH 502 0
DWIDTH 9 0
BBX 10 16 1 -3
BITMAP
7401D0
340380
280B00
1C1D00
1D3800
0DB000
0AD000
078000
070000
0B0000
0A0000
0E0000
1D0000
000000
280000
280000
ENDCHAR
STARTCHAR uni1EF5
ENCODING 7925
SWIDTH 461 0
DWIDTH 8 0
BBX 11 14 -2 -4
BITMAP
03402C
038074
0280A0
0281D0
01C280
01C740
01CA00
00DC00
00F800
00B000
00D000
02C340
5B4340
B90000
ENDCHAR
STARTCHAR uni1EF6
ENCODING 7926
SWIDTH 502 0
DWIDTH 9 0
BBX 10 18 1 0
BITMAP
00B800
000900
006800
006000
000000
7401D0
340380
280B00
1C1D00
1D3800
0DB000
0AD000
078000
070000
0B0000
0A0000
0E0000
1D0000
ENDCHAR
STARTCHAR uni1EF7
ENCODING 7927
SWIDTH 461 0
DWIDTH 8 0
BBX 11 19 -2 -4
BITMAP
000B80
0000D0
000680
000900
000000
03402C
038074
0280A0
0281D0
01C280
01C740
01CA00
00DC00
00F800
00B000
00D000
02C000
5B4000
B90000
ENDCHAR
STARTCHAR uni1EF8
ENCODING 7928
SWIDTH 502 0
DWIDTH 9 0
BBX 10 16 1 0
BITMAP
02E640
0A6E00
000000
7401D0
340380
280B00
1C1D00
1D3800
0DB000
0AD000
078000
070000
0B0000
0A0000
0E0000
1D0000
ENDCHAR
STARTCHAR uni1EF9
ENCODING 7929
SWIDTH 461 0
DWIDTH 8 0
BBX 11 17 -2 -4
BITMAP
007E64
0096E0
000000
03402C
038074
0280A0
0281D0
01C280
01C740
01CA00
00DC00
00F800
00B000
00D000
02C000
5B4000
B90000
ENDCHAR
STARTCHAR uni1F4D
ENCODING 8013
SWIDTH 778 0
DWIDTH 14 0
BBX 15 13 -1 0
BITMAP
6381BE40
C60F97D0
D83C00F0
00B40074
00E00074
01D00074
01C00074
02C00074
02C000B0
01D001D0
00E007C0
00B96F00
001BE400
ENDCHAR
STARTCHAR uni2000
ENCODING 8192
SWIDTH 500 0
DWIDTH 9 0
BBX 1 1 0 0
BITMAP
00
ENDCHAR
STARTCHAR uni2001
ENCODING 8193
SWIDTH 1000 0
DWIDTH 18 0
BBX 1 1 0 0
BITMAP
00
ENDCHAR
STARTCHAR uni2002
ENCODING 8194
SWIDTH 500 0
DWIDTH 9 0
BBX 1 1 0 0
BITMAP
00
ENDCHAR
STARTCHAR uni2003
ENCODING 8195
SWIDTH 1000 0
DWIDTH 18 0
BBX 1 1 0 0
BITMAP
00
ENDCHAR
STARTCHAR uni2004
ENCODING 8196
SWIDTH 333 0
DWIDTH 6 0
BBX 1 1 0 0
BITMAP
00
ENDCHAR
STARTCHAR uni2005
ENCODING 8197
SWIDTH 250 0
DWIDTH 5 0
BBX 1 1 0 0
BITMAP
00
ENDCHAR
STARTCHAR uni2006
ENCODING 8198
SWIDTH 166 0
DWIDTH 3 0
BBX 1 1 0 0
BITMAP
00
ENDCHAR
STARTCHAR uni2007
ENCODING 8199
SWIDTH 559 0
DWIDTH 10 0
BBX 1 1 0 0
BITMAP
00
ENDCHAR
STARTCHAR uni2008
ENCODING 8200
SWIDTH 266 0
DWIDTH 5 0
BBX 1 1 0 0
BITMAP
00
ENDCHAR
STARTCHAR uni2009
ENCODING 8201
SWIDTH 200 0
DWIDTH 4 0
BBX 1 1 0 0
BITMAP
00
ENDCHAR
STARTCHAR uni200A
ENCODING 8202
SWIDTH 100 0
DWIDTH 2 0
BBX 1 1 0 0
BITMAP
00
ENDCHAR
STARTCHAR uni200B
ENCODING 8203
SWIDTH 0 0
DWIDTH 0 0
BBX 1 1 0 0
BITMAP
00
ENDCHAR
STARTCHAR endash
ENCODING 8211
SWIDTH 479 0
DWIDTH 9 0
BBX 8 2 0 4
BITMAP
7FFF
5555
ENDCHAR
STARTCHAR emdash
ENCODING 8212
SWIDTH 959 0
DWIDTH 17 0
BBX 17 2 0 4
BITMAP
7FFFFFFF80
5555555500
ENDCHAR
STARTCHAR afii00208
ENCODING 8213
SWIDTH 959 0
DWIDTH 17 0
BBX 17 2 0 4
BITMAP
7FFFFFFF80
5555555500
ENDCHAR
STARTCHAR underscoredbl
ENCODING 8215
SWIDTH 394 0
DWIDTH 7 0
BBX 8 4 -2 -5
BITMAP
7FFF
1555
BFFD
5554
ENDCHAR
STARTCHAR quoteleft
ENCODING 8216
SWIDTH 169 0
DWIDTH 3 0
BBX 4 4 1 9
BITMAP
0D
2C
74
B0
ENDCHAR
STARTCHAR quoteright
ENCODING 8217
SWIDTH 169 0
DWIDTH 3 0
BBX 4 4 1 9
BITMAP
1D
2C
74
A0
ENDCHAR
STARTCHAR quotesinglbase
ENCODING 8218
SWIDTH 240 0
DWIDTH 4 0
BBX 4 4 -1 -2
BITMAP
1D
2C
74
A0
ENDCHAR
STARTCHAR quotereversed
ENCODING 8219
SWIDTH 169 0
DWIDTH 3 0
BBX 2 4 2 9
BITMAP
E0
A0
A0
60
ENDCHAR
STARTCHAR quotedblleft
ENCODING 8220
SWIDTH 351 0
DWIDTH 6 0
BBX 7 4 1 9
BITMAP
0D28
2C70
74E0
B1D0
ENDCHAR
STARTCHAR quotedblright
ENCODING 8221
SWIDTH 351 0
DWIDTH 6 0
BBX 7 4 1 9
BITMAP
1D38
2CB0
74D0
A180
ENDCHAR
STARTCHAR quotedblbase
ENCODING 8222
SWIDTH 418 0
DWIDTH 8 0
BBX 7 4 -1 -2
BITMAP
1D38
2C70
74D0
A180
ENDCHAR
STARTCHAR dagger
ENCODING 8224
SWIDTH 465 0
DWIDTH 8 0
BBX 7 14 2 0
BITMAP
0380
0340
0300
FBB4
5A50
0900
0C00
1C00
1C00
2800
3800
7400
7400
B000
ENDCHAR
STARTCHAR daggerdbl
ENCODING 8225
SWIDTH 476 0
DWIDTH 9 0
BBX 8 14 1 0
BITMAP
00B0
00E0
00D0
2EEE
1695
0280
0380
0340
0700
FBB4
5A50
0D00
1D00
1D00
ENDCHAR
STARTCHAR bullet
ENCODING 8226
SWIDTH 377 0
DWIDTH 7 0
BBX 5 4 1 5
BITMAP
1F40
3F80
7F80
2E00
ENDCHAR
STARTCHAR ellipsis
ENCODING 8230
SWIDTH 763 0
DWIDTH 14 0
BBX 12 3 0 0
BITMAP
100404
743C1E
74381D
ENDCHAR
STARTCHAR perthousand
ENCODING 8240
SWIDTH 1117 0
DWIDTH 20 0
BBX 19 13 1 0
BITMAP
0BD00A0000
29A0280000
3470700000
7070D00000
60A2800000
60D66E07E0
769DD75D70
2E75826834
00A2437434
01C3437070
07434730A0
09039D35D0
2801F41F40
ENDCHAR
STARTCHAR minute
ENCODING 8242
SWIDTH 216 0
DWIDTH 4 0
BBX 2 5 2 8
BITMAP
70
B0
A0
90
C0
ENDCHAR
STARTCHAR second
ENCODING 8243
SWIDTH 386 0
DWIDTH 7 0
BBX 6 5 2 8
BITMAP
71D0
B2C0
A280
9240
C300
ENDCHAR
STARTCHAR guilsinglleft
ENCODING 8249
SWIDTH 283 0
DWIDTH 5 0
BBX 4 7 1 1
BITMAP
06
1D
B4
D0
A0
34
18
ENDCHAR
STARTCHAR guilsinglright
ENCODING 8250
SWIDTH 283 0
DWIDTH 5 0
BBX 5 7 0 1
BITMAP
1800
1C00
0A00
0740
0E00
3800
9000
ENDCHAR
STARTCHAR exclamdbl
ENCODING 8252
SWIDTH 479 0
DWIDTH 9 0
BBX 10 13 0 0
BITMAP
0B01D0
0B02C0
0E0280
0D0380
1C0340
280700
280600
340900
300900
000000
500400
F03C00
E02800
ENDCHAR
STARTCHAR fraction
ENCODING 8260
SWIDTH 130 0
DWIDTH 2 0
BBX 11 13 -4 0
BITMAP
000034
0000A0
000280
000700
000D00
002800
00A000
01C000
034000
0A0000
1C0000
740000
D00000
ENDCHAR
STARTCHAR zerosuperior
ENCODING 8304
SWIDTH 350 0
DWIDTH 6 0
BBX 6 8 1 5
BITMAP
0B80
28A0
7060
A0A0
A090
90D0
A280
2E00
ENDCHAR
STARTCHAR foursuperior
ENCODING 8308
SWIDTH 350 0
DWIDTH 6 0
BBX 6 8 1 5
BITMAP
01D0
03C0
0AC0
2580
6240
FFD0
0300
0700
ENDCHAR
STARTCHAR fivesuperior
ENCODING 8309
SWIDTH 350 0
DWIDTH 6 0
BBX 6 8 1 5
BITMAP
0FE0
1800
2400
3F40
01C0
00C0
4280
BE00
ENDCHAR
STARTCHAR sixsuperior
ENCODING 8310
SWIDTH 350 0
DWIDTH 6 0
BBX 6 8 1 5
BITMAP
06E0
1D00
3400
7B80
74D0
A090
61C0
2E40
ENDCHAR
STARTCHAR sevensuperior
ENCODING 8311
SWIDTH 350 0
DWIDTH 6 0
BBX 6 8 1 5
BITMAP
2FF0
00A0
01C0
0240
0700
0D00
2800
7400
ENDCHAR
STARTCHAR eightsuperior
ENCODING 8312
SWIDTH 350 0
DWIDTH 6 0
BBX 6 8 1 5
BITMAP
1BD0
28A0
2890
1F40
76C0
90C0
A1C0
6E40
ENDCHAR
STARTCHAR ninesuperior
ENCODING 8313
SWIDTH 350 0
DWIDTH 6 0
BBX 6 8 1 5
BITMAP
0B80
34A0
7060
30E0
2ED0
01C0
0740
B900
ENDCHAR
STARTCHAR nsuperior
ENCODING 8319
SWIDTH 368 0
DWIDTH 7 0
BBX 6 6 1 7
BITMAP
1AE0
2D30
2460
3060
7090
60D0
ENDCHAR
STARTCHAR franc
ENCODING 8355
SWIDTH 550 0
DWIDTH 10 0
BBX 11 13 0 0
BITMAP
00FFF4
01E550
01C000
02C000
028000
034000
07FF80
075540
0A0000
7FF000
1D0000
1C0000
1C0000
ENDCHAR
STARTCHAR afii08941
ENCODING 8356
SWIDTH 550 0
DWIDTH 10 0
BBX 10 13 0 0
BITMAP
002FE0
00B560
01D000
02C000
028000
2FFE00
075400
070000
7FFD00
1A5400
1D0000
795500
FFFF40
ENDCHAR
STARTCHAR peseta
ENCODING 8359
SWIDTH 725 0
DWIDTH 13 0
BBX 13 13 0 0
BITMAP
03F90000
039B4000
07038000
0B028000
0A039D00
0E07FF80
0D1E2800
1FF83400
2D403400
28007000
3800B000
7400B500
70007E00
ENDCHAR
STARTCHAR uni20AB
ENCODING 8363
SWIDTH 577 0
DWIDTH 10 0
BBX 12 18 0 -4
BITMAP
000038
000034
002FFE
0000B4
01B9A0
0797E0
0E02D0
2C01D0
3802C0
340380
340780
340F40
2D7B00
0B9700
000000
000000
BFFD00
555400
ENDCHAR
STARTCHAR Euro
ENCODING 8364
SWIDTH 550 0
DWIDTH 10 0
BBX 11 13 0 0
BITMAP
000BE4
007D64
00E000
02C000
034000
2FFF00
0A5400
7FFC00
0E0000
0E0000
0B0000
03D640
01BE40
ENDCHAR
STARTCHAR afii61248
ENCODING 8453
SWIDTH 777 0
DWIDTH 14 0
BBX 11 13 2 0
BITMAP
1BC034
3400A0
A001C0
A00740
A00D00
2F2800
007000
01D7E0
034D34
0A1828
1C2824
342870
A00B90
ENDCHAR
STARTCHAR afii61289
ENCODING 8467
SWIDTH 500 0
DWIDTH 9 0
BBX 7 13 1 0
BITMAP
06E0
0A34
0D24
0D24
0D30
0E90
1F40
AD00
0D00
0D00
0A08
0B58
02E0
ENDCHAR
STARTCHAR afii61352
ENCODING 8470
SWIDTH 950 0
DWIDTH 17 0
BBX 17 13 0 0
BITMAP
03C00A0000
03D00D0000
07A01C0000
07701C0000
0A74286E00
0D3834D340
0D28358240
1C1C728240
2C0DB24340
280AA28A00
3407D0B800
7407D15400
7003C3FC00
ENDCHAR
STARTCHAR uni2120
ENCODING 8480
SWIDTH 762 0
DWIDTH 14 0
BBX 12 6 0 7
BITMAP
2F5D0B
301E0B
291A17
065A63
0198A3
7E5893
ENDCHAR
STARTCHAR trademark
ENCODING 8482
SWIDTH 749 0
DWIDTH 13 0
BBX 12 6 1 7
BITMAP
FFAC0E
1C2D1E
1C2A2A
1C276A
1C26DA
1C25CA
ENDCHAR
STARTCHAR Omega
ENCODING 8486
SWIDTH 732 0
DWIDTH 13 0
BBX 13 13 0 0
BITMAP
002FE400
01F97D00
07800B00
0B000740
0D000340
1D000340
2C000740
2C000B00
1D000E00
0D002C00
0B00B400
5782D500
FF8BFE00
ENDCHAR
STARTCHAR estimated
ENCODING 8494
SWIDTH 619 0
DWIDTH 11 0
BBX 10 10 1 0
BITMAP
06A900
280240
7402C0
B402D0
FAAA90
F40000
B40000
740040
280240
06A800
ENDCHAR
STARTCHAR oneeighth
ENCODING 8539
SWIDTH 752 0
DWIDTH 14 0
BBX 12 13 1 0
BITMAP
0B0034
7A00A0
090280
0D0700
0C0D00
1C28BD
286287
25D18A
0341F8
0A075C
1C0A0D
740A1C
D002E4
ENDCHAR
STARTCHAR threeeighths
ENCODING 8540
SWIDTH 812 0
DWIDTH 15 0
BBX 13 13 1 0
BITMAP
2F800A00
10D01C00
01C07400
2F00D000
02828000
01872F40
428D61C0
BE286280
00A03E00
01C0D700
03428240
0A018700
2800BD00
ENDCHAR
STARTCHAR fiveeighths
ENCODING 8541
SWIDTH 818 0
DWIDTH 15 0
BBX 13 13 1 0
BITMAP
2FD00A00
24002800
30007000
7E00D000
02828000
01872F80
425D61C0
BD347280
00A03E00
01C0D740
03418240
0A018340
2800BD00
ENDCHAR
STARTCHAR seveneighths
ENCODING 8542
SWIDTH 750 0
DWIDTH 14 0
BBX 12 13 1 0
BITMAP
3FE034
00D0A0
028280
070700
090D00
1C28BD
34A286
A1C28A
0341F4
0A075C
1C090D
740A1C
D002E4
ENDCHAR
STARTCHAR partialdiff
ENCODING 8706
SWIDTH 581 0
DWIDTH 10 0
BBX 9 13 1 0
BITMAP
06F800
055E00
000740
000380
06F780
2E5F80
740740
B00740
E00700
E00E00
A02C00
B5B400
2F9000
ENDCHAR
STARTCHAR Delta
ENCODING 8710
SWIDTH 558 0
DWIDTH 10 0
BBX 10 13 -1 0
BITMAP
000780
000B80
001E80
0029C0
0075C0
00E1C0
01D1D0
0380D0
0740D0
0E00E0
1C00A0
3955A0
7FFFE0
ENDCHAR
STARTCHAR product
ENCODING 8719
SWIDTH 741 0
DWIDTH 13 0
BBX 10 17 2 -4
BITMAP
FFFFF0
E555B0
E000B0
E000B0
E000B0
E000B0
E000B0
E000B0
E000B0
E000B0
E000B0
E000B0
E000B0
E000B0
E000B0
E000B0
E000B0
ENDCHAR
STARTCHAR summation
ENCODING 8721
SWIDTH 630 0
DWIDTH 11 0
BBX 11 17 1 -4
BITMAP
3FFFF4
2D5550
0E0000
078000
01D000
00B400
003C00
001E00
000E00
002C00
007400
00E000
02C000
0B4000
1E0000
3D5554
7FFFFC
ENDCHAR
STARTCHAR minus
ENCODING 8722
SWIDTH 550 0
DWIDTH 10 0
BBX 9 2 1 5
BITMAP
FFFF40
555500
ENDCHAR
STARTCHAR radical
ENCODING 8730
SWIDTH 548 0
DWIDTH 10 0
BBX 10 15 1 0
BITMAP
000030
0000A0
0000D0
0001C0
000280
000340
000700
F80A00
6C0D00
0D1C00
0A2800
073400
03B000
02E000
01D000
ENDCHAR
STARTCHAR infinity
ENCODING 8734
SWIDTH 707 0
DWIDTH 13 0
BBX 11 5 1 4
BITMAP
2F46E0
75AD68
90341C
65AD28
2F47E0
ENDCHAR
STARTCHAR integral
ENCODING 8747
SWIDTH 383 0
DWIDTH 7 0
BBX 7 18 0 -4
BITMAP
00BC
02D4
0340
0340
0340
0340
0340
0340
0340
0340
0340
0340
0340
0340
0340
0340
5B00
B900
ENDCHAR
STARTCHAR approxequal
ENCODING 8776
SWIDTH 550 0
DWIDTH 10 0
BBX 9 6 1 3
BITMAP
7E9540
95BE00
000000
000000
7F9640
95BE00
ENDCHAR
STARTCHAR notequal
ENCODING 8800
SWIDTH 550 0
DWIDTH 10 0
BBX 9 10 1 1
BITMAP
001800
002800
007000
FFFF40
55D500
028000
FFFF40
5E5500
1C0000
180000
ENDCHAR
STARTCHAR lessequal
ENCODING 8804
SWIDTH 550 0
DWIDTH 10 0
BBX 9 11 1 0
BITMAP
000240
002E00
01E400
1E4000
B40000
7D0000
06E000
006E00
000640
555500
FFFF40
ENDCHAR
STARTCHAR greaterequal
ENCODING 8805
SWIDTH 550 0
DWIDTH 10 0
BBX 9 11 1 0
BITMAP
900000
B90000
0B8000
00B800
000B00
006E00
07D000
7D0000
900000
555500
FFFF40
ENDCHAR
STARTCHAR lozenge
ENCODING 9674
SWIDTH 583 0
DWIDTH 11 0
BBX 9 13 1 0
BITMAP
00D000
02E000
077400
0A1C00
1C0A00
340740
B00280
340740
1C0A00
0A1C00
077400
02E000
00D000
ENDCHAR
STARTCHAR ff
ENCODING 64256
SWIDTH 630 0
DWIDTH 11 0
BBX 16 18 -2 -4
BITMAP
000BE0BD
001D52D4
00280340
00340700
02FFFFF0
00B00E00
00A00D00
00E01D00
00D01C00
01C02800
02C03800
02803400
03407400
07407000
0700A000
0A00D000
5D06C000
F81F4000
ENDCHAR
STARTCHAR uniFB01
ENCODING 64257
SWIDTH 568 0
DWIDTH 10 0
BBX 13 18 -2 -4
BITMAP
000BE740
001D5740
00280000
00340000
02FF4E00
00B00D00
00A01D00
00E01C00
00D02800
01C03800
02C03400
02807000
0340B000
0740A000
07000000
0A000000
5D000000
F8000000
ENDCHAR
STARTCHAR uniFB02
ENCODING 64258
SWIDTH 568 0
DWIDTH 10 0
BBX 13 18 -2 -4
BITMAP
000BE340
001D5740
00280700
00340A00
02FF4E00
00B00D00
00A01D00
00E01C00
00D02800
01C03800
02C03400
02807000
0340B000
0740A000
07000000
0A000000
5D000000
F8000000
ENDCHAR
STARTCHAR uniFB03
ENCODING 64259
SWIDTH 886 0
DWIDTH 16 0
BBX 18 18 -2 -4
BITMAP
000BE0BD70
001D52D460
0028034000
0034070000
02FFFFF0D0
00B00E01C0
00A00D02C0
00E01D0280
00D01C0380
01C0280740
02C0380700
0280340B00
0340740A00
0740700D00
0700A00000
0A00D00000
5D06C00000
F81F400000
ENDCHAR
STARTCHAR uniFB04
ENCODING 64260
SWIDTH 886 0
DWIDTH 16 0
BBX 18 18 -2 -4
BITMAP
000BE0BD70
001D52D4B0
00280340A0
00340700E0
02FFFFF0D0
00B00E01C0
00A00D02C0
00E01D0280
00D01C0340
01C0280740
02C0380700
0280340B00
0340740A00
0740700D00
0700A00000
0A00D00000
5D06C00000
F81F400000
ENDCHAR
STARTCHAR uniFEFF
ENCODING 65279
SWIDTH 0 0
DWIDTH 0 0
BBX 1 1 0 0
BITMAP
00
ENDCHAR
STARTCHAR uniFFFC
ENCODING 65532
SWIDTH 1000 0
DWIDTH 18 0
BBX 18 16 0 -3
BITMAP
7DB8F6E7D0
6000000090
6000000090
0000000000
6000000090
61F8BD1C90
0349961C00
630ABD1C90
6349971890
01F8BDB400
6000000050
6000000090
0000000000
6000000090
6000000090
7DB8F6E7D0
ENDCHAR
STARTCHAR uniFFFD
ENCODING 65533
SWIDTH 1000 0
DWIDTH 18 0
BBX 16 17 1 -3
BITMAP
00024000
0007D000
001FF400
007FFD00
01D01F40
07EB87D0
1FFFC3F4
7FFF43FD
FFFD0BFF
7FFC2FFD
1FF87FF4
07FFFFD0
01FDBF40
00783D00
00187400
0007D000
00024000
ENDCHAR
STARTCHAR .notdef
ENCODING -1
SWIDTH 600 0
DWIDTH 11 0
BBX 8 13 1 0
BITMAP
7FFF
6002
6002
6002
6002
6002
6002
6002
6002
6002
6002
6002
7FFF
ENDCHAR
STARTCHAR null
ENCODING -1
SWIDTH 0 0
DWIDTH 0 0
BBX 1 1 0 0
BITMAP
00
ENDCHAR
STARTCHAR nonmarkingreturn
ENCODING -1
SWIDTH 509 0
DWIDTH 9 0
BBX 1 1 0 0
BITMAP
00
ENDCHAR
STARTCHAR I.alt
ENCODING -1
SWIDTH 317 0
DWIDTH 6 0
BBX 8 13 -1 0
BITMAP
02FE
00B0
00A0
00E0
00D0
01C0
02C0
0280
0380
0340
0700
0B00
7FC0
ENDCHAR
STARTCHAR Igrave.alt
ENCODING -1
SWIDTH 317 0
DWIDTH 6 0
BBX 8 17 -1 0
BITMAP
00D0
00B0
0024
0000
02FE
00B0
00A0
00E0
00D0
01C0
02C0
0280
0380
0340
0700
0B00
7FC0
ENDCHAR
STARTCHAR Iacute.alt
ENCODING -1
SWIDTH 317 0
DWIDTH 6 0
BBX 9 17 -1 0
BITMAP
000740
000E00
002400
000000
02FE00
00B000
00A000
00E000
00D000
01C000
02C000
028000
038000
034000
070000
0B0000
7FC000
ENDCHAR
STARTCHAR Icircumflex.alt
ENCODING -1
SWIDTH 317 0
DWIDTH 6 0
BBX 9 17 -1 0
BITMAP
002C00
00AA00
028340
000000
02FE00
00B000
00A000
00E000
00D000
01C000
02C000
028000
038000
034000
070000
0B0000
7FC000
ENDCHAR
STARTCHAR Idieresis.alt
ENCODING -1
SWIDTH 317 0
DWIDTH 6 0
BBX 9 16 -1 0
BITMAP
01C340
018300
000000
02FE00
00B000
00A000
00E000
00D000
01C000
02C000
028000
038000
034000
070000
0B0000
7FC000
ENDCHAR
STARTCHAR Itilde.alt
ENCODING -1
SWIDTH 317 0
DWIDTH 6 0
BBX 9 16 -1 0
BITMAP
01F5C0
036F40
000000
02FE00
00B000
00A000
00E000
00D000
01C000
02C000
028000
038000
034000
070000
0B0000
7FC000
ENDCHAR
STARTCHAR Imacron.alt
ENCODING -1
SWIDTH 317 0
DWIDTH 6 0
BBX 9 16 -1 0
BITMAP
005500
02FF40
000000
02FE00
00B000
00A000
00E000
00D000
01C000
02C000
028000
038000
034000
070000
0B0000
7FC000
ENDCHAR
STARTCHAR Ibreve.alt
ENCODING -1
SWIDTH 317 0
DWIDTH 6 0
BBX 9 16 -1 0
BITMAP
019640
00BE00
000000
02FE00
00B000
00A000
00E000
00D000
01C000
02C000
028000
038000
034000
070000
0B0000
7FC000
ENDCHAR
STARTCHAR Iogonek.alt
ENCODING -1
SWIDTH 317 0
DWIDTH 6 0
BBX 8 17 -1 -4
BITMAP
02FE
00B0
00A0
00E0
00D0
01C0
02C0
0280
0380
0340
0700
0B00
7FC0
0900
2800
2400
1E00
ENDCHAR
STARTCHAR Idotaccent.alt
ENCODING -1
SWIDTH 317 0
DWIDTH 6 0
BBX 8 16 -1 0
BITMAP
0028
0028
0000
02FE
00B0
00A0
00E0
00D0
01C0
02C0
0280
0380
0340
0700
0B00
7FC0
ENDCHAR
STARTCHAR IJ.alt
ENCODING -1
SWIDTH 583 0
DWIDTH 11 0
BBX 12 16 -1 -3
BITMAP
02FE0E
00B00D
00A01C
00E02C
00D028
01C034
02C074
028070
0380B0
0340E0
0700D0
0B01D0
7FC2C0
000380
005B40
00F900
ENDCHAR
STARTCHAR Iotatonos.alt
ENCODING -1
SWIDTH 439 0
DWIDTH 8 0
BBX 8 14 1 0
BITMAP
2C00
35FE
A074
C070
00A0
00E0
00D0
01C0
02C0
0280
0340
0740
0700
3FD0
ENDCHAR
STARTCHAR Iota.alt
ENCODING -1
SWIDTH 317 0
DWIDTH 6 0
BBX 8 13 -1 0
BITMAP
02FE
00B0
00A0
00E0
00D0
01C0
02C0
0280
0380
0340
0700
0B00
7FC0
ENDCHAR
STARTCHAR Iotadieresis.alt
ENCODING -1
SWIDTH 317 0
DWIDTH 6 0
BBX 9 16 -1 0
BITMAP
01C340
018300
000000
02FE00
00B000
00A000
00E000
00D000
01C000
02C000
028000
038000
034000
070000
0B0000
7FC000
ENDCHAR
STARTCHAR afii10055.alt
ENCODING -1
SWIDTH 317 0
DWIDTH 6 0
BBX 8 13 -1 0
BITMAP
02FE
00B0
00A0
00E0
00D0
01C0
02C0
0280
0380
0340
0700
0B00
7FC0
ENDCHAR
STARTCHAR afii10056.alt
ENCODING -1
SWIDTH 317 0
DWIDTH 6 0
BBX 9 16 -1 0
BITMAP
01C340
018300
000000
02FE00
00B000
00A000
00E000
00D000
01C000
02C000
028000
038000
034000
070000
0B0000
7FC000
ENDCHAR
STARTCHAR cyrillicbreve
ENCODING -1
SWIDTH 562 0
DWIDTH 10 0
BBX 7 3 3 11
BITMAP
D034
A1B0
6F80
ENDCHAR
STARTCHAR caroncommaaccent
ENCODING -1
SWIDTH 477 0
DWIDTH 9 0
BBX 3 3 4 11
BITMAP
1C
28
60
ENDCHAR
STARTCHAR commaaccent
ENCODING -1
SWIDTH 477 0
DWIDTH 9 0
BBX 3 3 1 -4
BITMAP
2C
34
60
ENDCHAR
STARTCHAR commaaccentrotate
ENCODING -1
SWIDTH 477 0
DWIDTH 9 0
BBX 3 3 4 11
BITMAP
0C
24
70
ENDCHAR
STARTCHAR dasiaoxia
ENCODING -1
SWIDTH 418 0
DWIDTH 8 0
BBX 5 3 3 10
BITMAP
6380
CA00
D800
ENDCHAR
STARTCHAR uni04C0.alt
ENCODING -1
SWIDTH 317 0
DWIDTH 6 0
BBX 8 13 -1 0
BITMAP
02FE
00B0
00A0
00E0
00D0
01C0
02C0
0280
0380
0340
0700
0B00
7FC0
ENDCHAR
STARTCHAR uni04CF.alt
ENCODING -1
SWIDTH 317 0
DWIDTH 6 0
BBX 8 13 -1 0
BITMAP
02FE
00B0
00A0
00E0
00D0
01C0
02C0
0280
0380
0340
0700
0B00
7FC0
ENDCHAR
STARTCHAR uni1EC8.alt
ENCODING -1
SWIDTH 317 0
DWIDTH 6 0
BBX 8 18 -1 0
BITMAP
002E
0003
001D
0030
0000
02FE
00B0
00A0
00E0
00D0
01C0
02C0
0280
0380
0340
0700
0B00
7FC0
ENDCHAR
STARTCHAR uni1ECA.alt
ENCODING -1
SWIDTH 317 0
DWIDTH 6 0
BBX 8 16 -1 -3
BITMAP
02FE
00B0
00A0
00E0
00D0
01C0
02C0
0280
0380
0340
0700
0B00
7FC0
0000
0D00
1D00
ENDCHAR
STARTCHAR circumflexacutecomb
ENCODING -1
SWIDTH 0 0
DWIDTH 0 0
BBX 8 4 -7 11
BITMAP
000E
0F24
2A80
9080
ENDCHAR
STARTCHAR circumflexgravecomb
ENCODING -1
SWIDTH 0 0
DWIDTH 0 0
BBX 6 4 -8 11
BITMAP
D000
63C0
0AA0
2420
ENDCHAR
STARTCHAR circumflexhookcomb
ENCODING -1
SWIDTH 0 0
DWIDTH 0 0
BBX 7 5 -7 11
BITMAP
0028
0008
0F34
2A80
9080
ENDCHAR
STARTCHAR circumflextildecomb
ENCODING -1
SWIDTH 0 0
DWIDTH 0 0
BBX 7 5 -7 11
BITMAP
2E18
62E0
0F00
2A80
9080
ENDCHAR
STARTCHAR breveacutecomb
ENCODING -1
SWIDTH 0 0
DWIDTH 0 0
BBX 6 4 -7 11
BITMAP
01D0
0600
A5D0
2F40
ENDCHAR
STARTCHAR brevegravecomb
ENCODING -1
SWIDTH 0 0
DWIDTH 0 0
BBX 6 4 -7 11
BITMAP
2800
0900
A5D0
2F40
ENDCHAR
STARTCHAR brevehookcomb
ENCODING -1
SWIDTH 0 0
DWIDTH 0 0
BBX 6 5 -7 11
BITMAP
0A40
0280
0A00
A5D0
2F40
ENDCHAR
STARTCHAR brevetildecomb
ENCODING -1
SWIDTH 0 0
DWIDTH 0 0
BBX 7 5 -7 11
BITMAP
2E24
96E0
0000
A5D0
2F40
ENDCHAR
STARTCHAR cyrillichookleft
ENCODING -1
SWIDTH 205 0
DWIDTH 4 0
BBX 4 4 -2 -4
BITMAP
09
0A
0A
78
ENDCHAR
STARTCHAR one.pnum
ENCODING -1
SWIDTH 375 0
DWIDTH 7 0
BBX 6 13 1 0
BITMAP
02D0
1FC0
BAC0
5280
0380
0740
0700
0B00
0E00
0D00
1D00
1C00
2800
ENDCHAR
STARTCHAR zero.os
ENCODING -1
SWIDTH 554 0
DWIDTH 10 0
BBX 8 10 1 0
BITMAP
06F4
2E5D
740B
B007
E007
D00B
D00E
E01D
B5B4
1F90
ENDCHAR
STARTCHAR one.os
ENCODING -1
SWIDTH 358 0
DWIDTH 6 0
BBX 5 10 1 0
BITMAP
0740
2F40
E700
4B00
0A00
0D00
1D00
1C00
2800
2800
ENDCHAR
STARTCHAR two.os
ENCODING -1
SWIDTH 483 0
DWIDTH 9 0
BBX 9 10 -1 0
BITMAP
01BE00
079780
0102C0
000280
000740
002D00
00A400
078000
2E5500
7FFF40
ENDCHAR
STARTCHAR three.os
ENCODING -1
SWIDTH 483 0
DWIDTH 9 0
BBX 10 13 -2 -3
BITMAP
01BF40
0396D0
0000A0
0000A0
0000D0
000780
01FD00
005B00
000380
000280
000380
795F00
2BF800
ENDCHAR
STARTCHAR four.os
ENCODING -1
SWIDTH 540 0
DWIDTH 10 0
BBX 10 13 -1 -3
BITMAP
0002E0
0007D0
000EC0
0039C0
00A280
01C380
074340
0E0740
280700
7FFFE0
155E40
000D00
001C00
ENDCHAR
STARTCHAR five.os
ENCODING -1
SWIDTH 503 0
DWIDTH 9 0
BBX 10 13 -1 -3
BITMAP
01FFE0
029540
034000
070000
0B0000
0BF900
055B40
000380
000380
000380
000740
656E00
2FE400
ENDCHAR
STARTCHAR six.os
ENCODING -1
SWIDTH 540 0
DWIDTH 10 0
BBX 9 13 1 0
BITMAP
006F40
07D500
0E0000
2C0000
340000
76F400
BD6D00
F00A00
E00A00
D00E00
A01D00
797800
1F9000
ENDCHAR
STARTCHAR seven.os
ENCODING -1
SWIDTH 474 0
DWIDTH 9 0
BBX 9 13 0 -3
BITMAP
7FFF40
555B00
000E00
002C00
003400
00B000
01D000
028000
070000
0E0000
2C0000
740000
B00000
ENDCHAR
STARTCHAR eight.os
ENCODING -1
SWIDTH 534 0
DWIDTH 10 0
BBX 10 13 0 0
BITMAP
00BE40
0396C0
0701D0
0B00D0
0702C0
028A00
06F800
1F5E00
380740
700340
740740
3D5E00
0BE400
ENDCHAR
STARTCHAR nine.os
ENCODING -1
SWIDTH 527 0
DWIDTH 10 0
BBX 9 13 0 -3
BITMAP
02F900
0F5B00
2C0340
340380
340380
340740
381F40
1FEB00
000A00
001D00
003800
95F000
BF8000
ENDCHAR
STARTCHAR g.alt
ENCODING -1
SWIDTH 577 0
DWIDTH 10 0
BBX 10 14 0 -4
BITMAP
01B960
0797A0
0E02D0
2C01C0
3802C0
340380
340740
340F40
2D7B00
0B9B00
000E00
001D00
657800
6FD000
ENDCHAR
STARTCHAR gcircumflex.alt
ENCODING -1
SWIDTH 577 0
DWIDTH 10 0
BBX 10 18 0 -4
BITMAP
000F00
003B40
00D1C0
000000
01B960
0797A0
0E02D0
2C01C0
3802C0
340380
340740
340F40
2D7B00
0B9B00
000E00
001D00
657800
6FD000
ENDCHAR
STARTCHAR gbreve.alt
ENCODING -1
SWIDTH 577 0
DWIDTH 10 0
BBX 10 17 0 -4
BITMAP
00A5C0
007F40
000000
01B960
0797A0
0E02D0
2C01C0
3802C0
340380
340740
340F40
2D7B00
0B9B00
000E00
001D00
657800
6FD000
ENDCHAR
STARTCHAR gdot.alt
ENCODING -1
SWIDTH 577 0
DWIDTH 10 0
BBX 10 17 0 -4
BITMAP
001C00
001C00
000000
01B960
0797A0
0E02D0
2C01C0
3802C0
340380
340740
340F40
2D7B00
0B9B00
000E00
001D00
657800
6FD000
ENDCHAR
STARTCHAR gcommaaccent.alt
ENCODING -1
SWIDTH 577 0
DWIDTH 10 0
BBX 10 18 0 -4
BITMAP
000300
000A00
001C00
000000
01B960
0797A0
0E02D0
2C01C0
3802C0
340380
340740
340F40
2D7B00
0B9B00
000E00
001D00
657800
6FD000
ENDCHAR
ENDFONT
